;TYPE=PLATED
;Layer: PTH_Through
;EasyEDA Pro v3.2.148, 2026-06-10 18:48:27
;Gerber Generator version 0.3
M48
METRIC,LZ,0000.00000
;Hole size 1 = 0.88900 METRIC
T01C0.88900
;Hole size 2 = 1.01600 METRIC
T02C1.01600
;Hole size 3 = 1.20000 METRIC
T03C1.20000
;Hole size 4 = 1.54940 METRIC
T04C1.54940
;Hole size 5 = 1.70002 METRIC
T05C1.70002
%
G05
G90
T01
X3.175Y27.305
X5.715Y27.305
X8.255Y27.305
X10.795Y27.305
X13.335Y27.305
X15.875Y27.305
X18.415Y27.305
X18.415Y42.545
X15.875Y42.545
X13.335Y42.545
X10.795Y42.545
X8.255Y42.545
X5.715Y42.545
X3.175Y42.545
T02
X40.98501Y41.91053
X40.98501Y44.45053
X40.98501Y39.37053
X40.98501Y36.83053
T03
X10.20001Y4.56105
X15.19999Y4.56105
X12.7Y4.56105
X15.19999Y19.06107
X10.20001Y19.06107
T04
X53.34Y14.732
X59.69Y17.272
X32.258Y14.732
X38.608Y17.272
X74.295Y14.605
X80.645Y17.145
T05
X18.20012Y12.61092G85X18.20012Y11.51095
X7.20014Y12.61092G85X7.20014Y11.51095
M30