G04 Layer: TopLayer*
G04 EasyEDA Pro v3.2.148, 2026-06-10 18:48:27*
G04 Gerber Generator version 0.3*
G04 Scale: 100 percent, Rotated: No, Reflected: No*
G04 Dimensions in millimeters*
G04 Leading zeros omitted, absolute positions, 4 integers and 5 decimals*
G04 Generated by one-click*
G04 Object Configs: Pad,Via,Track,Text,Image,Dimension,BoardOutline,BoardCutout,CopperFilled,SolidRegion,FPCStiffener,Line,PlaneZone,ComponentProperty,ComponentSilkscreen,TearDrop*
G04 Layer Configs: 1,2,3,4,5,6,7,8,9,10,11,13,14,71,56*
G04 Copper Areas: 0*
%FSLAX45Y45*%
%MOMM*%
%AMRoundRect*1,1,$1,$2,$3*1,1,$1,$4,$5*1,1,$1,0-$2,0-$3*1,1,$1,0-$4,0-$5*20,1,$1,$2,$3,$4,$5,0*20,1,$1,$4,$5,0-$2,0-$3,0*20,1,$1,0-$2,0-$3,0-$4,0-$5,0*20,1,$1,0-$4,0-$5,$2,$3,0*4,1,4,$2,$3,$4,$5,0-$2,0-$3,0-$4,0-$5,$2,$3,0*%
%ADD10C,2.0574*%
%ADD11RoundRect,0.3048X-0.6096X-1.0636X-0.6096X1.0636*%
%ADD12C,1.524*%
%ADD13C,2.0*%
%ADD14R,2.0X2.0*%
%ADD15O,2.4X3.59999*%
%ADD16C,0.2537*%
%ADD17C,0.254*%
G75*


G04 Pad Start*
G54D10*
G01X5334000Y1473200D03*
G01X5969000Y1727200D03*
G01X3225800Y1473200D03*
G01X3860800Y1727200D03*
G01X7429500Y1460500D03*
G01X8064500Y1714500D03*
G54D11*
G01X317500Y2647000D03*
G54D12*
G01X317500Y2730500D03*
G54D11*
G01X571500Y2647000D03*
G54D12*
G01X571500Y2730500D03*
G54D11*
G01X825500Y2647000D03*
G54D12*
G01X825500Y2730500D03*
G54D11*
G01X1079500Y2647000D03*
G54D12*
G01X1079500Y2730500D03*
G54D11*
G01X1333500Y2647000D03*
G54D12*
G01X1333500Y2730500D03*
G54D11*
G01X1587500Y2647000D03*
G54D12*
G01X1587500Y2730500D03*
G54D11*
G01X1841500Y2647000D03*
G54D12*
G01X1841500Y2730500D03*
G01X1841500Y4254500D03*
G54D11*
G01X1841500Y4338000D03*
G54D12*
G01X1587500Y4254500D03*
G54D11*
G01X1587500Y4338000D03*
G54D12*
G01X1333500Y4254500D03*
G54D11*
G01X1333500Y4338000D03*
G54D12*
G01X1079500Y4254500D03*
G54D11*
G01X1079500Y4338000D03*
G54D12*
G01X825500Y4254500D03*
G54D11*
G01X825500Y4338000D03*
G54D12*
G01X571500Y4254500D03*
G54D11*
G01X571500Y4338000D03*
G54D12*
G01X317500Y4254500D03*
G54D11*
G01X317500Y4338000D03*
G54D13*
G01X4098514Y4191051D03*
G01X4098514Y4445051D03*
G01X4098514Y3937051D03*
G54D14*
G01X4098514Y3683051D03*
G54D13*
G01X1020013Y456082D03*
G01X1520012Y456082D03*
G01X1270000Y456082D03*
G01X1520012Y1906092D03*
G01X1020013Y1906092D03*
G54D15*
G01X1820012Y1206094D03*
G01X720014Y1206094D03*
G04 Pad End*

G04 Track Start*
G54D17*
G01X317499Y4338001D02*
G01X317499Y4254501D01*
G01X571499Y2647005D02*
G01X571499Y2730505D01*
G01X571499Y2647005D02*
G01X571499Y1757010D01*
G01X1020008Y1308501D01*
G01X1020008Y456079D01*
G01X825498Y2647005D02*
G01X825498Y2730505D01*
G01X1079498Y2647005D02*
G01X1079498Y2730505D01*
G01X1079498Y2647005D02*
G01X1079498Y2157009D01*
G01X1511297Y1725210D01*
G01X1511297Y464789D01*
G01X1520007Y456079D01*
G01X825498Y4338001D02*
G01X825498Y4203605D01*
G01X1460497Y3568606D01*
G01X1460497Y1965596D01*
G01X1520007Y1906086D01*
G01X1587497Y2647005D02*
G01X1587497Y2730505D01*
G01X1079498Y4338001D02*
G01X1079498Y4203605D01*
G01X3086094Y2197009D01*
G01X3086094Y1422397D01*
G01X3187694Y1320797D01*
G01X5181600Y1320797D01*
G01X5333999Y1473197D01*
G01X1333497Y2647005D02*
G01X1333497Y2730505D01*
G01X1333497Y4338001D02*
G01X1333497Y4203605D01*
G01X3225804Y2311299D01*
G01X3225804Y1473197D01*
G01X571499Y4338001D02*
G01X571499Y4203605D01*
G01X952498Y3822606D01*
G01X952498Y1973596D01*
G01X1020008Y1906086D01*
G01X1587497Y4338001D02*
G01X1587497Y4203605D01*
G01X4178292Y1612810D01*
G01X5397489Y1612810D01*
G01X5549802Y1460497D01*
G01X7429505Y1460497D01*
G04 Track End*

M02*

