G04 Layer: DrillDrawingLayer*
G04 EasyEDA Pro v3.2.148, 2026-06-10 18:48:27*
G04 Gerber Generator version 0.3*
G04 Scale: 100 percent, Rotated: No, Reflected: No*
G04 Dimensions in millimeters*
G04 Leading zeros omitted, absolute positions, 4 integers and 5 decimals*
G04 Generated by one-click*
G04 Object Configs: Pad,Via,Track,Text,Image,Dimension,BoardOutline,BoardCutout,CopperFilled,SolidRegion,FPCStiffener,Line,PlaneZone,ComponentProperty,ComponentSilkscreen,TearDrop*
G04 Layer Configs: 1,2,3,4,5,6,7,8,9,10,11,13,14,71,56*
G04 Copper Areas: 0*
%FSLAX45Y45*%
%MOMM*%
%AMIconRect*4,1,4,0.28,-0.28,-0.28,-0.28,-0.28,0.28,0.28,0.28,0.28,-0.28,0*4,0,4,0.233333,-0.233333,0.233333,0.233333,-0.233333,0.233333,-0.233333,-0.233333,0.233333,-0.233333,0*%
%AMIconTriangle*4,1,3,-0.339593,0.240473,0.339593,0.240473,0,-0.37884,-0.339593,0.240473,0*4,0,3,-0.265673,0.19404,0,-0.27342,0.266233,0.19404,-0.265673,0.19404,0*%
%AMIconStar6*4,1,12,0.12068,0.20888,0.298527,0.172713,0.241313,0,0.298527,-0.17206,0.12068,-0.208227,0,-0.344073,-0.120073,-0.208227,-0.298573,-0.17206,-0.240707,0,-0.298573,0.17206,-0.120073,0.20888,0,0.344073,0.12068,0.20888,0*4,0,12,-0.000467,0.273467,-0.090067,0.171733,-0.237533,0.136733,-0.193667,-0.007467,-0.237533,-0.1372,-0.090067,-0.171733,-0.000467,-0.273933,0.090067,-0.171733,0.237533,-0.1372,0.194133,0.007,0.237533,0.1372,0.090067,0.171267,-0.000467,0.273467,0*%
%AMIconStar4*4,1,8,-0.311733,0.311733,0,0.202533,0.311733,0.311733,0.202533,0,0.311733,-0.311733,0,-0.202533,-0.304407,-0.311733,-0.202533,0,-0.311733,0.311733,0*4,0,8,0.233333,-0.233333,0.1512,0,0.233333,0.233333,0,0.1512,-0.233333,0.233333,-0.1512,0,-0.233333,-0.233333,0,-0.1512,0.233333,-0.233333,0*%
%AMIconPlus*4,1,12,0.1736,-0.28,-0.1736,-0.28,-0.1736,-0.1736,-0.28,-0.1736,-0.28,0.1736,-0.1736,0.1736,-0.1736,0.28,0.1736,0.28,0.1736,0.1736,0.28,0.1736,0.28,-0.1736,0.1736,-0.1736,0.1736,-0.28,0*4,0,12,0.126933,-0.233333,0.126933,-0.126933,0.233333,-0.126933,0.233333,0.126933,0.126933,0.126933,0.126933,0.233333,-0.126933,0.233333,-0.126933,0.126933,-0.233333,0.126933,-0.233333,-0.126933,-0.126933,-0.126933,-0.126933,-0.233333,0.126933,-0.233333,0*%
%ADD10IconRect*%
%ADD11C,0.616X0.522667*%
%ADD12IconTriangle*%
%ADD13IconStar6*%
%ADD14IconStar4*%
%ADD15IconPlus*%
%ADD16C,0.2032*%
%ADD17C,0.254*%
G75*


G04 Drill Drawing Start*
G54D10*
G01X720014Y1206094D03*
G01X1820012Y1206094D03*
G54D11*
G01X4098501Y3683053D03*
G01X4098501Y3937053D03*
G01X4098501Y4191053D03*
G01X4098501Y4445053D03*
G54D12*
G01X342900Y304800D03*
G01X482600Y4737100D03*
G01X8775700Y266700D03*
G01X8775700Y4775200D03*
G54D13*
G01X1020001Y456105D03*
G01X1020001Y1906107D03*
G01X1270000Y456105D03*
G01X1520000Y456105D03*
G01X1520000Y1906107D03*
G54D14*
G01X3225800Y1473200D03*
G01X3860800Y1727200D03*
G01X5334000Y1473200D03*
G01X5969000Y1727200D03*
G01X7429500Y1460500D03*
G01X8064500Y1714500D03*
G54D15*
G01X317500Y4254500D03*
G01X317500Y2730500D03*
G01X571500Y4254500D03*
G01X571500Y2730500D03*
G01X825500Y2730500D03*
G01X825500Y4254500D03*
G01X1079500Y2730500D03*
G01X1079500Y4254500D03*
G01X1333500Y2730500D03*
G01X1333500Y4254500D03*
G01X1587500Y2730500D03*
G01X1587500Y4254500D03*
G01X1841500Y2730500D03*
G01X1841500Y4254500D03*
G04 Drill Drawing End*

G04 Text Start*
G54D16*
G01X11355946Y4833794D02*
G01X11355946Y4713652D01*
G01X11355946Y4833794D02*
G01X11401666Y4713652D01*
G01X11447386Y4833794D02*
G01X11401666Y4713652D01*
G01X11447386Y4833794D02*
G01X11447386Y4713652D01*
G01X11563718Y4793662D02*
G01X11563718Y4713652D01*
G01X11563718Y4776644D02*
G01X11552288Y4788074D01*
G01X11540858Y4793662D01*
G01X11523840Y4793662D01*
G01X11512410Y4788074D01*
G01X11500980Y4776644D01*
G01X11495138Y4759372D01*
G01X11495138Y4747942D01*
G01X11500980Y4730924D01*
G01X11512410Y4719494D01*
G01X11523840Y4713652D01*
G01X11540858Y4713652D01*
G01X11552288Y4719494D01*
G01X11563718Y4730924D01*
G01X11611470Y4793662D02*
G01X11611470Y4713652D01*
G01X11611470Y4759372D02*
G01X11617312Y4776644D01*
G01X11628742Y4788074D01*
G01X11640172Y4793662D01*
G01X11657190Y4793662D01*
G01X11704942Y4833794D02*
G01X11704942Y4713652D01*
G01X11762092Y4793662D02*
G01X11704942Y4736512D01*
G01X11727802Y4759372D02*
G01X11767934Y4713652D01*
G01X12893226Y4805092D02*
G01X12887384Y4816522D01*
G01X12875954Y4827952D01*
G01X12864524Y4833794D01*
G01X12841664Y4833794D01*
G01X12830234Y4827952D01*
G01X12818804Y4816522D01*
G01X12813216Y4805092D01*
G01X12807374Y4788074D01*
G01X12807374Y4759372D01*
G01X12813216Y4742354D01*
G01X12818804Y4730924D01*
G01X12830234Y4719494D01*
G01X12841664Y4713652D01*
G01X12864524Y4713652D01*
G01X12875954Y4719494D01*
G01X12887384Y4730924D01*
G01X12893226Y4742354D01*
G01X12969680Y4793662D02*
G01X12958250Y4788074D01*
G01X12946820Y4776644D01*
G01X12940978Y4759372D01*
G01X12940978Y4747942D01*
G01X12946820Y4730924D01*
G01X12958250Y4719494D01*
G01X12969680Y4713652D01*
G01X12986698Y4713652D01*
G01X12998128Y4719494D01*
G01X13009558Y4730924D01*
G01X13015400Y4747942D01*
G01X13015400Y4759372D01*
G01X13009558Y4776644D01*
G01X12998128Y4788074D01*
G01X12986698Y4793662D01*
G01X12969680Y4793662D01*
G01X13063152Y4793662D02*
G01X13063152Y4736512D01*
G01X13068994Y4719494D01*
G01X13080424Y4713652D01*
G01X13097442Y4713652D01*
G01X13108872Y4719494D01*
G01X13126144Y4736512D01*
G01X13126144Y4793662D02*
G01X13126144Y4713652D01*
G01X13173896Y4793662D02*
G01X13173896Y4713652D01*
G01X13173896Y4770802D02*
G01X13191168Y4788074D01*
G01X13202598Y4793662D01*
G01X13219616Y4793662D01*
G01X13231046Y4788074D01*
G01X13236888Y4770802D01*
G01X13236888Y4713652D01*
G01X13301912Y4833794D02*
G01X13301912Y4736512D01*
G01X13307500Y4719494D01*
G01X13318930Y4713652D01*
G01X13330360Y4713652D01*
G01X13284640Y4793662D02*
G01X13324772Y4793662D01*
G01X14301547Y4816522D02*
G01X14290117Y4827952D01*
G01X14273099Y4833794D01*
G01X14250239Y4833794D01*
G01X14232967Y4827952D01*
G01X14221537Y4816522D01*
G01X14221537Y4805092D01*
G01X14227379Y4793662D01*
G01X14232967Y4788074D01*
G01X14244397Y4782232D01*
G01X14278687Y4770802D01*
G01X14290117Y4765214D01*
G01X14295959Y4759372D01*
G01X14301547Y4747942D01*
G01X14301547Y4730924D01*
G01X14290117Y4719494D01*
G01X14273099Y4713652D01*
G01X14250239Y4713652D01*
G01X14232967Y4719494D01*
G01X14221537Y4730924D01*
G01X14349299Y4833794D02*
G01X14355141Y4827952D01*
G01X14360729Y4833794D01*
G01X14355141Y4839382D01*
G01X14349299Y4833794D01*
G01X14355141Y4793662D02*
G01X14355141Y4713652D01*
G01X14471473Y4793662D02*
G01X14408481Y4713652D01*
G01X14408481Y4793662D02*
G01X14471473Y4793662D01*
G01X14408481Y4713652D02*
G01X14471473Y4713652D01*
G01X14519225Y4759372D02*
G01X14587805Y4759372D01*
G01X14587805Y4770802D01*
G01X14582217Y4782232D01*
G01X14576375Y4788074D01*
G01X14564945Y4793662D01*
G01X14547927Y4793662D01*
G01X14536497Y4788074D01*
G01X14525067Y4776644D01*
G01X14519225Y4759372D01*
G01X14519225Y4747942D01*
G01X14525067Y4730924D01*
G01X14536497Y4719494D01*
G01X14547927Y4713652D01*
G01X14564945Y4713652D01*
G01X14576375Y4719494D01*
G01X14587805Y4730924D01*
G01X18103819Y4833794D02*
G01X18103819Y4713652D01*
G01X18103819Y4833794D02*
G01X18155381Y4833794D01*
G01X18172399Y4827952D01*
G01X18178241Y4822364D01*
G01X18183829Y4810934D01*
G01X18183829Y4793662D01*
G01X18178241Y4782232D01*
G01X18172399Y4776644D01*
G01X18155381Y4770802D01*
G01X18103819Y4770802D01*
G01X18231581Y4833794D02*
G01X18231581Y4713652D01*
G01X18347913Y4793662D02*
G01X18347913Y4713652D01*
G01X18347913Y4776644D02*
G01X18336483Y4788074D01*
G01X18325053Y4793662D01*
G01X18308035Y4793662D01*
G01X18296605Y4788074D01*
G01X18285175Y4776644D01*
G01X18279333Y4759372D01*
G01X18279333Y4747942D01*
G01X18285175Y4730924D01*
G01X18296605Y4719494D01*
G01X18308035Y4713652D01*
G01X18325053Y4713652D01*
G01X18336483Y4719494D01*
G01X18347913Y4730924D01*
G01X18412937Y4833794D02*
G01X18412937Y4736512D01*
G01X18418525Y4719494D01*
G01X18429955Y4713652D01*
G01X18441385Y4713652D01*
G01X18395665Y4793662D02*
G01X18435797Y4793662D01*
G01X18489137Y4759372D02*
G01X18557717Y4759372D01*
G01X18557717Y4770802D01*
G01X18552129Y4782232D01*
G01X18546287Y4788074D01*
G01X18534857Y4793662D01*
G01X18517839Y4793662D01*
G01X18506409Y4788074D01*
G01X18494979Y4776644D01*
G01X18489137Y4759372D01*
G01X18489137Y4747942D01*
G01X18494979Y4730924D01*
G01X18506409Y4719494D01*
G01X18517839Y4713652D01*
G01X18534857Y4713652D01*
G01X18546287Y4719494D01*
G01X18557717Y4730924D01*
G01X18674049Y4833794D02*
G01X18674049Y4713652D01*
G01X18674049Y4776644D02*
G01X18662619Y4788074D01*
G01X18651189Y4793662D01*
G01X18634171Y4793662D01*
G01X18622741Y4788074D01*
G01X18611311Y4776644D01*
G01X18605469Y4759372D01*
G01X18605469Y4747942D01*
G01X18611311Y4730924D01*
G01X18622741Y4719494D01*
G01X18634171Y4713652D01*
G01X18651189Y4713652D01*
G01X18662619Y4719494D01*
G01X18674049Y4730924D01*
G01X19645236Y4816522D02*
G01X19633806Y4827952D01*
G01X19616788Y4833794D01*
G01X19593928Y4833794D01*
G01X19576656Y4827952D01*
G01X19565226Y4816522D01*
G01X19565226Y4805092D01*
G01X19571068Y4793662D01*
G01X19576656Y4788074D01*
G01X19588086Y4782232D01*
G01X19622376Y4770802D01*
G01X19633806Y4765214D01*
G01X19639648Y4759372D01*
G01X19645236Y4747942D01*
G01X19645236Y4730924D01*
G01X19633806Y4719494D01*
G01X19616788Y4713652D01*
G01X19593928Y4713652D01*
G01X19576656Y4719494D01*
G01X19565226Y4730924D01*
G01X19692988Y4833794D02*
G01X19692988Y4713652D01*
G01X19692988Y4770802D02*
G01X19710260Y4788074D01*
G01X19721690Y4793662D01*
G01X19738708Y4793662D01*
G01X19750138Y4788074D01*
G01X19755980Y4770802D01*
G01X19755980Y4713652D01*
G01X19872312Y4793662D02*
G01X19872312Y4713652D01*
G01X19872312Y4776644D02*
G01X19860882Y4788074D01*
G01X19849452Y4793662D01*
G01X19832434Y4793662D01*
G01X19821004Y4788074D01*
G01X19809574Y4776644D01*
G01X19803732Y4759372D01*
G01X19803732Y4747942D01*
G01X19809574Y4730924D01*
G01X19821004Y4719494D01*
G01X19832434Y4713652D01*
G01X19849452Y4713652D01*
G01X19860882Y4719494D01*
G01X19872312Y4730924D01*
G01X19920064Y4793662D02*
G01X19920064Y4673774D01*
G01X19920064Y4776644D02*
G01X19931494Y4788074D01*
G01X19942924Y4793662D01*
G01X19960196Y4793662D01*
G01X19971626Y4788074D01*
G01X19983056Y4776644D01*
G01X19988644Y4759372D01*
G01X19988644Y4747942D01*
G01X19983056Y4730924D01*
G01X19971626Y4719494D01*
G01X19960196Y4713652D01*
G01X19942924Y4713652D01*
G01X19931494Y4719494D01*
G01X19920064Y4730924D01*
G01X20036396Y4759372D02*
G01X20104976Y4759372D01*
G01X20104976Y4770802D01*
G01X20099388Y4782232D01*
G01X20093546Y4788074D01*
G01X20082116Y4793662D01*
G01X20065098Y4793662D01*
G01X20053668Y4788074D01*
G01X20042238Y4776644D01*
G01X20036396Y4759372D01*
G01X20036396Y4747942D01*
G01X20042238Y4730924D01*
G01X20053668Y4719494D01*
G01X20065098Y4713652D01*
G01X20082116Y4713652D01*
G01X20093546Y4719494D01*
G01X20104976Y4730924D01*
G01X20996407Y4833794D02*
G01X21042127Y4713652D01*
G01X21087847Y4833794D02*
G01X21042127Y4713652D01*
G01X21135599Y4833794D02*
G01X21141441Y4827952D01*
G01X21147029Y4833794D01*
G01X21141441Y4839382D01*
G01X21135599Y4833794D01*
G01X21141441Y4793662D02*
G01X21141441Y4713652D01*
G01X21263361Y4793662D02*
G01X21263361Y4713652D01*
G01X21263361Y4776644D02*
G01X21251931Y4788074D01*
G01X21240501Y4793662D01*
G01X21223483Y4793662D01*
G01X21212053Y4788074D01*
G01X21200623Y4776644D01*
G01X21194781Y4759372D01*
G01X21194781Y4747942D01*
G01X21200623Y4730924D01*
G01X21212053Y4719494D01*
G01X21223483Y4713652D01*
G01X21240501Y4713652D01*
G01X21251931Y4719494D01*
G01X21263361Y4730924D01*
G01X21413983Y4856654D02*
G01X21311113Y4673774D01*
G01X21461735Y4833794D02*
G01X21461735Y4713652D01*
G01X21461735Y4833794D02*
G01X21513297Y4833794D01*
G01X21530315Y4827952D01*
G01X21536157Y4822364D01*
G01X21541745Y4810934D01*
G01X21541745Y4793662D01*
G01X21536157Y4782232D01*
G01X21530315Y4776644D01*
G01X21513297Y4770802D01*
G01X21461735Y4770802D01*
G01X21658077Y4793662D02*
G01X21658077Y4713652D01*
G01X21658077Y4776644D02*
G01X21646647Y4788074D01*
G01X21635217Y4793662D01*
G01X21618199Y4793662D01*
G01X21606769Y4788074D01*
G01X21595339Y4776644D01*
G01X21589497Y4759372D01*
G01X21589497Y4747942D01*
G01X21595339Y4730924D01*
G01X21606769Y4719494D01*
G01X21618199Y4713652D01*
G01X21635217Y4713652D01*
G01X21646647Y4719494D01*
G01X21658077Y4730924D01*
G01X21774409Y4833794D02*
G01X21774409Y4713652D01*
G01X21774409Y4776644D02*
G01X21762979Y4788074D01*
G01X21751549Y4793662D01*
G01X21734531Y4793662D01*
G01X21723101Y4788074D01*
G01X21711671Y4776644D01*
G01X21705829Y4759372D01*
G01X21705829Y4747942D01*
G01X21711671Y4730924D01*
G01X21723101Y4719494D01*
G01X21734531Y4713652D01*
G01X21751549Y4713652D01*
G01X21762979Y4719494D01*
G01X21774409Y4730924D01*
G01X22665586Y4833794D02*
G01X22665586Y4713652D01*
G01X22665586Y4833794D02*
G01X22717148Y4833794D01*
G01X22734166Y4827952D01*
G01X22740008Y4822364D01*
G01X22745596Y4810934D01*
G01X22745596Y4793662D01*
G01X22740008Y4782232D01*
G01X22734166Y4776644D01*
G01X22717148Y4770802D01*
G01X22665586Y4770802D01*
G01X22861928Y4793662D02*
G01X22861928Y4713652D01*
G01X22861928Y4776644D02*
G01X22850498Y4788074D01*
G01X22839068Y4793662D01*
G01X22822050Y4793662D01*
G01X22810620Y4788074D01*
G01X22799190Y4776644D01*
G01X22793348Y4759372D01*
G01X22793348Y4747942D01*
G01X22799190Y4730924D01*
G01X22810620Y4719494D01*
G01X22822050Y4713652D01*
G01X22839068Y4713652D01*
G01X22850498Y4719494D01*
G01X22861928Y4730924D01*
G01X22978260Y4833794D02*
G01X22978260Y4713652D01*
G01X22978260Y4776644D02*
G01X22966830Y4788074D01*
G01X22955400Y4793662D01*
G01X22938382Y4793662D01*
G01X22926952Y4788074D01*
G01X22915522Y4776644D01*
G01X22909680Y4759372D01*
G01X22909680Y4747942D01*
G01X22915522Y4730924D01*
G01X22926952Y4719494D01*
G01X22938382Y4713652D01*
G01X22955400Y4713652D01*
G01X22966830Y4719494D01*
G01X22978260Y4730924D01*
G01X23234038Y4816522D02*
G01X23222608Y4827952D01*
G01X23205590Y4833794D01*
G01X23182730Y4833794D01*
G01X23165458Y4827952D01*
G01X23154028Y4816522D01*
G01X23154028Y4805092D01*
G01X23159870Y4793662D01*
G01X23165458Y4788074D01*
G01X23176888Y4782232D01*
G01X23211178Y4770802D01*
G01X23222608Y4765214D01*
G01X23228450Y4759372D01*
G01X23234038Y4747942D01*
G01X23234038Y4730924D01*
G01X23222608Y4719494D01*
G01X23205590Y4713652D01*
G01X23182730Y4713652D01*
G01X23165458Y4719494D01*
G01X23154028Y4730924D01*
G01X23281790Y4833794D02*
G01X23281790Y4713652D01*
G01X23281790Y4770802D02*
G01X23299062Y4788074D01*
G01X23310492Y4793662D01*
G01X23327510Y4793662D01*
G01X23338940Y4788074D01*
G01X23344782Y4770802D01*
G01X23344782Y4713652D01*
G01X23461114Y4793662D02*
G01X23461114Y4713652D01*
G01X23461114Y4776644D02*
G01X23449684Y4788074D01*
G01X23438254Y4793662D01*
G01X23421236Y4793662D01*
G01X23409806Y4788074D01*
G01X23398376Y4776644D01*
G01X23392534Y4759372D01*
G01X23392534Y4747942D01*
G01X23398376Y4730924D01*
G01X23409806Y4719494D01*
G01X23421236Y4713652D01*
G01X23438254Y4713652D01*
G01X23449684Y4719494D01*
G01X23461114Y4730924D01*
G01X23508866Y4793662D02*
G01X23508866Y4673774D01*
G01X23508866Y4776644D02*
G01X23520296Y4788074D01*
G01X23531726Y4793662D01*
G01X23548998Y4793662D01*
G01X23560428Y4788074D01*
G01X23571858Y4776644D01*
G01X23577446Y4759372D01*
G01X23577446Y4747942D01*
G01X23571858Y4730924D01*
G01X23560428Y4719494D01*
G01X23548998Y4713652D01*
G01X23531726Y4713652D01*
G01X23520296Y4719494D01*
G01X23508866Y4730924D01*
G01X23625198Y4759372D02*
G01X23693778Y4759372D01*
G01X23693778Y4770802D01*
G01X23688190Y4782232D01*
G01X23682348Y4788074D01*
G01X23670918Y4793662D01*
G01X23653900Y4793662D01*
G01X23642470Y4788074D01*
G01X23631040Y4776644D01*
G01X23625198Y4759372D01*
G01X23625198Y4747942D01*
G01X23631040Y4730924D01*
G01X23642470Y4719494D01*
G01X23653900Y4713652D01*
G01X23670918Y4713652D01*
G01X23682348Y4719494D01*
G01X23693778Y4730924D01*
G01X24584955Y4833794D02*
G01X24584955Y4713652D01*
G01X24584955Y4713652D02*
G01X24653535Y4713652D01*
G01X24769867Y4793662D02*
G01X24769867Y4713652D01*
G01X24769867Y4776644D02*
G01X24758437Y4788074D01*
G01X24747007Y4793662D01*
G01X24729989Y4793662D01*
G01X24718559Y4788074D01*
G01X24707129Y4776644D01*
G01X24701287Y4759372D01*
G01X24701287Y4747942D01*
G01X24707129Y4730924D01*
G01X24718559Y4719494D01*
G01X24729989Y4713652D01*
G01X24747007Y4713652D01*
G01X24758437Y4719494D01*
G01X24769867Y4730924D01*
G01X24823461Y4793662D02*
G01X24857751Y4713652D01*
G01X24892041Y4793662D02*
G01X24857751Y4713652D01*
G01X24846321Y4690792D01*
G01X24834891Y4679362D01*
G01X24823461Y4673774D01*
G01X24817619Y4673774D01*
G01X24939793Y4759372D02*
G01X25008373Y4759372D01*
G01X25008373Y4770802D01*
G01X25002785Y4782232D01*
G01X24996943Y4788074D01*
G01X24985513Y4793662D01*
G01X24968495Y4793662D01*
G01X24957065Y4788074D01*
G01X24945635Y4776644D01*
G01X24939793Y4759372D01*
G01X24939793Y4747942D01*
G01X24945635Y4730924D01*
G01X24957065Y4719494D01*
G01X24968495Y4713652D01*
G01X24985513Y4713652D01*
G01X24996943Y4719494D01*
G01X25008373Y4730924D01*
G01X25056125Y4793662D02*
G01X25056125Y4713652D01*
G01X25056125Y4759372D02*
G01X25061967Y4776644D01*
G01X25073397Y4788074D01*
G01X25084827Y4793662D01*
G01X25101845Y4793662D01*
G01X25277613Y4833794D02*
G01X25277613Y4713652D01*
G01X25277613Y4833794D02*
G01X25329175Y4833794D01*
G01X25346193Y4827952D01*
G01X25352035Y4822364D01*
G01X25357623Y4810934D01*
G01X25357623Y4793662D01*
G01X25352035Y4782232D01*
G01X25346193Y4776644D01*
G01X25329175Y4770802D01*
G01X25277613Y4770802D01*
G01X25473955Y4793662D02*
G01X25473955Y4713652D01*
G01X25473955Y4776644D02*
G01X25462525Y4788074D01*
G01X25451095Y4793662D01*
G01X25434077Y4793662D01*
G01X25422647Y4788074D01*
G01X25411217Y4776644D01*
G01X25405375Y4759372D01*
G01X25405375Y4747942D01*
G01X25411217Y4730924D01*
G01X25422647Y4719494D01*
G01X25434077Y4713652D01*
G01X25451095Y4713652D01*
G01X25462525Y4719494D01*
G01X25473955Y4730924D01*
G01X25521707Y4833794D02*
G01X25527549Y4827952D01*
G01X25533137Y4833794D01*
G01X25527549Y4839382D01*
G01X25521707Y4833794D01*
G01X25527549Y4793662D02*
G01X25527549Y4713652D01*
G01X25580889Y4793662D02*
G01X25580889Y4713652D01*
G01X25580889Y4759372D02*
G01X25586731Y4776644D01*
G01X25598161Y4788074D01*
G01X25609591Y4793662D01*
G01X25626609Y4793662D01*
G01X12813216Y4224521D02*
G01X12813216Y4230363D01*
G01X12818804Y4241793D01*
G01X12824646Y4247381D01*
G01X12836076Y4253223D01*
G01X12858936Y4253223D01*
G01X12870366Y4247381D01*
G01X12875954Y4241793D01*
G01X12881796Y4230363D01*
G01X12881796Y4218933D01*
G01X12875954Y4207503D01*
G01X12864524Y4190231D01*
G01X12807374Y4133081D01*
G01X12887384Y4133081D01*
G01X14290117Y4235951D02*
G01X14284529Y4247381D01*
G01X14267257Y4253223D01*
G01X14255827Y4253223D01*
G01X14238809Y4247381D01*
G01X14227379Y4230363D01*
G01X14221537Y4201661D01*
G01X14221537Y4173213D01*
G01X14227379Y4150353D01*
G01X14238809Y4138923D01*
G01X14255827Y4133081D01*
G01X14261669Y4133081D01*
G01X14278687Y4138923D01*
G01X14290117Y4150353D01*
G01X14295959Y4167371D01*
G01X14295959Y4173213D01*
G01X14290117Y4190231D01*
G01X14278687Y4201661D01*
G01X14261669Y4207503D01*
G01X14255827Y4207503D01*
G01X14238809Y4201661D01*
G01X14227379Y4190231D01*
G01X14221537Y4173213D01*
G01X14412291Y4235951D02*
G01X14406703Y4247381D01*
G01X14389431Y4253223D01*
G01X14378001Y4253223D01*
G01X14360983Y4247381D01*
G01X14349553Y4230363D01*
G01X14343711Y4201661D01*
G01X14343711Y4173213D01*
G01X14349553Y4150353D01*
G01X14360983Y4138923D01*
G01X14378001Y4133081D01*
G01X14383843Y4133081D01*
G01X14400861Y4138923D01*
G01X14412291Y4150353D01*
G01X14418133Y4167371D01*
G01X14418133Y4173213D01*
G01X14412291Y4190231D01*
G01X14400861Y4201661D01*
G01X14383843Y4207503D01*
G01X14378001Y4207503D01*
G01X14360983Y4201661D01*
G01X14349553Y4190231D01*
G01X14343711Y4173213D01*
G01X14471727Y4161783D02*
G01X14465885Y4155941D01*
G01X14471727Y4150353D01*
G01X14477315Y4155941D01*
G01X14471727Y4161783D01*
G01X14599489Y4213091D02*
G01X14593647Y4196073D01*
G01X14582217Y4184643D01*
G01X14565199Y4178801D01*
G01X14559357Y4178801D01*
G01X14542339Y4184643D01*
G01X14530909Y4196073D01*
G01X14525067Y4213091D01*
G01X14525067Y4218933D01*
G01X14530909Y4235951D01*
G01X14542339Y4247381D01*
G01X14559357Y4253223D01*
G01X14565199Y4253223D01*
G01X14582217Y4247381D01*
G01X14593647Y4235951D01*
G01X14599489Y4213091D01*
G01X14599489Y4184643D01*
G01X14593647Y4155941D01*
G01X14582217Y4138923D01*
G01X14565199Y4133081D01*
G01X14553769Y4133081D01*
G01X14536497Y4138923D01*
G01X14530909Y4150353D01*
G01X14647241Y4213091D02*
G01X14710233Y4133081D01*
G01X14710233Y4213091D02*
G01X14647241Y4133081D01*
G01X14757985Y4230363D02*
G01X14769415Y4235951D01*
G01X14786687Y4253223D01*
G01X14786687Y4133081D01*
G01X14834439Y4230363D02*
G01X14845869Y4235951D01*
G01X14863141Y4253223D01*
G01X14863141Y4133081D01*
G01X14945183Y4253223D02*
G01X14928165Y4247381D01*
G01X14916735Y4230363D01*
G01X14910893Y4201661D01*
G01X14910893Y4184643D01*
G01X14916735Y4155941D01*
G01X14928165Y4138923D01*
G01X14945183Y4133081D01*
G01X14956613Y4133081D01*
G01X14973885Y4138923D01*
G01X14985315Y4155941D01*
G01X14990903Y4184643D01*
G01X14990903Y4201661D01*
G01X14985315Y4230363D01*
G01X14973885Y4247381D01*
G01X14956613Y4253223D01*
G01X14945183Y4253223D01*
G01X15044497Y4161783D02*
G01X15038655Y4155941D01*
G01X15044497Y4150353D01*
G01X15050085Y4155941D01*
G01X15044497Y4161783D01*
G01X15103679Y4224521D02*
G01X15103679Y4230363D01*
G01X15109267Y4241793D01*
G01X15115109Y4247381D01*
G01X15126539Y4253223D01*
G01X15149399Y4253223D01*
G01X15160829Y4247381D01*
G01X15166417Y4241793D01*
G01X15172259Y4230363D01*
G01X15172259Y4218933D01*
G01X15166417Y4207503D01*
G01X15154987Y4190231D01*
G01X15097837Y4133081D01*
G01X15177847Y4133081D01*
G01X15225599Y4213091D02*
G01X15225599Y4133081D01*
G01X15225599Y4190231D02*
G01X15242871Y4207503D01*
G01X15254301Y4213091D01*
G01X15271319Y4213091D01*
G01X15282749Y4207503D01*
G01X15288591Y4190231D01*
G01X15288591Y4133081D01*
G01X15288591Y4190231D02*
G01X15305609Y4207503D01*
G01X15317039Y4213091D01*
G01X15334311Y4213091D01*
G01X15345741Y4207503D01*
G01X15351329Y4190231D01*
G01X15351329Y4133081D01*
G01X15399081Y4253223D02*
G01X15404923Y4247381D01*
G01X15410511Y4253223D01*
G01X15404923Y4258811D01*
G01X15399081Y4253223D01*
G01X15404923Y4213091D02*
G01X15404923Y4133081D01*
G01X15458263Y4253223D02*
G01X15458263Y4133081D01*
G01X15546147Y4276083D02*
G01X15534717Y4264653D01*
G01X15523287Y4247381D01*
G01X15511857Y4224521D01*
G01X15506015Y4196073D01*
G01X15506015Y4173213D01*
G01X15511857Y4144511D01*
G01X15523287Y4121651D01*
G01X15534717Y4104633D01*
G01X15546147Y4093203D01*
G01X15593899Y4230363D02*
G01X15605329Y4235951D01*
G01X15622601Y4253223D01*
G01X15622601Y4133081D01*
G01X15676195Y4161783D02*
G01X15670353Y4155941D01*
G01X15676195Y4150353D01*
G01X15681783Y4155941D01*
G01X15676195Y4161783D01*
G01X15809545Y4253223D02*
G01X15752395Y4133081D01*
G01X15729535Y4253223D02*
G01X15809545Y4253223D01*
G01X15891587Y4253223D02*
G01X15874569Y4247381D01*
G01X15863139Y4230363D01*
G01X15857297Y4201661D01*
G01X15857297Y4184643D01*
G01X15863139Y4155941D01*
G01X15874569Y4138923D01*
G01X15891587Y4133081D01*
G01X15903017Y4133081D01*
G01X15920289Y4138923D01*
G01X15931719Y4155941D01*
G01X15937307Y4184643D01*
G01X15937307Y4201661D01*
G01X15931719Y4230363D01*
G01X15920289Y4247381D01*
G01X15903017Y4253223D01*
G01X15891587Y4253223D01*
G01X16019349Y4253223D02*
G01X16002331Y4247381D01*
G01X15990901Y4230363D01*
G01X15985059Y4201661D01*
G01X15985059Y4184643D01*
G01X15990901Y4155941D01*
G01X16002331Y4138923D01*
G01X16019349Y4133081D01*
G01X16030779Y4133081D01*
G01X16048051Y4138923D01*
G01X16059481Y4155941D01*
G01X16065069Y4184643D01*
G01X16065069Y4201661D01*
G01X16059481Y4230363D01*
G01X16048051Y4247381D01*
G01X16030779Y4253223D01*
G01X16019349Y4253223D01*
G01X16112821Y4213091D02*
G01X16175813Y4133081D01*
G01X16175813Y4213091D02*
G01X16112821Y4133081D01*
G01X16229407Y4224521D02*
G01X16229407Y4230363D01*
G01X16234995Y4241793D01*
G01X16240837Y4247381D01*
G01X16252267Y4253223D01*
G01X16275127Y4253223D01*
G01X16286557Y4247381D01*
G01X16292145Y4241793D01*
G01X16297987Y4230363D01*
G01X16297987Y4218933D01*
G01X16292145Y4207503D01*
G01X16280715Y4190231D01*
G01X16223565Y4133081D01*
G01X16303575Y4133081D01*
G01X16357169Y4161783D02*
G01X16351327Y4155941D01*
G01X16357169Y4150353D01*
G01X16362757Y4155941D01*
G01X16357169Y4161783D01*
G01X16439211Y4253223D02*
G01X16421939Y4247381D01*
G01X16416351Y4235951D01*
G01X16416351Y4224521D01*
G01X16421939Y4213091D01*
G01X16433369Y4207503D01*
G01X16456229Y4201661D01*
G01X16473501Y4196073D01*
G01X16484931Y4184643D01*
G01X16490519Y4173213D01*
G01X16490519Y4155941D01*
G01X16484931Y4144511D01*
G01X16479089Y4138923D01*
G01X16462071Y4133081D01*
G01X16439211Y4133081D01*
G01X16421939Y4138923D01*
G01X16416351Y4144511D01*
G01X16410509Y4155941D01*
G01X16410509Y4173213D01*
G01X16416351Y4184643D01*
G01X16427781Y4196073D01*
G01X16444799Y4201661D01*
G01X16467659Y4207503D01*
G01X16479089Y4213091D01*
G01X16484931Y4224521D01*
G01X16484931Y4235951D01*
G01X16479089Y4247381D01*
G01X16462071Y4253223D01*
G01X16439211Y4253223D01*
G01X16572561Y4253223D02*
G01X16555543Y4247381D01*
G01X16544113Y4230363D01*
G01X16538271Y4201661D01*
G01X16538271Y4184643D01*
G01X16544113Y4155941D01*
G01X16555543Y4138923D01*
G01X16572561Y4133081D01*
G01X16583991Y4133081D01*
G01X16601263Y4138923D01*
G01X16612693Y4155941D01*
G01X16618281Y4184643D01*
G01X16618281Y4201661D01*
G01X16612693Y4230363D01*
G01X16601263Y4247381D01*
G01X16583991Y4253223D01*
G01X16572561Y4253223D01*
G01X16700323Y4253223D02*
G01X16683305Y4247381D01*
G01X16671875Y4230363D01*
G01X16666033Y4201661D01*
G01X16666033Y4184643D01*
G01X16671875Y4155941D01*
G01X16683305Y4138923D01*
G01X16700323Y4133081D01*
G01X16711753Y4133081D01*
G01X16729025Y4138923D01*
G01X16740455Y4155941D01*
G01X16746043Y4184643D01*
G01X16746043Y4201661D01*
G01X16740455Y4230363D01*
G01X16729025Y4247381D01*
G01X16711753Y4253223D01*
G01X16700323Y4253223D01*
G01X16793795Y4213091D02*
G01X16793795Y4133081D01*
G01X16793795Y4190231D02*
G01X16811067Y4207503D01*
G01X16822497Y4213091D01*
G01X16839515Y4213091D01*
G01X16850945Y4207503D01*
G01X16856787Y4190231D01*
G01X16856787Y4133081D01*
G01X16856787Y4190231D02*
G01X16873805Y4207503D01*
G01X16885235Y4213091D01*
G01X16902507Y4213091D01*
G01X16913937Y4207503D01*
G01X16919525Y4190231D01*
G01X16919525Y4133081D01*
G01X16967277Y4213091D02*
G01X16967277Y4133081D01*
G01X16967277Y4190231D02*
G01X16984549Y4207503D01*
G01X16995979Y4213091D01*
G01X17012997Y4213091D01*
G01X17024427Y4207503D01*
G01X17030269Y4190231D01*
G01X17030269Y4133081D01*
G01X17030269Y4190231D02*
G01X17047287Y4207503D01*
G01X17058717Y4213091D01*
G01X17075989Y4213091D01*
G01X17087419Y4207503D01*
G01X17093007Y4190231D01*
G01X17093007Y4133081D01*
G01X17140759Y4276083D02*
G01X17152189Y4264653D01*
G01X17163619Y4247381D01*
G01X17175049Y4224521D01*
G01X17180891Y4196073D01*
G01X17180891Y4173213D01*
G01X17175049Y4144511D01*
G01X17163619Y4121651D01*
G01X17152189Y4104633D01*
G01X17140759Y4093203D01*
G01X18103819Y4253223D02*
G01X18103819Y4133081D01*
G01X18103819Y4253223D02*
G01X18155381Y4253223D01*
G01X18172399Y4247381D01*
G01X18178241Y4241793D01*
G01X18183829Y4230363D01*
G01X18183829Y4213091D01*
G01X18178241Y4201661D01*
G01X18172399Y4196073D01*
G01X18155381Y4190231D01*
G01X18103819Y4190231D01*
G01X18271713Y4253223D02*
G01X18271713Y4133081D01*
G01X18231581Y4253223D02*
G01X18311591Y4253223D01*
G01X18359343Y4253223D02*
G01X18359343Y4133081D01*
G01X18439353Y4253223D02*
G01X18439353Y4133081D01*
G01X18359343Y4196073D02*
G01X18439353Y4196073D01*
G01X19645236Y4235951D02*
G01X19633806Y4247381D01*
G01X19616788Y4253223D01*
G01X19593928Y4253223D01*
G01X19576656Y4247381D01*
G01X19565226Y4235951D01*
G01X19565226Y4224521D01*
G01X19571068Y4213091D01*
G01X19576656Y4207503D01*
G01X19588086Y4201661D01*
G01X19622376Y4190231D01*
G01X19633806Y4184643D01*
G01X19639648Y4178801D01*
G01X19645236Y4167371D01*
G01X19645236Y4150353D01*
G01X19633806Y4138923D01*
G01X19616788Y4133081D01*
G01X19593928Y4133081D01*
G01X19576656Y4138923D01*
G01X19565226Y4150353D01*
G01X19692988Y4253223D02*
G01X19692988Y4133081D01*
G01X19769442Y4213091D02*
G01X19758012Y4207503D01*
G01X19746582Y4196073D01*
G01X19740740Y4178801D01*
G01X19740740Y4167371D01*
G01X19746582Y4150353D01*
G01X19758012Y4138923D01*
G01X19769442Y4133081D01*
G01X19786460Y4133081D01*
G01X19797890Y4138923D01*
G01X19809320Y4150353D01*
G01X19815162Y4167371D01*
G01X19815162Y4178801D01*
G01X19809320Y4196073D01*
G01X19797890Y4207503D01*
G01X19786460Y4213091D01*
G01X19769442Y4213091D01*
G01X19880186Y4253223D02*
G01X19880186Y4155941D01*
G01X19885774Y4138923D01*
G01X19897204Y4133081D01*
G01X19908634Y4133081D01*
G01X19862914Y4213091D02*
G01X19903046Y4213091D01*
G01X20996407Y4253223D02*
G01X20996407Y4133081D01*
G01X20996407Y4253223D02*
G01X21047969Y4253223D01*
G01X21064987Y4247381D01*
G01X21070829Y4241793D01*
G01X21076417Y4230363D01*
G01X21076417Y4213091D01*
G01X21070829Y4201661D01*
G01X21064987Y4196073D01*
G01X21047969Y4190231D01*
G01X20996407Y4190231D01*
G01X21192749Y4213091D02*
G01X21192749Y4133081D01*
G01X21192749Y4196073D02*
G01X21181319Y4207503D01*
G01X21169889Y4213091D01*
G01X21152871Y4213091D01*
G01X21141441Y4207503D01*
G01X21130011Y4196073D01*
G01X21124169Y4178801D01*
G01X21124169Y4167371D01*
G01X21130011Y4150353D01*
G01X21141441Y4138923D01*
G01X21152871Y4133081D01*
G01X21169889Y4133081D01*
G01X21181319Y4138923D01*
G01X21192749Y4150353D01*
G01X21309081Y4253223D02*
G01X21309081Y4133081D01*
G01X21309081Y4196073D02*
G01X21297651Y4207503D01*
G01X21286221Y4213091D01*
G01X21269203Y4213091D01*
G01X21257773Y4207503D01*
G01X21246343Y4196073D01*
G01X21240501Y4178801D01*
G01X21240501Y4167371D01*
G01X21246343Y4150353D01*
G01X21257773Y4138923D01*
G01X21269203Y4133081D01*
G01X21286221Y4133081D01*
G01X21297651Y4138923D01*
G01X21309081Y4150353D01*
G01X22699876Y4253223D02*
G01X22688446Y4247381D01*
G01X22677016Y4235951D01*
G01X22671428Y4224521D01*
G01X22665586Y4207503D01*
G01X22665586Y4178801D01*
G01X22671428Y4161783D01*
G01X22677016Y4150353D01*
G01X22688446Y4138923D01*
G01X22699876Y4133081D01*
G01X22722736Y4133081D01*
G01X22734166Y4138923D01*
G01X22745596Y4150353D01*
G01X22751438Y4161783D01*
G01X22757026Y4178801D01*
G01X22757026Y4207503D01*
G01X22751438Y4224521D01*
G01X22745596Y4235951D01*
G01X22734166Y4247381D01*
G01X22722736Y4253223D01*
G01X22699876Y4253223D01*
G01X22804778Y4213091D02*
G01X22839068Y4133081D01*
G01X22873358Y4213091D02*
G01X22839068Y4133081D01*
G01X22989690Y4213091D02*
G01X22989690Y4133081D01*
G01X22989690Y4196073D02*
G01X22978260Y4207503D01*
G01X22966830Y4213091D01*
G01X22949812Y4213091D01*
G01X22938382Y4207503D01*
G01X22926952Y4196073D01*
G01X22921110Y4178801D01*
G01X22921110Y4167371D01*
G01X22926952Y4150353D01*
G01X22938382Y4138923D01*
G01X22949812Y4133081D01*
G01X22966830Y4133081D01*
G01X22978260Y4138923D01*
G01X22989690Y4150353D01*
G01X23037442Y4253223D02*
G01X23037442Y4133081D01*
G01X24625087Y4253223D02*
G01X24625087Y4133081D01*
G01X24584955Y4253223D02*
G01X24664965Y4253223D01*
G01X24741419Y4213091D02*
G01X24729989Y4207503D01*
G01X24718559Y4196073D01*
G01X24712717Y4178801D01*
G01X24712717Y4167371D01*
G01X24718559Y4150353D01*
G01X24729989Y4138923D01*
G01X24741419Y4133081D01*
G01X24758437Y4133081D01*
G01X24769867Y4138923D01*
G01X24781297Y4150353D01*
G01X24787139Y4167371D01*
G01X24787139Y4178801D01*
G01X24781297Y4196073D01*
G01X24769867Y4207503D01*
G01X24758437Y4213091D01*
G01X24741419Y4213091D01*
G01X24834891Y4213091D02*
G01X24834891Y4093203D01*
G01X24834891Y4196073D02*
G01X24846321Y4207503D01*
G01X24857751Y4213091D01*
G01X24875023Y4213091D01*
G01X24886453Y4207503D01*
G01X24897883Y4196073D01*
G01X24903471Y4178801D01*
G01X24903471Y4167371D01*
G01X24897883Y4150353D01*
G01X24886453Y4138923D01*
G01X24875023Y4133081D01*
G01X24857751Y4133081D01*
G01X24846321Y4138923D01*
G01X24834891Y4150353D01*
G01X25079239Y4253223D02*
G01X25079239Y4133081D01*
G01X25079239Y4133081D02*
G01X25147819Y4133081D01*
G01X25264151Y4213091D02*
G01X25264151Y4133081D01*
G01X25264151Y4196073D02*
G01X25252721Y4207503D01*
G01X25241291Y4213091D01*
G01X25224273Y4213091D01*
G01X25212843Y4207503D01*
G01X25201413Y4196073D01*
G01X25195571Y4178801D01*
G01X25195571Y4167371D01*
G01X25201413Y4150353D01*
G01X25212843Y4138923D01*
G01X25224273Y4133081D01*
G01X25241291Y4133081D01*
G01X25252721Y4138923D01*
G01X25264151Y4150353D01*
G01X25317745Y4213091D02*
G01X25352035Y4133081D01*
G01X25386325Y4213091D02*
G01X25352035Y4133081D01*
G01X25340605Y4110221D01*
G01X25329175Y4098791D01*
G01X25317745Y4093203D01*
G01X25311903Y4093203D01*
G01X25434077Y4178801D02*
G01X25502657Y4178801D01*
G01X25502657Y4190231D01*
G01X25497069Y4201661D01*
G01X25491227Y4207503D01*
G01X25479797Y4213091D01*
G01X25462779Y4213091D01*
G01X25451349Y4207503D01*
G01X25439919Y4196073D01*
G01X25434077Y4178801D01*
G01X25434077Y4167371D01*
G01X25439919Y4150353D01*
G01X25451349Y4138923D01*
G01X25462779Y4133081D01*
G01X25479797Y4133081D01*
G01X25491227Y4138923D01*
G01X25502657Y4150353D01*
G01X25550409Y4213091D02*
G01X25550409Y4133081D01*
G01X25550409Y4178801D02*
G01X25556251Y4196073D01*
G01X25567681Y4207503D01*
G01X25579111Y4213091D01*
G01X25596129Y4213091D01*
G01X25643881Y4184643D02*
G01X25746751Y4184643D01*
G01X25794503Y4253223D02*
G01X25794503Y4133081D01*
G01X25794503Y4253223D02*
G01X25846065Y4253223D01*
G01X25863083Y4247381D01*
G01X25868925Y4241793D01*
G01X25874513Y4230363D01*
G01X25874513Y4218933D01*
G01X25868925Y4207503D01*
G01X25863083Y4201661D01*
G01X25846065Y4196073D01*
G01X25794503Y4196073D02*
G01X25846065Y4196073D01*
G01X25863083Y4190231D01*
G01X25868925Y4184643D01*
G01X25874513Y4173213D01*
G01X25874513Y4155941D01*
G01X25868925Y4144511D01*
G01X25863083Y4138923D01*
G01X25846065Y4133081D01*
G01X25794503Y4133081D01*
G01X25950967Y4213091D02*
G01X25939537Y4207503D01*
G01X25928107Y4196073D01*
G01X25922265Y4178801D01*
G01X25922265Y4167371D01*
G01X25928107Y4150353D01*
G01X25939537Y4138923D01*
G01X25950967Y4133081D01*
G01X25967985Y4133081D01*
G01X25979415Y4138923D01*
G01X25990845Y4150353D01*
G01X25996687Y4167371D01*
G01X25996687Y4178801D01*
G01X25990845Y4196073D01*
G01X25979415Y4207503D01*
G01X25967985Y4213091D01*
G01X25950967Y4213091D01*
G01X26061711Y4253223D02*
G01X26061711Y4155941D01*
G01X26067299Y4138923D01*
G01X26078729Y4133081D01*
G01X26090159Y4133081D01*
G01X26044439Y4213091D02*
G01X26084571Y4213091D01*
G01X26155183Y4253223D02*
G01X26155183Y4155941D01*
G01X26160771Y4138923D01*
G01X26172201Y4133081D01*
G01X26183631Y4133081D01*
G01X26137911Y4213091D02*
G01X26178043Y4213091D01*
G01X26260085Y4213091D02*
G01X26248655Y4207503D01*
G01X26237225Y4196073D01*
G01X26231383Y4178801D01*
G01X26231383Y4167371D01*
G01X26237225Y4150353D01*
G01X26248655Y4138923D01*
G01X26260085Y4133081D01*
G01X26277103Y4133081D01*
G01X26288533Y4138923D01*
G01X26299963Y4150353D01*
G01X26305805Y4167371D01*
G01X26305805Y4178801D01*
G01X26299963Y4196073D01*
G01X26288533Y4207503D01*
G01X26277103Y4213091D01*
G01X26260085Y4213091D01*
G01X26353557Y4213091D02*
G01X26353557Y4133081D01*
G01X26353557Y4190231D02*
G01X26370829Y4207503D01*
G01X26382259Y4213091D01*
G01X26399277Y4213091D01*
G01X26410707Y4207503D01*
G01X26416549Y4190231D01*
G01X26416549Y4133081D01*
G01X26416549Y4190231D02*
G01X26433567Y4207503D01*
G01X26444997Y4213091D01*
G01X26462269Y4213091D01*
G01X26473699Y4207503D01*
G01X26479287Y4190231D01*
G01X26479287Y4133081D01*
G01X26655055Y4253223D02*
G01X26655055Y4133081D01*
G01X26655055Y4133081D02*
G01X26723635Y4133081D01*
G01X26839967Y4213091D02*
G01X26839967Y4133081D01*
G01X26839967Y4196073D02*
G01X26828537Y4207503D01*
G01X26817107Y4213091D01*
G01X26800089Y4213091D01*
G01X26788659Y4207503D01*
G01X26777229Y4196073D01*
G01X26771387Y4178801D01*
G01X26771387Y4167371D01*
G01X26777229Y4150353D01*
G01X26788659Y4138923D01*
G01X26800089Y4133081D01*
G01X26817107Y4133081D01*
G01X26828537Y4138923D01*
G01X26839967Y4150353D01*
G01X26893561Y4213091D02*
G01X26927851Y4133081D01*
G01X26962141Y4213091D02*
G01X26927851Y4133081D01*
G01X26916421Y4110221D01*
G01X26904991Y4098791D01*
G01X26893561Y4093203D01*
G01X26887719Y4093203D01*
G01X27009893Y4178801D02*
G01X27078473Y4178801D01*
G01X27078473Y4190231D01*
G01X27072885Y4201661D01*
G01X27067043Y4207503D01*
G01X27055613Y4213091D01*
G01X27038595Y4213091D01*
G01X27027165Y4207503D01*
G01X27015735Y4196073D01*
G01X27009893Y4178801D01*
G01X27009893Y4167371D01*
G01X27015735Y4150353D01*
G01X27027165Y4138923D01*
G01X27038595Y4133081D01*
G01X27055613Y4133081D01*
G01X27067043Y4138923D01*
G01X27078473Y4150353D01*
G01X27126225Y4213091D02*
G01X27126225Y4133081D01*
G01X27126225Y4178801D02*
G01X27132067Y4196073D01*
G01X27143497Y4207503D01*
G01X27154927Y4213091D01*
G01X27171945Y4213091D01*
G01X12864524Y3672651D02*
G01X12807374Y3592641D01*
G01X12893226Y3592641D01*
G01X12864524Y3672651D02*
G01X12864524Y3552509D01*
G01X14278687Y3672651D02*
G01X14221537Y3592641D01*
G01X14307389Y3592641D01*
G01X14278687Y3672651D02*
G01X14278687Y3552509D01*
G01X14389431Y3672651D02*
G01X14372413Y3666809D01*
G01X14360983Y3649791D01*
G01X14355141Y3621089D01*
G01X14355141Y3604071D01*
G01X14360983Y3575369D01*
G01X14372413Y3558351D01*
G01X14389431Y3552509D01*
G01X14400861Y3552509D01*
G01X14418133Y3558351D01*
G01X14429563Y3575369D01*
G01X14435151Y3604071D01*
G01X14435151Y3621089D01*
G01X14429563Y3649791D01*
G01X14418133Y3666809D01*
G01X14400861Y3672651D01*
G01X14389431Y3672651D01*
G01X14488745Y3581211D02*
G01X14482903Y3575369D01*
G01X14488745Y3569781D01*
G01X14494333Y3575369D01*
G01X14488745Y3581211D01*
G01X14576375Y3672651D02*
G01X14559357Y3666809D01*
G01X14547927Y3649791D01*
G01X14542085Y3621089D01*
G01X14542085Y3604071D01*
G01X14547927Y3575369D01*
G01X14559357Y3558351D01*
G01X14576375Y3552509D01*
G01X14587805Y3552509D01*
G01X14605077Y3558351D01*
G01X14616507Y3575369D01*
G01X14622095Y3604071D01*
G01X14622095Y3621089D01*
G01X14616507Y3649791D01*
G01X14605077Y3666809D01*
G01X14587805Y3672651D01*
G01X14576375Y3672651D01*
G01X14669847Y3632519D02*
G01X14732839Y3552509D01*
G01X14732839Y3632519D02*
G01X14669847Y3552509D01*
G01X14837741Y3672651D02*
G01X14780591Y3592641D01*
G01X14866443Y3592641D01*
G01X14837741Y3672651D02*
G01X14837741Y3552509D01*
G01X14948485Y3672651D02*
G01X14931467Y3666809D01*
G01X14920037Y3649791D01*
G01X14914195Y3621089D01*
G01X14914195Y3604071D01*
G01X14920037Y3575369D01*
G01X14931467Y3558351D01*
G01X14948485Y3552509D01*
G01X14959915Y3552509D01*
G01X14977187Y3558351D01*
G01X14988617Y3575369D01*
G01X14994205Y3604071D01*
G01X14994205Y3621089D01*
G01X14988617Y3649791D01*
G01X14977187Y3666809D01*
G01X14959915Y3672651D01*
G01X14948485Y3672651D01*
G01X15047799Y3581211D02*
G01X15041957Y3575369D01*
G01X15047799Y3569781D01*
G01X15053387Y3575369D01*
G01X15047799Y3581211D01*
G01X15135429Y3672651D02*
G01X15118411Y3666809D01*
G01X15106981Y3649791D01*
G01X15101139Y3621089D01*
G01X15101139Y3604071D01*
G01X15106981Y3575369D01*
G01X15118411Y3558351D01*
G01X15135429Y3552509D01*
G01X15146859Y3552509D01*
G01X15164131Y3558351D01*
G01X15175561Y3575369D01*
G01X15181149Y3604071D01*
G01X15181149Y3621089D01*
G01X15175561Y3649791D01*
G01X15164131Y3666809D01*
G01X15146859Y3672651D01*
G01X15135429Y3672651D01*
G01X15228901Y3632519D02*
G01X15228901Y3552509D01*
G01X15228901Y3609659D02*
G01X15246173Y3626931D01*
G01X15257603Y3632519D01*
G01X15274621Y3632519D01*
G01X15286051Y3626931D01*
G01X15291893Y3609659D01*
G01X15291893Y3552509D01*
G01X15291893Y3609659D02*
G01X15308911Y3626931D01*
G01X15320341Y3632519D01*
G01X15337613Y3632519D01*
G01X15349043Y3626931D01*
G01X15354631Y3609659D01*
G01X15354631Y3552509D01*
G01X15402383Y3672651D02*
G01X15408225Y3666809D01*
G01X15413813Y3672651D01*
G01X15408225Y3678239D01*
G01X15402383Y3672651D01*
G01X15408225Y3632519D02*
G01X15408225Y3552509D01*
G01X15461565Y3672651D02*
G01X15461565Y3552509D01*
G01X15549449Y3695511D02*
G01X15538019Y3684081D01*
G01X15526589Y3666809D01*
G01X15515159Y3643949D01*
G01X15509317Y3615501D01*
G01X15509317Y3592641D01*
G01X15515159Y3563939D01*
G01X15526589Y3541079D01*
G01X15538019Y3524061D01*
G01X15549449Y3512631D01*
G01X15597201Y3649791D02*
G01X15608631Y3655379D01*
G01X15625903Y3672651D01*
G01X15625903Y3552509D01*
G01X15679497Y3581211D02*
G01X15673655Y3575369D01*
G01X15679497Y3569781D01*
G01X15685085Y3575369D01*
G01X15679497Y3581211D01*
G01X15767127Y3672651D02*
G01X15750109Y3666809D01*
G01X15738679Y3649791D01*
G01X15732837Y3621089D01*
G01X15732837Y3604071D01*
G01X15738679Y3575369D01*
G01X15750109Y3558351D01*
G01X15767127Y3552509D01*
G01X15778557Y3552509D01*
G01X15795829Y3558351D01*
G01X15807259Y3575369D01*
G01X15812847Y3604071D01*
G01X15812847Y3621089D01*
G01X15807259Y3649791D01*
G01X15795829Y3666809D01*
G01X15778557Y3672651D01*
G01X15767127Y3672651D01*
G01X15860599Y3649791D02*
G01X15872029Y3655379D01*
G01X15889301Y3672651D01*
G01X15889301Y3552509D01*
G01X16005633Y3655379D02*
G01X16000045Y3666809D01*
G01X15982773Y3672651D01*
G01X15971343Y3672651D01*
G01X15954325Y3666809D01*
G01X15942895Y3649791D01*
G01X15937053Y3621089D01*
G01X15937053Y3592641D01*
G01X15942895Y3569781D01*
G01X15954325Y3558351D01*
G01X15971343Y3552509D01*
G01X15977185Y3552509D01*
G01X15994203Y3558351D01*
G01X16005633Y3569781D01*
G01X16011475Y3586799D01*
G01X16011475Y3592641D01*
G01X16005633Y3609659D01*
G01X15994203Y3621089D01*
G01X15977185Y3626931D01*
G01X15971343Y3626931D01*
G01X15954325Y3621089D01*
G01X15942895Y3609659D01*
G01X15937053Y3592641D01*
G01X16059227Y3632519D02*
G01X16122219Y3552509D01*
G01X16122219Y3632519D02*
G01X16059227Y3552509D01*
G01X16169971Y3649791D02*
G01X16181401Y3655379D01*
G01X16198673Y3672651D01*
G01X16198673Y3552509D01*
G01X16252267Y3581211D02*
G01X16246425Y3575369D01*
G01X16252267Y3569781D01*
G01X16257855Y3575369D01*
G01X16252267Y3581211D01*
G01X16339897Y3672651D02*
G01X16322879Y3666809D01*
G01X16311449Y3649791D01*
G01X16305607Y3621089D01*
G01X16305607Y3604071D01*
G01X16311449Y3575369D01*
G01X16322879Y3558351D01*
G01X16339897Y3552509D01*
G01X16351327Y3552509D01*
G01X16368599Y3558351D01*
G01X16380029Y3575369D01*
G01X16385617Y3604071D01*
G01X16385617Y3621089D01*
G01X16380029Y3649791D01*
G01X16368599Y3666809D01*
G01X16351327Y3672651D01*
G01X16339897Y3672651D01*
G01X16433369Y3649791D02*
G01X16444799Y3655379D01*
G01X16462071Y3672651D01*
G01X16462071Y3552509D01*
G01X16578403Y3655379D02*
G01X16572815Y3666809D01*
G01X16555543Y3672651D01*
G01X16544113Y3672651D01*
G01X16527095Y3666809D01*
G01X16515665Y3649791D01*
G01X16509823Y3621089D01*
G01X16509823Y3592641D01*
G01X16515665Y3569781D01*
G01X16527095Y3558351D01*
G01X16544113Y3552509D01*
G01X16549955Y3552509D01*
G01X16566973Y3558351D01*
G01X16578403Y3569781D01*
G01X16584245Y3586799D01*
G01X16584245Y3592641D01*
G01X16578403Y3609659D01*
G01X16566973Y3621089D01*
G01X16549955Y3626931D01*
G01X16544113Y3626931D01*
G01X16527095Y3621089D01*
G01X16515665Y3609659D01*
G01X16509823Y3592641D01*
G01X16631997Y3632519D02*
G01X16631997Y3552509D01*
G01X16631997Y3609659D02*
G01X16649269Y3626931D01*
G01X16660699Y3632519D01*
G01X16677717Y3632519D01*
G01X16689147Y3626931D01*
G01X16694989Y3609659D01*
G01X16694989Y3552509D01*
G01X16694989Y3609659D02*
G01X16712007Y3626931D01*
G01X16723437Y3632519D01*
G01X16740709Y3632519D01*
G01X16752139Y3626931D01*
G01X16757727Y3609659D01*
G01X16757727Y3552509D01*
G01X16805479Y3632519D02*
G01X16805479Y3552509D01*
G01X16805479Y3609659D02*
G01X16822751Y3626931D01*
G01X16834181Y3632519D01*
G01X16851199Y3632519D01*
G01X16862629Y3626931D01*
G01X16868471Y3609659D01*
G01X16868471Y3552509D01*
G01X16868471Y3609659D02*
G01X16885489Y3626931D01*
G01X16896919Y3632519D01*
G01X16914191Y3632519D01*
G01X16925621Y3626931D01*
G01X16931209Y3609659D01*
G01X16931209Y3552509D01*
G01X16978961Y3695511D02*
G01X16990391Y3684081D01*
G01X17001821Y3666809D01*
G01X17013251Y3643949D01*
G01X17019093Y3615501D01*
G01X17019093Y3592641D01*
G01X17013251Y3563939D01*
G01X17001821Y3541079D01*
G01X16990391Y3524061D01*
G01X16978961Y3512631D01*
G01X18103819Y3672651D02*
G01X18103819Y3552509D01*
G01X18103819Y3672651D02*
G01X18155381Y3672651D01*
G01X18172399Y3666809D01*
G01X18178241Y3661221D01*
G01X18183829Y3649791D01*
G01X18183829Y3632519D01*
G01X18178241Y3621089D01*
G01X18172399Y3615501D01*
G01X18155381Y3609659D01*
G01X18103819Y3609659D01*
G01X18271713Y3672651D02*
G01X18271713Y3552509D01*
G01X18231581Y3672651D02*
G01X18311591Y3672651D01*
G01X18359343Y3672651D02*
G01X18359343Y3552509D01*
G01X18439353Y3672651D02*
G01X18439353Y3552509D01*
G01X18359343Y3615501D02*
G01X18439353Y3615501D01*
G01X19565226Y3672651D02*
G01X19565226Y3552509D01*
G01X19565226Y3672651D02*
G01X19616788Y3672651D01*
G01X19633806Y3666809D01*
G01X19639648Y3661221D01*
G01X19645236Y3649791D01*
G01X19645236Y3638361D01*
G01X19639648Y3626931D01*
G01X19633806Y3621089D01*
G01X19616788Y3615501D01*
G01X19565226Y3615501D01*
G01X19605358Y3615501D02*
G01X19645236Y3552509D01*
G01X19721690Y3632519D02*
G01X19710260Y3626931D01*
G01X19698830Y3615501D01*
G01X19692988Y3598229D01*
G01X19692988Y3586799D01*
G01X19698830Y3569781D01*
G01X19710260Y3558351D01*
G01X19721690Y3552509D01*
G01X19738708Y3552509D01*
G01X19750138Y3558351D01*
G01X19761568Y3569781D01*
G01X19767410Y3586799D01*
G01X19767410Y3598229D01*
G01X19761568Y3615501D01*
G01X19750138Y3626931D01*
G01X19738708Y3632519D01*
G01X19721690Y3632519D01*
G01X19815162Y3632519D02*
G01X19815162Y3575369D01*
G01X19821004Y3558351D01*
G01X19832434Y3552509D01*
G01X19849452Y3552509D01*
G01X19860882Y3558351D01*
G01X19878154Y3575369D01*
G01X19878154Y3632519D02*
G01X19878154Y3552509D01*
G01X19925906Y3632519D02*
G01X19925906Y3552509D01*
G01X19925906Y3609659D02*
G01X19943178Y3626931D01*
G01X19954608Y3632519D01*
G01X19971626Y3632519D01*
G01X19983056Y3626931D01*
G01X19988898Y3609659D01*
G01X19988898Y3552509D01*
G01X20105230Y3672651D02*
G01X20105230Y3552509D01*
G01X20105230Y3615501D02*
G01X20093800Y3626931D01*
G01X20082370Y3632519D01*
G01X20065352Y3632519D01*
G01X20053922Y3626931D01*
G01X20042492Y3615501D01*
G01X20036650Y3598229D01*
G01X20036650Y3586799D01*
G01X20042492Y3569781D01*
G01X20053922Y3558351D01*
G01X20065352Y3552509D01*
G01X20082370Y3552509D01*
G01X20093800Y3558351D01*
G01X20105230Y3569781D01*
G01X20996407Y3672651D02*
G01X20996407Y3552509D01*
G01X20996407Y3672651D02*
G01X21047969Y3672651D01*
G01X21064987Y3666809D01*
G01X21070829Y3661221D01*
G01X21076417Y3649791D01*
G01X21076417Y3632519D01*
G01X21070829Y3621089D01*
G01X21064987Y3615501D01*
G01X21047969Y3609659D01*
G01X20996407Y3609659D01*
G01X21192749Y3632519D02*
G01X21192749Y3552509D01*
G01X21192749Y3615501D02*
G01X21181319Y3626931D01*
G01X21169889Y3632519D01*
G01X21152871Y3632519D01*
G01X21141441Y3626931D01*
G01X21130011Y3615501D01*
G01X21124169Y3598229D01*
G01X21124169Y3586799D01*
G01X21130011Y3569781D01*
G01X21141441Y3558351D01*
G01X21152871Y3552509D01*
G01X21169889Y3552509D01*
G01X21181319Y3558351D01*
G01X21192749Y3569781D01*
G01X21309081Y3672651D02*
G01X21309081Y3552509D01*
G01X21309081Y3615501D02*
G01X21297651Y3626931D01*
G01X21286221Y3632519D01*
G01X21269203Y3632519D01*
G01X21257773Y3626931D01*
G01X21246343Y3615501D01*
G01X21240501Y3598229D01*
G01X21240501Y3586799D01*
G01X21246343Y3569781D01*
G01X21257773Y3558351D01*
G01X21269203Y3552509D01*
G01X21286221Y3552509D01*
G01X21297651Y3558351D01*
G01X21309081Y3569781D01*
G01X22705718Y3695511D02*
G01X22694288Y3684081D01*
G01X22682858Y3666809D01*
G01X22671428Y3643949D01*
G01X22665586Y3615501D01*
G01X22665586Y3592641D01*
G01X22671428Y3563939D01*
G01X22682858Y3541079D01*
G01X22694288Y3524061D01*
G01X22705718Y3512631D01*
G01X22753470Y3672651D02*
G01X22753470Y3552509D01*
G01X22753470Y3672651D02*
G01X22799190Y3552509D01*
G01X22844910Y3672651D02*
G01X22799190Y3552509D01*
G01X22844910Y3672651D02*
G01X22844910Y3552509D01*
G01X22892662Y3672651D02*
G01X22898504Y3666809D01*
G01X22904092Y3672651D01*
G01X22898504Y3678239D01*
G01X22892662Y3672651D01*
G01X22898504Y3632519D02*
G01X22898504Y3552509D01*
G01X22951844Y3632519D02*
G01X23014836Y3552509D01*
G01X23014836Y3632519D02*
G01X22951844Y3552509D01*
G01X23062588Y3598229D02*
G01X23131168Y3598229D01*
G01X23131168Y3609659D01*
G01X23125580Y3621089D01*
G01X23119738Y3626931D01*
G01X23108308Y3632519D01*
G01X23091290Y3632519D01*
G01X23079860Y3626931D01*
G01X23068430Y3615501D01*
G01X23062588Y3598229D01*
G01X23062588Y3586799D01*
G01X23068430Y3569781D01*
G01X23079860Y3558351D01*
G01X23091290Y3552509D01*
G01X23108308Y3552509D01*
G01X23119738Y3558351D01*
G01X23131168Y3569781D01*
G01X23247500Y3672651D02*
G01X23247500Y3552509D01*
G01X23247500Y3615501D02*
G01X23236070Y3626931D01*
G01X23224640Y3632519D01*
G01X23207622Y3632519D01*
G01X23196192Y3626931D01*
G01X23184762Y3615501D01*
G01X23178920Y3598229D01*
G01X23178920Y3586799D01*
G01X23184762Y3569781D01*
G01X23196192Y3558351D01*
G01X23207622Y3552509D01*
G01X23224640Y3552509D01*
G01X23236070Y3558351D01*
G01X23247500Y3569781D01*
G01X23295252Y3695511D02*
G01X23306682Y3684081D01*
G01X23318112Y3666809D01*
G01X23329542Y3643949D01*
G01X23335384Y3615501D01*
G01X23335384Y3592641D01*
G01X23329542Y3563939D01*
G01X23318112Y3541079D01*
G01X23306682Y3524061D01*
G01X23295252Y3512631D01*
G01X24625087Y3672651D02*
G01X24625087Y3552509D01*
G01X24584955Y3672651D02*
G01X24664965Y3672651D01*
G01X24741419Y3632519D02*
G01X24729989Y3626931D01*
G01X24718559Y3615501D01*
G01X24712717Y3598229D01*
G01X24712717Y3586799D01*
G01X24718559Y3569781D01*
G01X24729989Y3558351D01*
G01X24741419Y3552509D01*
G01X24758437Y3552509D01*
G01X24769867Y3558351D01*
G01X24781297Y3569781D01*
G01X24787139Y3586799D01*
G01X24787139Y3598229D01*
G01X24781297Y3615501D01*
G01X24769867Y3626931D01*
G01X24758437Y3632519D01*
G01X24741419Y3632519D01*
G01X24834891Y3632519D02*
G01X24834891Y3512631D01*
G01X24834891Y3615501D02*
G01X24846321Y3626931D01*
G01X24857751Y3632519D01*
G01X24875023Y3632519D01*
G01X24886453Y3626931D01*
G01X24897883Y3615501D01*
G01X24903471Y3598229D01*
G01X24903471Y3586799D01*
G01X24897883Y3569781D01*
G01X24886453Y3558351D01*
G01X24875023Y3552509D01*
G01X24857751Y3552509D01*
G01X24846321Y3558351D01*
G01X24834891Y3569781D01*
G01X25079239Y3672651D02*
G01X25079239Y3552509D01*
G01X25079239Y3552509D02*
G01X25147819Y3552509D01*
G01X25264151Y3632519D02*
G01X25264151Y3552509D01*
G01X25264151Y3615501D02*
G01X25252721Y3626931D01*
G01X25241291Y3632519D01*
G01X25224273Y3632519D01*
G01X25212843Y3626931D01*
G01X25201413Y3615501D01*
G01X25195571Y3598229D01*
G01X25195571Y3586799D01*
G01X25201413Y3569781D01*
G01X25212843Y3558351D01*
G01X25224273Y3552509D01*
G01X25241291Y3552509D01*
G01X25252721Y3558351D01*
G01X25264151Y3569781D01*
G01X25317745Y3632519D02*
G01X25352035Y3552509D01*
G01X25386325Y3632519D02*
G01X25352035Y3552509D01*
G01X25340605Y3529649D01*
G01X25329175Y3518219D01*
G01X25317745Y3512631D01*
G01X25311903Y3512631D01*
G01X25434077Y3598229D02*
G01X25502657Y3598229D01*
G01X25502657Y3609659D01*
G01X25497069Y3621089D01*
G01X25491227Y3626931D01*
G01X25479797Y3632519D01*
G01X25462779Y3632519D01*
G01X25451349Y3626931D01*
G01X25439919Y3615501D01*
G01X25434077Y3598229D01*
G01X25434077Y3586799D01*
G01X25439919Y3569781D01*
G01X25451349Y3558351D01*
G01X25462779Y3552509D01*
G01X25479797Y3552509D01*
G01X25491227Y3558351D01*
G01X25502657Y3569781D01*
G01X25550409Y3632519D02*
G01X25550409Y3552509D01*
G01X25550409Y3598229D02*
G01X25556251Y3615501D01*
G01X25567681Y3626931D01*
G01X25579111Y3632519D01*
G01X25596129Y3632519D01*
G01X25643881Y3604071D02*
G01X25746751Y3604071D01*
G01X25794503Y3672651D02*
G01X25794503Y3552509D01*
G01X25794503Y3672651D02*
G01X25846065Y3672651D01*
G01X25863083Y3666809D01*
G01X25868925Y3661221D01*
G01X25874513Y3649791D01*
G01X25874513Y3638361D01*
G01X25868925Y3626931D01*
G01X25863083Y3621089D01*
G01X25846065Y3615501D01*
G01X25794503Y3615501D02*
G01X25846065Y3615501D01*
G01X25863083Y3609659D01*
G01X25868925Y3604071D01*
G01X25874513Y3592641D01*
G01X25874513Y3575369D01*
G01X25868925Y3563939D01*
G01X25863083Y3558351D01*
G01X25846065Y3552509D01*
G01X25794503Y3552509D01*
G01X25950967Y3632519D02*
G01X25939537Y3626931D01*
G01X25928107Y3615501D01*
G01X25922265Y3598229D01*
G01X25922265Y3586799D01*
G01X25928107Y3569781D01*
G01X25939537Y3558351D01*
G01X25950967Y3552509D01*
G01X25967985Y3552509D01*
G01X25979415Y3558351D01*
G01X25990845Y3569781D01*
G01X25996687Y3586799D01*
G01X25996687Y3598229D01*
G01X25990845Y3615501D01*
G01X25979415Y3626931D01*
G01X25967985Y3632519D01*
G01X25950967Y3632519D01*
G01X26061711Y3672651D02*
G01X26061711Y3575369D01*
G01X26067299Y3558351D01*
G01X26078729Y3552509D01*
G01X26090159Y3552509D01*
G01X26044439Y3632519D02*
G01X26084571Y3632519D01*
G01X26155183Y3672651D02*
G01X26155183Y3575369D01*
G01X26160771Y3558351D01*
G01X26172201Y3552509D01*
G01X26183631Y3552509D01*
G01X26137911Y3632519D02*
G01X26178043Y3632519D01*
G01X26260085Y3632519D02*
G01X26248655Y3626931D01*
G01X26237225Y3615501D01*
G01X26231383Y3598229D01*
G01X26231383Y3586799D01*
G01X26237225Y3569781D01*
G01X26248655Y3558351D01*
G01X26260085Y3552509D01*
G01X26277103Y3552509D01*
G01X26288533Y3558351D01*
G01X26299963Y3569781D01*
G01X26305805Y3586799D01*
G01X26305805Y3598229D01*
G01X26299963Y3615501D01*
G01X26288533Y3626931D01*
G01X26277103Y3632519D01*
G01X26260085Y3632519D01*
G01X26353557Y3632519D02*
G01X26353557Y3552509D01*
G01X26353557Y3609659D02*
G01X26370829Y3626931D01*
G01X26382259Y3632519D01*
G01X26399277Y3632519D01*
G01X26410707Y3626931D01*
G01X26416549Y3609659D01*
G01X26416549Y3552509D01*
G01X26416549Y3609659D02*
G01X26433567Y3626931D01*
G01X26444997Y3632519D01*
G01X26462269Y3632519D01*
G01X26473699Y3626931D01*
G01X26479287Y3609659D01*
G01X26479287Y3552509D01*
G01X26655055Y3672651D02*
G01X26655055Y3552509D01*
G01X26655055Y3552509D02*
G01X26723635Y3552509D01*
G01X26839967Y3632519D02*
G01X26839967Y3552509D01*
G01X26839967Y3615501D02*
G01X26828537Y3626931D01*
G01X26817107Y3632519D01*
G01X26800089Y3632519D01*
G01X26788659Y3626931D01*
G01X26777229Y3615501D01*
G01X26771387Y3598229D01*
G01X26771387Y3586799D01*
G01X26777229Y3569781D01*
G01X26788659Y3558351D01*
G01X26800089Y3552509D01*
G01X26817107Y3552509D01*
G01X26828537Y3558351D01*
G01X26839967Y3569781D01*
G01X26893561Y3632519D02*
G01X26927851Y3552509D01*
G01X26962141Y3632519D02*
G01X26927851Y3552509D01*
G01X26916421Y3529649D01*
G01X26904991Y3518219D01*
G01X26893561Y3512631D01*
G01X26887719Y3512631D01*
G01X27009893Y3598229D02*
G01X27078473Y3598229D01*
G01X27078473Y3609659D01*
G01X27072885Y3621089D01*
G01X27067043Y3626931D01*
G01X27055613Y3632519D01*
G01X27038595Y3632519D01*
G01X27027165Y3626931D01*
G01X27015735Y3615501D01*
G01X27009893Y3598229D01*
G01X27009893Y3586799D01*
G01X27015735Y3569781D01*
G01X27027165Y3558351D01*
G01X27038595Y3552509D01*
G01X27055613Y3552509D01*
G01X27067043Y3558351D01*
G01X27078473Y3569781D01*
G01X27126225Y3632519D02*
G01X27126225Y3552509D01*
G01X27126225Y3598229D02*
G01X27132067Y3615501D01*
G01X27143497Y3626931D01*
G01X27154927Y3632519D01*
G01X27171945Y3632519D01*
G01X12864524Y3092080D02*
G01X12807374Y3012070D01*
G01X12893226Y3012070D01*
G01X12864524Y3092080D02*
G01X12864524Y2971938D01*
G01X14221537Y3069220D02*
G01X14232967Y3074808D01*
G01X14250239Y3092080D01*
G01X14250239Y2971938D01*
G01X14303833Y3063378D02*
G01X14303833Y3069220D01*
G01X14309421Y3080650D01*
G01X14315263Y3086238D01*
G01X14326693Y3092080D01*
G01X14349553Y3092080D01*
G01X14360983Y3086238D01*
G01X14366571Y3080650D01*
G01X14372413Y3069220D01*
G01X14372413Y3057790D01*
G01X14366571Y3046360D01*
G01X14355141Y3029088D01*
G01X14297991Y2971938D01*
G01X14378001Y2971938D01*
G01X14494333Y3074808D02*
G01X14488745Y3086238D01*
G01X14471473Y3092080D01*
G01X14460043Y3092080D01*
G01X14443025Y3086238D01*
G01X14431595Y3069220D01*
G01X14425753Y3040518D01*
G01X14425753Y3012070D01*
G01X14431595Y2989210D01*
G01X14443025Y2977780D01*
G01X14460043Y2971938D01*
G01X14465885Y2971938D01*
G01X14482903Y2977780D01*
G01X14494333Y2989210D01*
G01X14500175Y3006228D01*
G01X14500175Y3012070D01*
G01X14494333Y3029088D01*
G01X14482903Y3040518D01*
G01X14465885Y3046360D01*
G01X14460043Y3046360D01*
G01X14443025Y3040518D01*
G01X14431595Y3029088D01*
G01X14425753Y3012070D01*
G01X14553769Y3000640D02*
G01X14547927Y2994798D01*
G01X14553769Y2989210D01*
G01X14559357Y2994798D01*
G01X14553769Y3000640D01*
G01X14641399Y3092080D02*
G01X14624381Y3086238D01*
G01X14612951Y3069220D01*
G01X14607109Y3040518D01*
G01X14607109Y3023500D01*
G01X14612951Y2994798D01*
G01X14624381Y2977780D01*
G01X14641399Y2971938D01*
G01X14652829Y2971938D01*
G01X14670101Y2977780D01*
G01X14681531Y2994798D01*
G01X14687119Y3023500D01*
G01X14687119Y3040518D01*
G01X14681531Y3069220D01*
G01X14670101Y3086238D01*
G01X14652829Y3092080D01*
G01X14641399Y3092080D01*
G01X14734871Y3051948D02*
G01X14734871Y2971938D01*
G01X14734871Y3029088D02*
G01X14752143Y3046360D01*
G01X14763573Y3051948D01*
G01X14780591Y3051948D01*
G01X14792021Y3046360D01*
G01X14797863Y3029088D01*
G01X14797863Y2971938D01*
G01X14797863Y3029088D02*
G01X14814881Y3046360D01*
G01X14826311Y3051948D01*
G01X14843583Y3051948D01*
G01X14855013Y3046360D01*
G01X14860601Y3029088D01*
G01X14860601Y2971938D01*
G01X14908353Y3092080D02*
G01X14914195Y3086238D01*
G01X14919783Y3092080D01*
G01X14914195Y3097668D01*
G01X14908353Y3092080D01*
G01X14914195Y3051948D02*
G01X14914195Y2971938D01*
G01X14967535Y3092080D02*
G01X14967535Y2971938D01*
G01X15055419Y3114940D02*
G01X15043989Y3103510D01*
G01X15032559Y3086238D01*
G01X15021129Y3063378D01*
G01X15015287Y3034930D01*
G01X15015287Y3012070D01*
G01X15021129Y2983368D01*
G01X15032559Y2960508D01*
G01X15043989Y2943490D01*
G01X15055419Y2932060D01*
G01X15114601Y3092080D02*
G01X15177593Y3092080D01*
G01X15143303Y3046360D01*
G01X15160321Y3046360D01*
G01X15171751Y3040518D01*
G01X15177593Y3034930D01*
G01X15183181Y3017658D01*
G01X15183181Y3006228D01*
G01X15177593Y2989210D01*
G01X15166163Y2977780D01*
G01X15148891Y2971938D01*
G01X15131873Y2971938D01*
G01X15114601Y2977780D01*
G01X15109013Y2983368D01*
G01X15103171Y2994798D01*
G01X15236775Y3000640D02*
G01X15230933Y2994798D01*
G01X15236775Y2989210D01*
G01X15242363Y2994798D01*
G01X15236775Y3000640D01*
G01X15295957Y3063378D02*
G01X15295957Y3069220D01*
G01X15301545Y3080650D01*
G01X15307387Y3086238D01*
G01X15318817Y3092080D01*
G01X15341677Y3092080D01*
G01X15353107Y3086238D01*
G01X15358695Y3080650D01*
G01X15364537Y3069220D01*
G01X15364537Y3057790D01*
G01X15358695Y3046360D01*
G01X15347265Y3029088D01*
G01X15290115Y2971938D01*
G01X15370125Y2971938D01*
G01X15452167Y3092080D02*
G01X15435149Y3086238D01*
G01X15423719Y3069220D01*
G01X15417877Y3040518D01*
G01X15417877Y3023500D01*
G01X15423719Y2994798D01*
G01X15435149Y2977780D01*
G01X15452167Y2971938D01*
G01X15463597Y2971938D01*
G01X15480869Y2977780D01*
G01X15492299Y2994798D01*
G01X15497887Y3023500D01*
G01X15497887Y3040518D01*
G01X15492299Y3069220D01*
G01X15480869Y3086238D01*
G01X15463597Y3092080D01*
G01X15452167Y3092080D01*
G01X15579929Y3092080D02*
G01X15562911Y3086238D01*
G01X15551481Y3069220D01*
G01X15545639Y3040518D01*
G01X15545639Y3023500D01*
G01X15551481Y2994798D01*
G01X15562911Y2977780D01*
G01X15579929Y2971938D01*
G01X15591359Y2971938D01*
G01X15608631Y2977780D01*
G01X15620061Y2994798D01*
G01X15625649Y3023500D01*
G01X15625649Y3040518D01*
G01X15620061Y3069220D01*
G01X15608631Y3086238D01*
G01X15591359Y3092080D01*
G01X15579929Y3092080D01*
G01X15673401Y3051948D02*
G01X15673401Y2971938D01*
G01X15673401Y3029088D02*
G01X15690673Y3046360D01*
G01X15702103Y3051948D01*
G01X15719121Y3051948D01*
G01X15730551Y3046360D01*
G01X15736393Y3029088D01*
G01X15736393Y2971938D01*
G01X15736393Y3029088D02*
G01X15753411Y3046360D01*
G01X15764841Y3051948D01*
G01X15782113Y3051948D01*
G01X15793543Y3046360D01*
G01X15799131Y3029088D01*
G01X15799131Y2971938D01*
G01X15846883Y3051948D02*
G01X15846883Y2971938D01*
G01X15846883Y3029088D02*
G01X15864155Y3046360D01*
G01X15875585Y3051948D01*
G01X15892603Y3051948D01*
G01X15904033Y3046360D01*
G01X15909875Y3029088D01*
G01X15909875Y2971938D01*
G01X15909875Y3029088D02*
G01X15926893Y3046360D01*
G01X15938323Y3051948D01*
G01X15955595Y3051948D01*
G01X15967025Y3046360D01*
G01X15972613Y3029088D01*
G01X15972613Y2971938D01*
G01X16020365Y3114940D02*
G01X16031795Y3103510D01*
G01X16043225Y3086238D01*
G01X16054655Y3063378D01*
G01X16060497Y3034930D01*
G01X16060497Y3012070D01*
G01X16054655Y2983368D01*
G01X16043225Y2960508D01*
G01X16031795Y2943490D01*
G01X16020365Y2932060D01*
G01X18103819Y3092080D02*
G01X18103819Y2971938D01*
G01X18103819Y3092080D02*
G01X18183829Y2971938D01*
G01X18183829Y3092080D02*
G01X18183829Y2971938D01*
G01X18231581Y3092080D02*
G01X18231581Y2971938D01*
G01X18231581Y3092080D02*
G01X18283143Y3092080D01*
G01X18300161Y3086238D01*
G01X18306003Y3080650D01*
G01X18311591Y3069220D01*
G01X18311591Y3051948D01*
G01X18306003Y3040518D01*
G01X18300161Y3034930D01*
G01X18283143Y3029088D01*
G01X18231581Y3029088D01*
G01X18399475Y3092080D02*
G01X18399475Y2971938D01*
G01X18359343Y3092080D02*
G01X18439353Y3092080D01*
G01X18487105Y3092080D02*
G01X18487105Y2971938D01*
G01X18567115Y3092080D02*
G01X18567115Y2971938D01*
G01X18487105Y3034930D02*
G01X18567115Y3034930D01*
G01X19565226Y3092080D02*
G01X19565226Y2971938D01*
G01X19565226Y3092080D02*
G01X19616788Y3092080D01*
G01X19633806Y3086238D01*
G01X19639648Y3080650D01*
G01X19645236Y3069220D01*
G01X19645236Y3057790D01*
G01X19639648Y3046360D01*
G01X19633806Y3040518D01*
G01X19616788Y3034930D01*
G01X19565226Y3034930D01*
G01X19605358Y3034930D02*
G01X19645236Y2971938D01*
G01X19721690Y3051948D02*
G01X19710260Y3046360D01*
G01X19698830Y3034930D01*
G01X19692988Y3017658D01*
G01X19692988Y3006228D01*
G01X19698830Y2989210D01*
G01X19710260Y2977780D01*
G01X19721690Y2971938D01*
G01X19738708Y2971938D01*
G01X19750138Y2977780D01*
G01X19761568Y2989210D01*
G01X19767410Y3006228D01*
G01X19767410Y3017658D01*
G01X19761568Y3034930D01*
G01X19750138Y3046360D01*
G01X19738708Y3051948D01*
G01X19721690Y3051948D01*
G01X19815162Y3051948D02*
G01X19815162Y2994798D01*
G01X19821004Y2977780D01*
G01X19832434Y2971938D01*
G01X19849452Y2971938D01*
G01X19860882Y2977780D01*
G01X19878154Y2994798D01*
G01X19878154Y3051948D02*
G01X19878154Y2971938D01*
G01X19925906Y3051948D02*
G01X19925906Y2971938D01*
G01X19925906Y3029088D02*
G01X19943178Y3046360D01*
G01X19954608Y3051948D01*
G01X19971626Y3051948D01*
G01X19983056Y3046360D01*
G01X19988898Y3029088D01*
G01X19988898Y2971938D01*
G01X20105230Y3092080D02*
G01X20105230Y2971938D01*
G01X20105230Y3034930D02*
G01X20093800Y3046360D01*
G01X20082370Y3051948D01*
G01X20065352Y3051948D01*
G01X20053922Y3046360D01*
G01X20042492Y3034930D01*
G01X20036650Y3017658D01*
G01X20036650Y3006228D01*
G01X20042492Y2989210D01*
G01X20053922Y2977780D01*
G01X20065352Y2971938D01*
G01X20082370Y2971938D01*
G01X20093800Y2977780D01*
G01X20105230Y2989210D01*
G01X20996407Y3092080D02*
G01X21042127Y2971938D01*
G01X21087847Y3092080D02*
G01X21042127Y2971938D01*
G01X21135599Y3092080D02*
G01X21141441Y3086238D01*
G01X21147029Y3092080D01*
G01X21141441Y3097668D01*
G01X21135599Y3092080D01*
G01X21141441Y3051948D02*
G01X21141441Y2971938D01*
G01X21263361Y3051948D02*
G01X21263361Y2971938D01*
G01X21263361Y3034930D02*
G01X21251931Y3046360D01*
G01X21240501Y3051948D01*
G01X21223483Y3051948D01*
G01X21212053Y3046360D01*
G01X21200623Y3034930D01*
G01X21194781Y3017658D01*
G01X21194781Y3006228D01*
G01X21200623Y2989210D01*
G01X21212053Y2977780D01*
G01X21223483Y2971938D01*
G01X21240501Y2971938D01*
G01X21251931Y2977780D01*
G01X21263361Y2989210D01*
G01X24625087Y3092080D02*
G01X24625087Y2971938D01*
G01X24584955Y3092080D02*
G01X24664965Y3092080D01*
G01X24741419Y3051948D02*
G01X24729989Y3046360D01*
G01X24718559Y3034930D01*
G01X24712717Y3017658D01*
G01X24712717Y3006228D01*
G01X24718559Y2989210D01*
G01X24729989Y2977780D01*
G01X24741419Y2971938D01*
G01X24758437Y2971938D01*
G01X24769867Y2977780D01*
G01X24781297Y2989210D01*
G01X24787139Y3006228D01*
G01X24787139Y3017658D01*
G01X24781297Y3034930D01*
G01X24769867Y3046360D01*
G01X24758437Y3051948D01*
G01X24741419Y3051948D01*
G01X24834891Y3051948D02*
G01X24834891Y2932060D01*
G01X24834891Y3034930D02*
G01X24846321Y3046360D01*
G01X24857751Y3051948D01*
G01X24875023Y3051948D01*
G01X24886453Y3046360D01*
G01X24897883Y3034930D01*
G01X24903471Y3017658D01*
G01X24903471Y3006228D01*
G01X24897883Y2989210D01*
G01X24886453Y2977780D01*
G01X24875023Y2971938D01*
G01X24857751Y2971938D01*
G01X24846321Y2977780D01*
G01X24834891Y2989210D01*
G01X25079239Y3092080D02*
G01X25079239Y2971938D01*
G01X25079239Y2971938D02*
G01X25147819Y2971938D01*
G01X25264151Y3051948D02*
G01X25264151Y2971938D01*
G01X25264151Y3034930D02*
G01X25252721Y3046360D01*
G01X25241291Y3051948D01*
G01X25224273Y3051948D01*
G01X25212843Y3046360D01*
G01X25201413Y3034930D01*
G01X25195571Y3017658D01*
G01X25195571Y3006228D01*
G01X25201413Y2989210D01*
G01X25212843Y2977780D01*
G01X25224273Y2971938D01*
G01X25241291Y2971938D01*
G01X25252721Y2977780D01*
G01X25264151Y2989210D01*
G01X25317745Y3051948D02*
G01X25352035Y2971938D01*
G01X25386325Y3051948D02*
G01X25352035Y2971938D01*
G01X25340605Y2949078D01*
G01X25329175Y2937648D01*
G01X25317745Y2932060D01*
G01X25311903Y2932060D01*
G01X25434077Y3017658D02*
G01X25502657Y3017658D01*
G01X25502657Y3029088D01*
G01X25497069Y3040518D01*
G01X25491227Y3046360D01*
G01X25479797Y3051948D01*
G01X25462779Y3051948D01*
G01X25451349Y3046360D01*
G01X25439919Y3034930D01*
G01X25434077Y3017658D01*
G01X25434077Y3006228D01*
G01X25439919Y2989210D01*
G01X25451349Y2977780D01*
G01X25462779Y2971938D01*
G01X25479797Y2971938D01*
G01X25491227Y2977780D01*
G01X25502657Y2989210D01*
G01X25550409Y3051948D02*
G01X25550409Y2971938D01*
G01X25550409Y3017658D02*
G01X25556251Y3034930D01*
G01X25567681Y3046360D01*
G01X25579111Y3051948D01*
G01X25596129Y3051948D01*
G01X25643881Y3023500D02*
G01X25746751Y3023500D01*
G01X25794503Y3092080D02*
G01X25794503Y2971938D01*
G01X25794503Y3092080D02*
G01X25846065Y3092080D01*
G01X25863083Y3086238D01*
G01X25868925Y3080650D01*
G01X25874513Y3069220D01*
G01X25874513Y3057790D01*
G01X25868925Y3046360D01*
G01X25863083Y3040518D01*
G01X25846065Y3034930D01*
G01X25794503Y3034930D02*
G01X25846065Y3034930D01*
G01X25863083Y3029088D01*
G01X25868925Y3023500D01*
G01X25874513Y3012070D01*
G01X25874513Y2994798D01*
G01X25868925Y2983368D01*
G01X25863083Y2977780D01*
G01X25846065Y2971938D01*
G01X25794503Y2971938D01*
G01X25950967Y3051948D02*
G01X25939537Y3046360D01*
G01X25928107Y3034930D01*
G01X25922265Y3017658D01*
G01X25922265Y3006228D01*
G01X25928107Y2989210D01*
G01X25939537Y2977780D01*
G01X25950967Y2971938D01*
G01X25967985Y2971938D01*
G01X25979415Y2977780D01*
G01X25990845Y2989210D01*
G01X25996687Y3006228D01*
G01X25996687Y3017658D01*
G01X25990845Y3034930D01*
G01X25979415Y3046360D01*
G01X25967985Y3051948D01*
G01X25950967Y3051948D01*
G01X26061711Y3092080D02*
G01X26061711Y2994798D01*
G01X26067299Y2977780D01*
G01X26078729Y2971938D01*
G01X26090159Y2971938D01*
G01X26044439Y3051948D02*
G01X26084571Y3051948D01*
G01X26155183Y3092080D02*
G01X26155183Y2994798D01*
G01X26160771Y2977780D01*
G01X26172201Y2971938D01*
G01X26183631Y2971938D01*
G01X26137911Y3051948D02*
G01X26178043Y3051948D01*
G01X26260085Y3051948D02*
G01X26248655Y3046360D01*
G01X26237225Y3034930D01*
G01X26231383Y3017658D01*
G01X26231383Y3006228D01*
G01X26237225Y2989210D01*
G01X26248655Y2977780D01*
G01X26260085Y2971938D01*
G01X26277103Y2971938D01*
G01X26288533Y2977780D01*
G01X26299963Y2989210D01*
G01X26305805Y3006228D01*
G01X26305805Y3017658D01*
G01X26299963Y3034930D01*
G01X26288533Y3046360D01*
G01X26277103Y3051948D01*
G01X26260085Y3051948D01*
G01X26353557Y3051948D02*
G01X26353557Y2971938D01*
G01X26353557Y3029088D02*
G01X26370829Y3046360D01*
G01X26382259Y3051948D01*
G01X26399277Y3051948D01*
G01X26410707Y3046360D01*
G01X26416549Y3029088D01*
G01X26416549Y2971938D01*
G01X26416549Y3029088D02*
G01X26433567Y3046360D01*
G01X26444997Y3051948D01*
G01X26462269Y3051948D01*
G01X26473699Y3046360D01*
G01X26479287Y3029088D01*
G01X26479287Y2971938D01*
G01X26655055Y3092080D02*
G01X26655055Y2971938D01*
G01X26655055Y2971938D02*
G01X26723635Y2971938D01*
G01X26839967Y3051948D02*
G01X26839967Y2971938D01*
G01X26839967Y3034930D02*
G01X26828537Y3046360D01*
G01X26817107Y3051948D01*
G01X26800089Y3051948D01*
G01X26788659Y3046360D01*
G01X26777229Y3034930D01*
G01X26771387Y3017658D01*
G01X26771387Y3006228D01*
G01X26777229Y2989210D01*
G01X26788659Y2977780D01*
G01X26800089Y2971938D01*
G01X26817107Y2971938D01*
G01X26828537Y2977780D01*
G01X26839967Y2989210D01*
G01X26893561Y3051948D02*
G01X26927851Y2971938D01*
G01X26962141Y3051948D02*
G01X26927851Y2971938D01*
G01X26916421Y2949078D01*
G01X26904991Y2937648D01*
G01X26893561Y2932060D01*
G01X26887719Y2932060D01*
G01X27009893Y3017658D02*
G01X27078473Y3017658D01*
G01X27078473Y3029088D01*
G01X27072885Y3040518D01*
G01X27067043Y3046360D01*
G01X27055613Y3051948D01*
G01X27038595Y3051948D01*
G01X27027165Y3046360D01*
G01X27015735Y3034930D01*
G01X27009893Y3017658D01*
G01X27009893Y3006228D01*
G01X27015735Y2989210D01*
G01X27027165Y2977780D01*
G01X27038595Y2971938D01*
G01X27055613Y2971938D01*
G01X27067043Y2977780D01*
G01X27078473Y2989210D01*
G01X27126225Y3051948D02*
G01X27126225Y2971938D01*
G01X27126225Y3017658D02*
G01X27132067Y3034930D01*
G01X27143497Y3046360D01*
G01X27154927Y3051948D01*
G01X27171945Y3051948D01*
G01X12875954Y2511508D02*
G01X12818804Y2511508D01*
G01X12813216Y2459946D01*
G01X12818804Y2465788D01*
G01X12836076Y2471376D01*
G01X12853094Y2471376D01*
G01X12870366Y2465788D01*
G01X12881796Y2454358D01*
G01X12887384Y2437086D01*
G01X12887384Y2425656D01*
G01X12881796Y2408638D01*
G01X12870366Y2397208D01*
G01X12853094Y2391366D01*
G01X12836076Y2391366D01*
G01X12818804Y2397208D01*
G01X12813216Y2402796D01*
G01X12807374Y2414226D01*
G01X14278687Y2511508D02*
G01X14221537Y2431498D01*
G01X14307389Y2431498D01*
G01X14278687Y2511508D02*
G01X14278687Y2391366D01*
G01X14435151Y2511508D02*
G01X14378001Y2391366D01*
G01X14355141Y2511508D02*
G01X14435151Y2511508D01*
G01X14488745Y2420068D02*
G01X14482903Y2414226D01*
G01X14488745Y2408638D01*
G01X14494333Y2414226D01*
G01X14488745Y2420068D01*
G01X14547927Y2482806D02*
G01X14547927Y2488648D01*
G01X14553515Y2500078D01*
G01X14559357Y2505666D01*
G01X14570787Y2511508D01*
G01X14593647Y2511508D01*
G01X14605077Y2505666D01*
G01X14610665Y2500078D01*
G01X14616507Y2488648D01*
G01X14616507Y2477218D01*
G01X14610665Y2465788D01*
G01X14599235Y2448516D01*
G01X14542085Y2391366D01*
G01X14622095Y2391366D01*
G01X14669847Y2471376D02*
G01X14732839Y2391366D01*
G01X14732839Y2471376D02*
G01X14669847Y2391366D01*
G01X14837741Y2511508D02*
G01X14780591Y2431498D01*
G01X14866443Y2431498D01*
G01X14837741Y2511508D02*
G01X14837741Y2391366D01*
G01X14994205Y2511508D02*
G01X14937055Y2391366D01*
G01X14914195Y2511508D02*
G01X14994205Y2511508D01*
G01X15047799Y2420068D02*
G01X15041957Y2414226D01*
G01X15047799Y2408638D01*
G01X15053387Y2414226D01*
G01X15047799Y2420068D01*
G01X15106981Y2482806D02*
G01X15106981Y2488648D01*
G01X15112569Y2500078D01*
G01X15118411Y2505666D01*
G01X15129841Y2511508D01*
G01X15152701Y2511508D01*
G01X15164131Y2505666D01*
G01X15169719Y2500078D01*
G01X15175561Y2488648D01*
G01X15175561Y2477218D01*
G01X15169719Y2465788D01*
G01X15158289Y2448516D01*
G01X15101139Y2391366D01*
G01X15181149Y2391366D01*
G01X15228901Y2471376D02*
G01X15228901Y2391366D01*
G01X15228901Y2448516D02*
G01X15246173Y2465788D01*
G01X15257603Y2471376D01*
G01X15274621Y2471376D01*
G01X15286051Y2465788D01*
G01X15291893Y2448516D01*
G01X15291893Y2391366D01*
G01X15291893Y2448516D02*
G01X15308911Y2465788D01*
G01X15320341Y2471376D01*
G01X15337613Y2471376D01*
G01X15349043Y2465788D01*
G01X15354631Y2448516D01*
G01X15354631Y2391366D01*
G01X15402383Y2511508D02*
G01X15408225Y2505666D01*
G01X15413813Y2511508D01*
G01X15408225Y2517096D01*
G01X15402383Y2511508D01*
G01X15408225Y2471376D02*
G01X15408225Y2391366D01*
G01X15461565Y2511508D02*
G01X15461565Y2391366D01*
G01X15549449Y2534368D02*
G01X15538019Y2522938D01*
G01X15526589Y2505666D01*
G01X15515159Y2482806D01*
G01X15509317Y2454358D01*
G01X15509317Y2431498D01*
G01X15515159Y2402796D01*
G01X15526589Y2379936D01*
G01X15538019Y2362918D01*
G01X15549449Y2351488D01*
G01X15597201Y2488648D02*
G01X15608631Y2494236D01*
G01X15625903Y2511508D01*
G01X15625903Y2391366D01*
G01X15679497Y2420068D02*
G01X15673655Y2414226D01*
G01X15679497Y2408638D01*
G01X15685085Y2414226D01*
G01X15679497Y2420068D01*
G01X15738679Y2482806D02*
G01X15738679Y2488648D01*
G01X15744267Y2500078D01*
G01X15750109Y2505666D01*
G01X15761539Y2511508D01*
G01X15784399Y2511508D01*
G01X15795829Y2505666D01*
G01X15801417Y2500078D01*
G01X15807259Y2488648D01*
G01X15807259Y2477218D01*
G01X15801417Y2465788D01*
G01X15789987Y2448516D01*
G01X15732837Y2391366D01*
G01X15812847Y2391366D01*
G01X15894889Y2511508D02*
G01X15877871Y2505666D01*
G01X15866441Y2488648D01*
G01X15860599Y2459946D01*
G01X15860599Y2442928D01*
G01X15866441Y2414226D01*
G01X15877871Y2397208D01*
G01X15894889Y2391366D01*
G01X15906319Y2391366D01*
G01X15923591Y2397208D01*
G01X15935021Y2414226D01*
G01X15940609Y2442928D01*
G01X15940609Y2459946D01*
G01X15935021Y2488648D01*
G01X15923591Y2505666D01*
G01X15906319Y2511508D01*
G01X15894889Y2511508D01*
G01X16022651Y2511508D02*
G01X16005633Y2505666D01*
G01X15994203Y2488648D01*
G01X15988361Y2459946D01*
G01X15988361Y2442928D01*
G01X15994203Y2414226D01*
G01X16005633Y2397208D01*
G01X16022651Y2391366D01*
G01X16034081Y2391366D01*
G01X16051353Y2397208D01*
G01X16062783Y2414226D01*
G01X16068371Y2442928D01*
G01X16068371Y2459946D01*
G01X16062783Y2488648D01*
G01X16051353Y2505666D01*
G01X16034081Y2511508D01*
G01X16022651Y2511508D01*
G01X16116123Y2471376D02*
G01X16179115Y2391366D01*
G01X16179115Y2471376D02*
G01X16116123Y2391366D01*
G01X16226867Y2488648D02*
G01X16238297Y2494236D01*
G01X16255569Y2511508D01*
G01X16255569Y2391366D01*
G01X16309163Y2420068D02*
G01X16303321Y2414226D01*
G01X16309163Y2408638D01*
G01X16314751Y2414226D01*
G01X16309163Y2420068D01*
G01X16368345Y2482806D02*
G01X16368345Y2488648D01*
G01X16373933Y2500078D01*
G01X16379775Y2505666D01*
G01X16391205Y2511508D01*
G01X16414065Y2511508D01*
G01X16425495Y2505666D01*
G01X16431083Y2500078D01*
G01X16436925Y2488648D01*
G01X16436925Y2477218D01*
G01X16431083Y2465788D01*
G01X16419653Y2448516D01*
G01X16362503Y2391366D01*
G01X16442513Y2391366D01*
G01X16524555Y2511508D02*
G01X16507537Y2505666D01*
G01X16496107Y2488648D01*
G01X16490265Y2459946D01*
G01X16490265Y2442928D01*
G01X16496107Y2414226D01*
G01X16507537Y2397208D01*
G01X16524555Y2391366D01*
G01X16535985Y2391366D01*
G01X16553257Y2397208D01*
G01X16564687Y2414226D01*
G01X16570275Y2442928D01*
G01X16570275Y2459946D01*
G01X16564687Y2488648D01*
G01X16553257Y2505666D01*
G01X16535985Y2511508D01*
G01X16524555Y2511508D01*
G01X16652317Y2511508D02*
G01X16635299Y2505666D01*
G01X16623869Y2488648D01*
G01X16618027Y2459946D01*
G01X16618027Y2442928D01*
G01X16623869Y2414226D01*
G01X16635299Y2397208D01*
G01X16652317Y2391366D01*
G01X16663747Y2391366D01*
G01X16681019Y2397208D01*
G01X16692449Y2414226D01*
G01X16698037Y2442928D01*
G01X16698037Y2459946D01*
G01X16692449Y2488648D01*
G01X16681019Y2505666D01*
G01X16663747Y2511508D01*
G01X16652317Y2511508D01*
G01X16745789Y2471376D02*
G01X16745789Y2391366D01*
G01X16745789Y2448516D02*
G01X16763061Y2465788D01*
G01X16774491Y2471376D01*
G01X16791509Y2471376D01*
G01X16802939Y2465788D01*
G01X16808781Y2448516D01*
G01X16808781Y2391366D01*
G01X16808781Y2448516D02*
G01X16825799Y2465788D01*
G01X16837229Y2471376D01*
G01X16854501Y2471376D01*
G01X16865931Y2465788D01*
G01X16871519Y2448516D01*
G01X16871519Y2391366D01*
G01X16919271Y2471376D02*
G01X16919271Y2391366D01*
G01X16919271Y2448516D02*
G01X16936543Y2465788D01*
G01X16947973Y2471376D01*
G01X16964991Y2471376D01*
G01X16976421Y2465788D01*
G01X16982263Y2448516D01*
G01X16982263Y2391366D01*
G01X16982263Y2448516D02*
G01X16999281Y2465788D01*
G01X17010711Y2471376D01*
G01X17027983Y2471376D01*
G01X17039413Y2465788D01*
G01X17045001Y2448516D01*
G01X17045001Y2391366D01*
G01X17092753Y2534368D02*
G01X17104183Y2522938D01*
G01X17115613Y2505666D01*
G01X17127043Y2482806D01*
G01X17132885Y2454358D01*
G01X17132885Y2431498D01*
G01X17127043Y2402796D01*
G01X17115613Y2379936D01*
G01X17104183Y2362918D01*
G01X17092753Y2351488D01*
G01X18103819Y2511508D02*
G01X18103819Y2391366D01*
G01X18103819Y2511508D02*
G01X18155381Y2511508D01*
G01X18172399Y2505666D01*
G01X18178241Y2500078D01*
G01X18183829Y2488648D01*
G01X18183829Y2471376D01*
G01X18178241Y2459946D01*
G01X18172399Y2454358D01*
G01X18155381Y2448516D01*
G01X18103819Y2448516D01*
G01X18271713Y2511508D02*
G01X18271713Y2391366D01*
G01X18231581Y2511508D02*
G01X18311591Y2511508D01*
G01X18359343Y2511508D02*
G01X18359343Y2391366D01*
G01X18439353Y2511508D02*
G01X18439353Y2391366D01*
G01X18359343Y2454358D02*
G01X18439353Y2454358D01*
G01X19565226Y2511508D02*
G01X19565226Y2391366D01*
G01X19565226Y2511508D02*
G01X19616788Y2511508D01*
G01X19633806Y2505666D01*
G01X19639648Y2500078D01*
G01X19645236Y2488648D01*
G01X19645236Y2477218D01*
G01X19639648Y2465788D01*
G01X19633806Y2459946D01*
G01X19616788Y2454358D01*
G01X19565226Y2454358D01*
G01X19605358Y2454358D02*
G01X19645236Y2391366D01*
G01X19721690Y2471376D02*
G01X19710260Y2465788D01*
G01X19698830Y2454358D01*
G01X19692988Y2437086D01*
G01X19692988Y2425656D01*
G01X19698830Y2408638D01*
G01X19710260Y2397208D01*
G01X19721690Y2391366D01*
G01X19738708Y2391366D01*
G01X19750138Y2397208D01*
G01X19761568Y2408638D01*
G01X19767410Y2425656D01*
G01X19767410Y2437086D01*
G01X19761568Y2454358D01*
G01X19750138Y2465788D01*
G01X19738708Y2471376D01*
G01X19721690Y2471376D01*
G01X19815162Y2471376D02*
G01X19815162Y2414226D01*
G01X19821004Y2397208D01*
G01X19832434Y2391366D01*
G01X19849452Y2391366D01*
G01X19860882Y2397208D01*
G01X19878154Y2414226D01*
G01X19878154Y2471376D02*
G01X19878154Y2391366D01*
G01X19925906Y2471376D02*
G01X19925906Y2391366D01*
G01X19925906Y2448516D02*
G01X19943178Y2465788D01*
G01X19954608Y2471376D01*
G01X19971626Y2471376D01*
G01X19983056Y2465788D01*
G01X19988898Y2448516D01*
G01X19988898Y2391366D01*
G01X20105230Y2511508D02*
G01X20105230Y2391366D01*
G01X20105230Y2454358D02*
G01X20093800Y2465788D01*
G01X20082370Y2471376D01*
G01X20065352Y2471376D01*
G01X20053922Y2465788D01*
G01X20042492Y2454358D01*
G01X20036650Y2437086D01*
G01X20036650Y2425656D01*
G01X20042492Y2408638D01*
G01X20053922Y2397208D01*
G01X20065352Y2391366D01*
G01X20082370Y2391366D01*
G01X20093800Y2397208D01*
G01X20105230Y2408638D01*
G01X20996407Y2511508D02*
G01X20996407Y2391366D01*
G01X20996407Y2511508D02*
G01X21047969Y2511508D01*
G01X21064987Y2505666D01*
G01X21070829Y2500078D01*
G01X21076417Y2488648D01*
G01X21076417Y2471376D01*
G01X21070829Y2459946D01*
G01X21064987Y2454358D01*
G01X21047969Y2448516D01*
G01X20996407Y2448516D01*
G01X21192749Y2471376D02*
G01X21192749Y2391366D01*
G01X21192749Y2454358D02*
G01X21181319Y2465788D01*
G01X21169889Y2471376D01*
G01X21152871Y2471376D01*
G01X21141441Y2465788D01*
G01X21130011Y2454358D01*
G01X21124169Y2437086D01*
G01X21124169Y2425656D01*
G01X21130011Y2408638D01*
G01X21141441Y2397208D01*
G01X21152871Y2391366D01*
G01X21169889Y2391366D01*
G01X21181319Y2397208D01*
G01X21192749Y2408638D01*
G01X21309081Y2511508D02*
G01X21309081Y2391366D01*
G01X21309081Y2454358D02*
G01X21297651Y2465788D01*
G01X21286221Y2471376D01*
G01X21269203Y2471376D01*
G01X21257773Y2465788D01*
G01X21246343Y2454358D01*
G01X21240501Y2437086D01*
G01X21240501Y2425656D01*
G01X21246343Y2408638D01*
G01X21257773Y2397208D01*
G01X21269203Y2391366D01*
G01X21286221Y2391366D01*
G01X21297651Y2397208D01*
G01X21309081Y2408638D01*
G01X22665586Y2511508D02*
G01X22665586Y2391366D01*
G01X22665586Y2511508D02*
G01X22717148Y2511508D01*
G01X22734166Y2505666D01*
G01X22740008Y2500078D01*
G01X22745596Y2488648D01*
G01X22745596Y2477218D01*
G01X22740008Y2465788D01*
G01X22734166Y2459946D01*
G01X22717148Y2454358D01*
G01X22665586Y2454358D01*
G01X22705718Y2454358D02*
G01X22745596Y2391366D01*
G01X22822050Y2471376D02*
G01X22810620Y2465788D01*
G01X22799190Y2454358D01*
G01X22793348Y2437086D01*
G01X22793348Y2425656D01*
G01X22799190Y2408638D01*
G01X22810620Y2397208D01*
G01X22822050Y2391366D01*
G01X22839068Y2391366D01*
G01X22850498Y2397208D01*
G01X22861928Y2408638D01*
G01X22867770Y2425656D01*
G01X22867770Y2437086D01*
G01X22861928Y2454358D01*
G01X22850498Y2465788D01*
G01X22839068Y2471376D01*
G01X22822050Y2471376D01*
G01X22915522Y2471376D02*
G01X22915522Y2414226D01*
G01X22921364Y2397208D01*
G01X22932794Y2391366D01*
G01X22949812Y2391366D01*
G01X22961242Y2397208D01*
G01X22978514Y2414226D01*
G01X22978514Y2471376D02*
G01X22978514Y2391366D01*
G01X23026266Y2471376D02*
G01X23026266Y2391366D01*
G01X23026266Y2448516D02*
G01X23043538Y2465788D01*
G01X23054968Y2471376D01*
G01X23071986Y2471376D01*
G01X23083416Y2465788D01*
G01X23089258Y2448516D01*
G01X23089258Y2391366D01*
G01X23205590Y2511508D02*
G01X23205590Y2391366D01*
G01X23205590Y2454358D02*
G01X23194160Y2465788D01*
G01X23182730Y2471376D01*
G01X23165712Y2471376D01*
G01X23154282Y2465788D01*
G01X23142852Y2454358D01*
G01X23137010Y2437086D01*
G01X23137010Y2425656D01*
G01X23142852Y2408638D01*
G01X23154282Y2397208D01*
G01X23165712Y2391366D01*
G01X23182730Y2391366D01*
G01X23194160Y2397208D01*
G01X23205590Y2408638D01*
G01X24625087Y2511508D02*
G01X24625087Y2391366D01*
G01X24584955Y2511508D02*
G01X24664965Y2511508D01*
G01X24741419Y2471376D02*
G01X24729989Y2465788D01*
G01X24718559Y2454358D01*
G01X24712717Y2437086D01*
G01X24712717Y2425656D01*
G01X24718559Y2408638D01*
G01X24729989Y2397208D01*
G01X24741419Y2391366D01*
G01X24758437Y2391366D01*
G01X24769867Y2397208D01*
G01X24781297Y2408638D01*
G01X24787139Y2425656D01*
G01X24787139Y2437086D01*
G01X24781297Y2454358D01*
G01X24769867Y2465788D01*
G01X24758437Y2471376D01*
G01X24741419Y2471376D01*
G01X24834891Y2471376D02*
G01X24834891Y2351488D01*
G01X24834891Y2454358D02*
G01X24846321Y2465788D01*
G01X24857751Y2471376D01*
G01X24875023Y2471376D01*
G01X24886453Y2465788D01*
G01X24897883Y2454358D01*
G01X24903471Y2437086D01*
G01X24903471Y2425656D01*
G01X24897883Y2408638D01*
G01X24886453Y2397208D01*
G01X24875023Y2391366D01*
G01X24857751Y2391366D01*
G01X24846321Y2397208D01*
G01X24834891Y2408638D01*
G01X25079239Y2511508D02*
G01X25079239Y2391366D01*
G01X25079239Y2391366D02*
G01X25147819Y2391366D01*
G01X25264151Y2471376D02*
G01X25264151Y2391366D01*
G01X25264151Y2454358D02*
G01X25252721Y2465788D01*
G01X25241291Y2471376D01*
G01X25224273Y2471376D01*
G01X25212843Y2465788D01*
G01X25201413Y2454358D01*
G01X25195571Y2437086D01*
G01X25195571Y2425656D01*
G01X25201413Y2408638D01*
G01X25212843Y2397208D01*
G01X25224273Y2391366D01*
G01X25241291Y2391366D01*
G01X25252721Y2397208D01*
G01X25264151Y2408638D01*
G01X25317745Y2471376D02*
G01X25352035Y2391366D01*
G01X25386325Y2471376D02*
G01X25352035Y2391366D01*
G01X25340605Y2368506D01*
G01X25329175Y2357076D01*
G01X25317745Y2351488D01*
G01X25311903Y2351488D01*
G01X25434077Y2437086D02*
G01X25502657Y2437086D01*
G01X25502657Y2448516D01*
G01X25497069Y2459946D01*
G01X25491227Y2465788D01*
G01X25479797Y2471376D01*
G01X25462779Y2471376D01*
G01X25451349Y2465788D01*
G01X25439919Y2454358D01*
G01X25434077Y2437086D01*
G01X25434077Y2425656D01*
G01X25439919Y2408638D01*
G01X25451349Y2397208D01*
G01X25462779Y2391366D01*
G01X25479797Y2391366D01*
G01X25491227Y2397208D01*
G01X25502657Y2408638D01*
G01X25550409Y2471376D02*
G01X25550409Y2391366D01*
G01X25550409Y2437086D02*
G01X25556251Y2454358D01*
G01X25567681Y2465788D01*
G01X25579111Y2471376D01*
G01X25596129Y2471376D01*
G01X25643881Y2442928D02*
G01X25746751Y2442928D01*
G01X25794503Y2511508D02*
G01X25794503Y2391366D01*
G01X25794503Y2511508D02*
G01X25846065Y2511508D01*
G01X25863083Y2505666D01*
G01X25868925Y2500078D01*
G01X25874513Y2488648D01*
G01X25874513Y2477218D01*
G01X25868925Y2465788D01*
G01X25863083Y2459946D01*
G01X25846065Y2454358D01*
G01X25794503Y2454358D02*
G01X25846065Y2454358D01*
G01X25863083Y2448516D01*
G01X25868925Y2442928D01*
G01X25874513Y2431498D01*
G01X25874513Y2414226D01*
G01X25868925Y2402796D01*
G01X25863083Y2397208D01*
G01X25846065Y2391366D01*
G01X25794503Y2391366D01*
G01X25950967Y2471376D02*
G01X25939537Y2465788D01*
G01X25928107Y2454358D01*
G01X25922265Y2437086D01*
G01X25922265Y2425656D01*
G01X25928107Y2408638D01*
G01X25939537Y2397208D01*
G01X25950967Y2391366D01*
G01X25967985Y2391366D01*
G01X25979415Y2397208D01*
G01X25990845Y2408638D01*
G01X25996687Y2425656D01*
G01X25996687Y2437086D01*
G01X25990845Y2454358D01*
G01X25979415Y2465788D01*
G01X25967985Y2471376D01*
G01X25950967Y2471376D01*
G01X26061711Y2511508D02*
G01X26061711Y2414226D01*
G01X26067299Y2397208D01*
G01X26078729Y2391366D01*
G01X26090159Y2391366D01*
G01X26044439Y2471376D02*
G01X26084571Y2471376D01*
G01X26155183Y2511508D02*
G01X26155183Y2414226D01*
G01X26160771Y2397208D01*
G01X26172201Y2391366D01*
G01X26183631Y2391366D01*
G01X26137911Y2471376D02*
G01X26178043Y2471376D01*
G01X26260085Y2471376D02*
G01X26248655Y2465788D01*
G01X26237225Y2454358D01*
G01X26231383Y2437086D01*
G01X26231383Y2425656D01*
G01X26237225Y2408638D01*
G01X26248655Y2397208D01*
G01X26260085Y2391366D01*
G01X26277103Y2391366D01*
G01X26288533Y2397208D01*
G01X26299963Y2408638D01*
G01X26305805Y2425656D01*
G01X26305805Y2437086D01*
G01X26299963Y2454358D01*
G01X26288533Y2465788D01*
G01X26277103Y2471376D01*
G01X26260085Y2471376D01*
G01X26353557Y2471376D02*
G01X26353557Y2391366D01*
G01X26353557Y2448516D02*
G01X26370829Y2465788D01*
G01X26382259Y2471376D01*
G01X26399277Y2471376D01*
G01X26410707Y2465788D01*
G01X26416549Y2448516D01*
G01X26416549Y2391366D01*
G01X26416549Y2448516D02*
G01X26433567Y2465788D01*
G01X26444997Y2471376D01*
G01X26462269Y2471376D01*
G01X26473699Y2465788D01*
G01X26479287Y2448516D01*
G01X26479287Y2391366D01*
G01X26655055Y2511508D02*
G01X26655055Y2391366D01*
G01X26655055Y2391366D02*
G01X26723635Y2391366D01*
G01X26839967Y2471376D02*
G01X26839967Y2391366D01*
G01X26839967Y2454358D02*
G01X26828537Y2465788D01*
G01X26817107Y2471376D01*
G01X26800089Y2471376D01*
G01X26788659Y2465788D01*
G01X26777229Y2454358D01*
G01X26771387Y2437086D01*
G01X26771387Y2425656D01*
G01X26777229Y2408638D01*
G01X26788659Y2397208D01*
G01X26800089Y2391366D01*
G01X26817107Y2391366D01*
G01X26828537Y2397208D01*
G01X26839967Y2408638D01*
G01X26893561Y2471376D02*
G01X26927851Y2391366D01*
G01X26962141Y2471376D02*
G01X26927851Y2391366D01*
G01X26916421Y2368506D01*
G01X26904991Y2357076D01*
G01X26893561Y2351488D01*
G01X26887719Y2351488D01*
G01X27009893Y2437086D02*
G01X27078473Y2437086D01*
G01X27078473Y2448516D01*
G01X27072885Y2459946D01*
G01X27067043Y2465788D01*
G01X27055613Y2471376D01*
G01X27038595Y2471376D01*
G01X27027165Y2465788D01*
G01X27015735Y2454358D01*
G01X27009893Y2437086D01*
G01X27009893Y2425656D01*
G01X27015735Y2408638D01*
G01X27027165Y2397208D01*
G01X27038595Y2391366D01*
G01X27055613Y2391366D01*
G01X27067043Y2397208D01*
G01X27078473Y2408638D01*
G01X27126225Y2471376D02*
G01X27126225Y2391366D01*
G01X27126225Y2437086D02*
G01X27132067Y2454358D01*
G01X27143497Y2465788D01*
G01X27154927Y2471376D01*
G01X27171945Y2471376D01*
G01X12875954Y1913665D02*
G01X12870366Y1925095D01*
G01X12853094Y1930937D01*
G01X12841664Y1930937D01*
G01X12824646Y1925095D01*
G01X12813216Y1908077D01*
G01X12807374Y1879375D01*
G01X12807374Y1850927D01*
G01X12813216Y1828067D01*
G01X12824646Y1816637D01*
G01X12841664Y1810795D01*
G01X12847506Y1810795D01*
G01X12864524Y1816637D01*
G01X12875954Y1828067D01*
G01X12881796Y1845085D01*
G01X12881796Y1850927D01*
G01X12875954Y1867945D01*
G01X12864524Y1879375D01*
G01X12847506Y1885217D01*
G01X12841664Y1885217D01*
G01X12824646Y1879375D01*
G01X12813216Y1867945D01*
G01X12807374Y1850927D01*
G01X14290117Y1913665D02*
G01X14284529Y1925095D01*
G01X14267257Y1930937D01*
G01X14255827Y1930937D01*
G01X14238809Y1925095D01*
G01X14227379Y1908077D01*
G01X14221537Y1879375D01*
G01X14221537Y1850927D01*
G01X14227379Y1828067D01*
G01X14238809Y1816637D01*
G01X14255827Y1810795D01*
G01X14261669Y1810795D01*
G01X14278687Y1816637D01*
G01X14290117Y1828067D01*
G01X14295959Y1845085D01*
G01X14295959Y1850927D01*
G01X14290117Y1867945D01*
G01X14278687Y1879375D01*
G01X14261669Y1885217D01*
G01X14255827Y1885217D01*
G01X14238809Y1879375D01*
G01X14227379Y1867945D01*
G01X14221537Y1850927D01*
G01X14343711Y1908077D02*
G01X14355141Y1913665D01*
G01X14372413Y1930937D01*
G01X14372413Y1810795D01*
G01X14426007Y1839497D02*
G01X14420165Y1833655D01*
G01X14426007Y1828067D01*
G01X14431595Y1833655D01*
G01X14426007Y1839497D01*
G01X14513637Y1930937D02*
G01X14496619Y1925095D01*
G01X14485189Y1908077D01*
G01X14479347Y1879375D01*
G01X14479347Y1862357D01*
G01X14485189Y1833655D01*
G01X14496619Y1816637D01*
G01X14513637Y1810795D01*
G01X14525067Y1810795D01*
G01X14542339Y1816637D01*
G01X14553769Y1833655D01*
G01X14559357Y1862357D01*
G01X14559357Y1879375D01*
G01X14553769Y1908077D01*
G01X14542339Y1925095D01*
G01X14525067Y1930937D01*
G01X14513637Y1930937D01*
G01X14607109Y1890805D02*
G01X14670101Y1810795D01*
G01X14670101Y1890805D02*
G01X14607109Y1810795D01*
G01X14786433Y1913665D02*
G01X14780845Y1925095D01*
G01X14763573Y1930937D01*
G01X14752143Y1930937D01*
G01X14735125Y1925095D01*
G01X14723695Y1908077D01*
G01X14717853Y1879375D01*
G01X14717853Y1850927D01*
G01X14723695Y1828067D01*
G01X14735125Y1816637D01*
G01X14752143Y1810795D01*
G01X14757985Y1810795D01*
G01X14775003Y1816637D01*
G01X14786433Y1828067D01*
G01X14792275Y1845085D01*
G01X14792275Y1850927D01*
G01X14786433Y1867945D01*
G01X14775003Y1879375D01*
G01X14757985Y1885217D01*
G01X14752143Y1885217D01*
G01X14735125Y1879375D01*
G01X14723695Y1867945D01*
G01X14717853Y1850927D01*
G01X14840027Y1908077D02*
G01X14851457Y1913665D01*
G01X14868729Y1930937D01*
G01X14868729Y1810795D01*
G01X14922323Y1839497D02*
G01X14916481Y1833655D01*
G01X14922323Y1828067D01*
G01X14927911Y1833655D01*
G01X14922323Y1839497D01*
G01X15009953Y1930937D02*
G01X14992935Y1925095D01*
G01X14981505Y1908077D01*
G01X14975663Y1879375D01*
G01X14975663Y1862357D01*
G01X14981505Y1833655D01*
G01X14992935Y1816637D01*
G01X15009953Y1810795D01*
G01X15021383Y1810795D01*
G01X15038655Y1816637D01*
G01X15050085Y1833655D01*
G01X15055673Y1862357D01*
G01X15055673Y1879375D01*
G01X15050085Y1908077D01*
G01X15038655Y1925095D01*
G01X15021383Y1930937D01*
G01X15009953Y1930937D01*
G01X15103425Y1890805D02*
G01X15103425Y1810795D01*
G01X15103425Y1867945D02*
G01X15120697Y1885217D01*
G01X15132127Y1890805D01*
G01X15149145Y1890805D01*
G01X15160575Y1885217D01*
G01X15166417Y1867945D01*
G01X15166417Y1810795D01*
G01X15166417Y1867945D02*
G01X15183435Y1885217D01*
G01X15194865Y1890805D01*
G01X15212137Y1890805D01*
G01X15223567Y1885217D01*
G01X15229155Y1867945D01*
G01X15229155Y1810795D01*
G01X15276907Y1930937D02*
G01X15282749Y1925095D01*
G01X15288337Y1930937D01*
G01X15282749Y1936525D01*
G01X15276907Y1930937D01*
G01X15282749Y1890805D02*
G01X15282749Y1810795D01*
G01X15336089Y1930937D02*
G01X15336089Y1810795D01*
G01X15423973Y1953797D02*
G01X15412543Y1942367D01*
G01X15401113Y1925095D01*
G01X15389683Y1902235D01*
G01X15383841Y1873787D01*
G01X15383841Y1850927D01*
G01X15389683Y1822225D01*
G01X15401113Y1799365D01*
G01X15412543Y1782347D01*
G01X15423973Y1770917D01*
G01X15471725Y1908077D02*
G01X15483155Y1913665D01*
G01X15500427Y1930937D01*
G01X15500427Y1810795D01*
G01X15554021Y1839497D02*
G01X15548179Y1833655D01*
G01X15554021Y1828067D01*
G01X15559609Y1833655D01*
G01X15554021Y1839497D01*
G01X15675941Y1930937D02*
G01X15618791Y1930937D01*
G01X15613203Y1879375D01*
G01X15618791Y1885217D01*
G01X15636063Y1890805D01*
G01X15653081Y1890805D01*
G01X15670353Y1885217D01*
G01X15681783Y1873787D01*
G01X15687371Y1856515D01*
G01X15687371Y1845085D01*
G01X15681783Y1828067D01*
G01X15670353Y1816637D01*
G01X15653081Y1810795D01*
G01X15636063Y1810795D01*
G01X15618791Y1816637D01*
G01X15613203Y1822225D01*
G01X15607361Y1833655D01*
G01X15792273Y1930937D02*
G01X15735123Y1850927D01*
G01X15820975Y1850927D01*
G01X15792273Y1930937D02*
G01X15792273Y1810795D01*
G01X15943149Y1890805D02*
G01X15937307Y1873787D01*
G01X15925877Y1862357D01*
G01X15908859Y1856515D01*
G01X15903017Y1856515D01*
G01X15885999Y1862357D01*
G01X15874569Y1873787D01*
G01X15868727Y1890805D01*
G01X15868727Y1896647D01*
G01X15874569Y1913665D01*
G01X15885999Y1925095D01*
G01X15903017Y1930937D01*
G01X15908859Y1930937D01*
G01X15925877Y1925095D01*
G01X15937307Y1913665D01*
G01X15943149Y1890805D01*
G01X15943149Y1862357D01*
G01X15937307Y1833655D01*
G01X15925877Y1816637D01*
G01X15908859Y1810795D01*
G01X15897429Y1810795D01*
G01X15880157Y1816637D01*
G01X15874569Y1828067D01*
G01X15990901Y1890805D02*
G01X16053893Y1810795D01*
G01X16053893Y1890805D02*
G01X15990901Y1810795D01*
G01X16101645Y1908077D02*
G01X16113075Y1913665D01*
G01X16130347Y1930937D01*
G01X16130347Y1810795D01*
G01X16183941Y1839497D02*
G01X16178099Y1833655D01*
G01X16183941Y1828067D01*
G01X16189529Y1833655D01*
G01X16183941Y1839497D01*
G01X16305861Y1930937D02*
G01X16248711Y1930937D01*
G01X16243123Y1879375D01*
G01X16248711Y1885217D01*
G01X16265983Y1890805D01*
G01X16283001Y1890805D01*
G01X16300273Y1885217D01*
G01X16311703Y1873787D01*
G01X16317291Y1856515D01*
G01X16317291Y1845085D01*
G01X16311703Y1828067D01*
G01X16300273Y1816637D01*
G01X16283001Y1810795D01*
G01X16265983Y1810795D01*
G01X16248711Y1816637D01*
G01X16243123Y1822225D01*
G01X16237281Y1833655D01*
G01X16422193Y1930937D02*
G01X16365043Y1850927D01*
G01X16450895Y1850927D01*
G01X16422193Y1930937D02*
G01X16422193Y1810795D01*
G01X16573069Y1890805D02*
G01X16567227Y1873787D01*
G01X16555797Y1862357D01*
G01X16538779Y1856515D01*
G01X16532937Y1856515D01*
G01X16515919Y1862357D01*
G01X16504489Y1873787D01*
G01X16498647Y1890805D01*
G01X16498647Y1896647D01*
G01X16504489Y1913665D01*
G01X16515919Y1925095D01*
G01X16532937Y1930937D01*
G01X16538779Y1930937D01*
G01X16555797Y1925095D01*
G01X16567227Y1913665D01*
G01X16573069Y1890805D01*
G01X16573069Y1862357D01*
G01X16567227Y1833655D01*
G01X16555797Y1816637D01*
G01X16538779Y1810795D01*
G01X16527349Y1810795D01*
G01X16510077Y1816637D01*
G01X16504489Y1828067D01*
G01X16620821Y1890805D02*
G01X16620821Y1810795D01*
G01X16620821Y1867945D02*
G01X16638093Y1885217D01*
G01X16649523Y1890805D01*
G01X16666541Y1890805D01*
G01X16677971Y1885217D01*
G01X16683813Y1867945D01*
G01X16683813Y1810795D01*
G01X16683813Y1867945D02*
G01X16700831Y1885217D01*
G01X16712261Y1890805D01*
G01X16729533Y1890805D01*
G01X16740963Y1885217D01*
G01X16746551Y1867945D01*
G01X16746551Y1810795D01*
G01X16794303Y1890805D02*
G01X16794303Y1810795D01*
G01X16794303Y1867945D02*
G01X16811575Y1885217D01*
G01X16823005Y1890805D01*
G01X16840023Y1890805D01*
G01X16851453Y1885217D01*
G01X16857295Y1867945D01*
G01X16857295Y1810795D01*
G01X16857295Y1867945D02*
G01X16874313Y1885217D01*
G01X16885743Y1890805D01*
G01X16903015Y1890805D01*
G01X16914445Y1885217D01*
G01X16920033Y1867945D01*
G01X16920033Y1810795D01*
G01X16967785Y1953797D02*
G01X16979215Y1942367D01*
G01X16990645Y1925095D01*
G01X17002075Y1902235D01*
G01X17007917Y1873787D01*
G01X17007917Y1850927D01*
G01X17002075Y1822225D01*
G01X16990645Y1799365D01*
G01X16979215Y1782347D01*
G01X16967785Y1770917D01*
G01X18103819Y1930937D02*
G01X18103819Y1810795D01*
G01X18103819Y1930937D02*
G01X18155381Y1930937D01*
G01X18172399Y1925095D01*
G01X18178241Y1919507D01*
G01X18183829Y1908077D01*
G01X18183829Y1890805D01*
G01X18178241Y1879375D01*
G01X18172399Y1873787D01*
G01X18155381Y1867945D01*
G01X18103819Y1867945D01*
G01X18271713Y1930937D02*
G01X18271713Y1810795D01*
G01X18231581Y1930937D02*
G01X18311591Y1930937D01*
G01X18359343Y1930937D02*
G01X18359343Y1810795D01*
G01X18439353Y1930937D02*
G01X18439353Y1810795D01*
G01X18359343Y1873787D02*
G01X18439353Y1873787D01*
G01X19565226Y1930937D02*
G01X19565226Y1810795D01*
G01X19565226Y1930937D02*
G01X19616788Y1930937D01*
G01X19633806Y1925095D01*
G01X19639648Y1919507D01*
G01X19645236Y1908077D01*
G01X19645236Y1896647D01*
G01X19639648Y1885217D01*
G01X19633806Y1879375D01*
G01X19616788Y1873787D01*
G01X19565226Y1873787D01*
G01X19605358Y1873787D02*
G01X19645236Y1810795D01*
G01X19721690Y1890805D02*
G01X19710260Y1885217D01*
G01X19698830Y1873787D01*
G01X19692988Y1856515D01*
G01X19692988Y1845085D01*
G01X19698830Y1828067D01*
G01X19710260Y1816637D01*
G01X19721690Y1810795D01*
G01X19738708Y1810795D01*
G01X19750138Y1816637D01*
G01X19761568Y1828067D01*
G01X19767410Y1845085D01*
G01X19767410Y1856515D01*
G01X19761568Y1873787D01*
G01X19750138Y1885217D01*
G01X19738708Y1890805D01*
G01X19721690Y1890805D01*
G01X19815162Y1890805D02*
G01X19815162Y1833655D01*
G01X19821004Y1816637D01*
G01X19832434Y1810795D01*
G01X19849452Y1810795D01*
G01X19860882Y1816637D01*
G01X19878154Y1833655D01*
G01X19878154Y1890805D02*
G01X19878154Y1810795D01*
G01X19925906Y1890805D02*
G01X19925906Y1810795D01*
G01X19925906Y1867945D02*
G01X19943178Y1885217D01*
G01X19954608Y1890805D01*
G01X19971626Y1890805D01*
G01X19983056Y1885217D01*
G01X19988898Y1867945D01*
G01X19988898Y1810795D01*
G01X20105230Y1930937D02*
G01X20105230Y1810795D01*
G01X20105230Y1873787D02*
G01X20093800Y1885217D01*
G01X20082370Y1890805D01*
G01X20065352Y1890805D01*
G01X20053922Y1885217D01*
G01X20042492Y1873787D01*
G01X20036650Y1856515D01*
G01X20036650Y1845085D01*
G01X20042492Y1828067D01*
G01X20053922Y1816637D01*
G01X20065352Y1810795D01*
G01X20082370Y1810795D01*
G01X20093800Y1816637D01*
G01X20105230Y1828067D01*
G01X20996407Y1930937D02*
G01X20996407Y1810795D01*
G01X20996407Y1930937D02*
G01X21047969Y1930937D01*
G01X21064987Y1925095D01*
G01X21070829Y1919507D01*
G01X21076417Y1908077D01*
G01X21076417Y1890805D01*
G01X21070829Y1879375D01*
G01X21064987Y1873787D01*
G01X21047969Y1867945D01*
G01X20996407Y1867945D01*
G01X21192749Y1890805D02*
G01X21192749Y1810795D01*
G01X21192749Y1873787D02*
G01X21181319Y1885217D01*
G01X21169889Y1890805D01*
G01X21152871Y1890805D01*
G01X21141441Y1885217D01*
G01X21130011Y1873787D01*
G01X21124169Y1856515D01*
G01X21124169Y1845085D01*
G01X21130011Y1828067D01*
G01X21141441Y1816637D01*
G01X21152871Y1810795D01*
G01X21169889Y1810795D01*
G01X21181319Y1816637D01*
G01X21192749Y1828067D01*
G01X21309081Y1930937D02*
G01X21309081Y1810795D01*
G01X21309081Y1873787D02*
G01X21297651Y1885217D01*
G01X21286221Y1890805D01*
G01X21269203Y1890805D01*
G01X21257773Y1885217D01*
G01X21246343Y1873787D01*
G01X21240501Y1856515D01*
G01X21240501Y1845085D01*
G01X21246343Y1828067D01*
G01X21257773Y1816637D01*
G01X21269203Y1810795D01*
G01X21286221Y1810795D01*
G01X21297651Y1816637D01*
G01X21309081Y1828067D01*
G01X22665586Y1930937D02*
G01X22665586Y1810795D01*
G01X22665586Y1930937D02*
G01X22717148Y1930937D01*
G01X22734166Y1925095D01*
G01X22740008Y1919507D01*
G01X22745596Y1908077D01*
G01X22745596Y1896647D01*
G01X22740008Y1885217D01*
G01X22734166Y1879375D01*
G01X22717148Y1873787D01*
G01X22665586Y1873787D01*
G01X22705718Y1873787D02*
G01X22745596Y1810795D01*
G01X22822050Y1890805D02*
G01X22810620Y1885217D01*
G01X22799190Y1873787D01*
G01X22793348Y1856515D01*
G01X22793348Y1845085D01*
G01X22799190Y1828067D01*
G01X22810620Y1816637D01*
G01X22822050Y1810795D01*
G01X22839068Y1810795D01*
G01X22850498Y1816637D01*
G01X22861928Y1828067D01*
G01X22867770Y1845085D01*
G01X22867770Y1856515D01*
G01X22861928Y1873787D01*
G01X22850498Y1885217D01*
G01X22839068Y1890805D01*
G01X22822050Y1890805D01*
G01X22915522Y1890805D02*
G01X22915522Y1833655D01*
G01X22921364Y1816637D01*
G01X22932794Y1810795D01*
G01X22949812Y1810795D01*
G01X22961242Y1816637D01*
G01X22978514Y1833655D01*
G01X22978514Y1890805D02*
G01X22978514Y1810795D01*
G01X23026266Y1890805D02*
G01X23026266Y1810795D01*
G01X23026266Y1867945D02*
G01X23043538Y1885217D01*
G01X23054968Y1890805D01*
G01X23071986Y1890805D01*
G01X23083416Y1885217D01*
G01X23089258Y1867945D01*
G01X23089258Y1810795D01*
G01X23205590Y1930937D02*
G01X23205590Y1810795D01*
G01X23205590Y1873787D02*
G01X23194160Y1885217D01*
G01X23182730Y1890805D01*
G01X23165712Y1890805D01*
G01X23154282Y1885217D01*
G01X23142852Y1873787D01*
G01X23137010Y1856515D01*
G01X23137010Y1845085D01*
G01X23142852Y1828067D01*
G01X23154282Y1816637D01*
G01X23165712Y1810795D01*
G01X23182730Y1810795D01*
G01X23194160Y1816637D01*
G01X23205590Y1828067D01*
G01X24625087Y1930937D02*
G01X24625087Y1810795D01*
G01X24584955Y1930937D02*
G01X24664965Y1930937D01*
G01X24741419Y1890805D02*
G01X24729989Y1885217D01*
G01X24718559Y1873787D01*
G01X24712717Y1856515D01*
G01X24712717Y1845085D01*
G01X24718559Y1828067D01*
G01X24729989Y1816637D01*
G01X24741419Y1810795D01*
G01X24758437Y1810795D01*
G01X24769867Y1816637D01*
G01X24781297Y1828067D01*
G01X24787139Y1845085D01*
G01X24787139Y1856515D01*
G01X24781297Y1873787D01*
G01X24769867Y1885217D01*
G01X24758437Y1890805D01*
G01X24741419Y1890805D01*
G01X24834891Y1890805D02*
G01X24834891Y1770917D01*
G01X24834891Y1873787D02*
G01X24846321Y1885217D01*
G01X24857751Y1890805D01*
G01X24875023Y1890805D01*
G01X24886453Y1885217D01*
G01X24897883Y1873787D01*
G01X24903471Y1856515D01*
G01X24903471Y1845085D01*
G01X24897883Y1828067D01*
G01X24886453Y1816637D01*
G01X24875023Y1810795D01*
G01X24857751Y1810795D01*
G01X24846321Y1816637D01*
G01X24834891Y1828067D01*
G01X25079239Y1930937D02*
G01X25079239Y1810795D01*
G01X25079239Y1810795D02*
G01X25147819Y1810795D01*
G01X25264151Y1890805D02*
G01X25264151Y1810795D01*
G01X25264151Y1873787D02*
G01X25252721Y1885217D01*
G01X25241291Y1890805D01*
G01X25224273Y1890805D01*
G01X25212843Y1885217D01*
G01X25201413Y1873787D01*
G01X25195571Y1856515D01*
G01X25195571Y1845085D01*
G01X25201413Y1828067D01*
G01X25212843Y1816637D01*
G01X25224273Y1810795D01*
G01X25241291Y1810795D01*
G01X25252721Y1816637D01*
G01X25264151Y1828067D01*
G01X25317745Y1890805D02*
G01X25352035Y1810795D01*
G01X25386325Y1890805D02*
G01X25352035Y1810795D01*
G01X25340605Y1787935D01*
G01X25329175Y1776505D01*
G01X25317745Y1770917D01*
G01X25311903Y1770917D01*
G01X25434077Y1856515D02*
G01X25502657Y1856515D01*
G01X25502657Y1867945D01*
G01X25497069Y1879375D01*
G01X25491227Y1885217D01*
G01X25479797Y1890805D01*
G01X25462779Y1890805D01*
G01X25451349Y1885217D01*
G01X25439919Y1873787D01*
G01X25434077Y1856515D01*
G01X25434077Y1845085D01*
G01X25439919Y1828067D01*
G01X25451349Y1816637D01*
G01X25462779Y1810795D01*
G01X25479797Y1810795D01*
G01X25491227Y1816637D01*
G01X25502657Y1828067D01*
G01X25550409Y1890805D02*
G01X25550409Y1810795D01*
G01X25550409Y1856515D02*
G01X25556251Y1873787D01*
G01X25567681Y1885217D01*
G01X25579111Y1890805D01*
G01X25596129Y1890805D01*
G01X25643881Y1862357D02*
G01X25746751Y1862357D01*
G01X25794503Y1930937D02*
G01X25794503Y1810795D01*
G01X25794503Y1930937D02*
G01X25846065Y1930937D01*
G01X25863083Y1925095D01*
G01X25868925Y1919507D01*
G01X25874513Y1908077D01*
G01X25874513Y1896647D01*
G01X25868925Y1885217D01*
G01X25863083Y1879375D01*
G01X25846065Y1873787D01*
G01X25794503Y1873787D02*
G01X25846065Y1873787D01*
G01X25863083Y1867945D01*
G01X25868925Y1862357D01*
G01X25874513Y1850927D01*
G01X25874513Y1833655D01*
G01X25868925Y1822225D01*
G01X25863083Y1816637D01*
G01X25846065Y1810795D01*
G01X25794503Y1810795D01*
G01X25950967Y1890805D02*
G01X25939537Y1885217D01*
G01X25928107Y1873787D01*
G01X25922265Y1856515D01*
G01X25922265Y1845085D01*
G01X25928107Y1828067D01*
G01X25939537Y1816637D01*
G01X25950967Y1810795D01*
G01X25967985Y1810795D01*
G01X25979415Y1816637D01*
G01X25990845Y1828067D01*
G01X25996687Y1845085D01*
G01X25996687Y1856515D01*
G01X25990845Y1873787D01*
G01X25979415Y1885217D01*
G01X25967985Y1890805D01*
G01X25950967Y1890805D01*
G01X26061711Y1930937D02*
G01X26061711Y1833655D01*
G01X26067299Y1816637D01*
G01X26078729Y1810795D01*
G01X26090159Y1810795D01*
G01X26044439Y1890805D02*
G01X26084571Y1890805D01*
G01X26155183Y1930937D02*
G01X26155183Y1833655D01*
G01X26160771Y1816637D01*
G01X26172201Y1810795D01*
G01X26183631Y1810795D01*
G01X26137911Y1890805D02*
G01X26178043Y1890805D01*
G01X26260085Y1890805D02*
G01X26248655Y1885217D01*
G01X26237225Y1873787D01*
G01X26231383Y1856515D01*
G01X26231383Y1845085D01*
G01X26237225Y1828067D01*
G01X26248655Y1816637D01*
G01X26260085Y1810795D01*
G01X26277103Y1810795D01*
G01X26288533Y1816637D01*
G01X26299963Y1828067D01*
G01X26305805Y1845085D01*
G01X26305805Y1856515D01*
G01X26299963Y1873787D01*
G01X26288533Y1885217D01*
G01X26277103Y1890805D01*
G01X26260085Y1890805D01*
G01X26353557Y1890805D02*
G01X26353557Y1810795D01*
G01X26353557Y1867945D02*
G01X26370829Y1885217D01*
G01X26382259Y1890805D01*
G01X26399277Y1890805D01*
G01X26410707Y1885217D01*
G01X26416549Y1867945D01*
G01X26416549Y1810795D01*
G01X26416549Y1867945D02*
G01X26433567Y1885217D01*
G01X26444997Y1890805D01*
G01X26462269Y1890805D01*
G01X26473699Y1885217D01*
G01X26479287Y1867945D01*
G01X26479287Y1810795D01*
G01X26655055Y1930937D02*
G01X26655055Y1810795D01*
G01X26655055Y1810795D02*
G01X26723635Y1810795D01*
G01X26839967Y1890805D02*
G01X26839967Y1810795D01*
G01X26839967Y1873787D02*
G01X26828537Y1885217D01*
G01X26817107Y1890805D01*
G01X26800089Y1890805D01*
G01X26788659Y1885217D01*
G01X26777229Y1873787D01*
G01X26771387Y1856515D01*
G01X26771387Y1845085D01*
G01X26777229Y1828067D01*
G01X26788659Y1816637D01*
G01X26800089Y1810795D01*
G01X26817107Y1810795D01*
G01X26828537Y1816637D01*
G01X26839967Y1828067D01*
G01X26893561Y1890805D02*
G01X26927851Y1810795D01*
G01X26962141Y1890805D02*
G01X26927851Y1810795D01*
G01X26916421Y1787935D01*
G01X26904991Y1776505D01*
G01X26893561Y1770917D01*
G01X26887719Y1770917D01*
G01X27009893Y1856515D02*
G01X27078473Y1856515D01*
G01X27078473Y1867945D01*
G01X27072885Y1879375D01*
G01X27067043Y1885217D01*
G01X27055613Y1890805D01*
G01X27038595Y1890805D01*
G01X27027165Y1885217D01*
G01X27015735Y1873787D01*
G01X27009893Y1856515D01*
G01X27009893Y1845085D01*
G01X27015735Y1828067D01*
G01X27027165Y1816637D01*
G01X27038595Y1810795D01*
G01X27055613Y1810795D01*
G01X27067043Y1816637D01*
G01X27078473Y1828067D01*
G01X27126225Y1890805D02*
G01X27126225Y1810795D01*
G01X27126225Y1856515D02*
G01X27132067Y1873787D01*
G01X27143497Y1885217D01*
G01X27154927Y1890805D01*
G01X27171945Y1890805D01*
G01X12807374Y1327506D02*
G01X12818804Y1333094D01*
G01X12836076Y1350366D01*
G01X12836076Y1230224D01*
G01X12940978Y1350366D02*
G01X12883828Y1270356D01*
G01X12969680Y1270356D01*
G01X12940978Y1350366D02*
G01X12940978Y1230224D01*
G01X14232967Y1350366D02*
G01X14295959Y1350366D01*
G01X14261669Y1304646D01*
G01X14278687Y1304646D01*
G01X14290117Y1298804D01*
G01X14295959Y1293216D01*
G01X14301547Y1275944D01*
G01X14301547Y1264514D01*
G01X14295959Y1247496D01*
G01X14284529Y1236066D01*
G01X14267257Y1230224D01*
G01X14250239Y1230224D01*
G01X14232967Y1236066D01*
G01X14227379Y1241654D01*
G01X14221537Y1253084D01*
G01X14417879Y1350366D02*
G01X14360729Y1350366D01*
G01X14355141Y1298804D01*
G01X14360729Y1304646D01*
G01X14378001Y1310234D01*
G01X14395019Y1310234D01*
G01X14412291Y1304646D01*
G01X14423721Y1293216D01*
G01X14429309Y1275944D01*
G01X14429309Y1264514D01*
G01X14423721Y1247496D01*
G01X14412291Y1236066D01*
G01X14395019Y1230224D01*
G01X14378001Y1230224D01*
G01X14360729Y1236066D01*
G01X14355141Y1241654D01*
G01X14349299Y1253084D01*
G01X14482903Y1258926D02*
G01X14477061Y1253084D01*
G01X14482903Y1247496D01*
G01X14488491Y1253084D01*
G01X14482903Y1258926D01*
G01X14570533Y1350366D02*
G01X14553515Y1344524D01*
G01X14542085Y1327506D01*
G01X14536243Y1298804D01*
G01X14536243Y1281786D01*
G01X14542085Y1253084D01*
G01X14553515Y1236066D01*
G01X14570533Y1230224D01*
G01X14581963Y1230224D01*
G01X14599235Y1236066D01*
G01X14610665Y1253084D01*
G01X14616253Y1281786D01*
G01X14616253Y1298804D01*
G01X14610665Y1327506D01*
G01X14599235Y1344524D01*
G01X14581963Y1350366D01*
G01X14570533Y1350366D01*
G01X14664005Y1310234D02*
G01X14726997Y1230224D01*
G01X14726997Y1310234D02*
G01X14664005Y1230224D01*
G01X14786179Y1350366D02*
G01X14849171Y1350366D01*
G01X14814881Y1304646D01*
G01X14831899Y1304646D01*
G01X14843329Y1298804D01*
G01X14849171Y1293216D01*
G01X14854759Y1275944D01*
G01X14854759Y1264514D01*
G01X14849171Y1247496D01*
G01X14837741Y1236066D01*
G01X14820469Y1230224D01*
G01X14803451Y1230224D01*
G01X14786179Y1236066D01*
G01X14780591Y1241654D01*
G01X14774749Y1253084D01*
G01X14971091Y1350366D02*
G01X14913941Y1350366D01*
G01X14908353Y1298804D01*
G01X14913941Y1304646D01*
G01X14931213Y1310234D01*
G01X14948231Y1310234D01*
G01X14965503Y1304646D01*
G01X14976933Y1293216D01*
G01X14982521Y1275944D01*
G01X14982521Y1264514D01*
G01X14976933Y1247496D01*
G01X14965503Y1236066D01*
G01X14948231Y1230224D01*
G01X14931213Y1230224D01*
G01X14913941Y1236066D01*
G01X14908353Y1241654D01*
G01X14902511Y1253084D01*
G01X15036115Y1258926D02*
G01X15030273Y1253084D01*
G01X15036115Y1247496D01*
G01X15041703Y1253084D01*
G01X15036115Y1258926D01*
G01X15123745Y1350366D02*
G01X15106727Y1344524D01*
G01X15095297Y1327506D01*
G01X15089455Y1298804D01*
G01X15089455Y1281786D01*
G01X15095297Y1253084D01*
G01X15106727Y1236066D01*
G01X15123745Y1230224D01*
G01X15135175Y1230224D01*
G01X15152447Y1236066D01*
G01X15163877Y1253084D01*
G01X15169465Y1281786D01*
G01X15169465Y1298804D01*
G01X15163877Y1327506D01*
G01X15152447Y1344524D01*
G01X15135175Y1350366D01*
G01X15123745Y1350366D01*
G01X15217217Y1310234D02*
G01X15217217Y1230224D01*
G01X15217217Y1287374D02*
G01X15234489Y1304646D01*
G01X15245919Y1310234D01*
G01X15262937Y1310234D01*
G01X15274367Y1304646D01*
G01X15280209Y1287374D01*
G01X15280209Y1230224D01*
G01X15280209Y1287374D02*
G01X15297227Y1304646D01*
G01X15308657Y1310234D01*
G01X15325929Y1310234D01*
G01X15337359Y1304646D01*
G01X15342947Y1287374D01*
G01X15342947Y1230224D01*
G01X15390699Y1350366D02*
G01X15396541Y1344524D01*
G01X15402129Y1350366D01*
G01X15396541Y1355954D01*
G01X15390699Y1350366D01*
G01X15396541Y1310234D02*
G01X15396541Y1230224D01*
G01X15449881Y1350366D02*
G01X15449881Y1230224D01*
G01X15537765Y1373226D02*
G01X15526335Y1361796D01*
G01X15514905Y1344524D01*
G01X15503475Y1321664D01*
G01X15497633Y1293216D01*
G01X15497633Y1270356D01*
G01X15503475Y1241654D01*
G01X15514905Y1218794D01*
G01X15526335Y1201776D01*
G01X15537765Y1190346D01*
G01X15619807Y1350366D02*
G01X15602789Y1344524D01*
G01X15591359Y1327506D01*
G01X15585517Y1298804D01*
G01X15585517Y1281786D01*
G01X15591359Y1253084D01*
G01X15602789Y1236066D01*
G01X15619807Y1230224D01*
G01X15631237Y1230224D01*
G01X15648509Y1236066D01*
G01X15659939Y1253084D01*
G01X15665527Y1281786D01*
G01X15665527Y1298804D01*
G01X15659939Y1327506D01*
G01X15648509Y1344524D01*
G01X15631237Y1350366D01*
G01X15619807Y1350366D01*
G01X15719121Y1258926D02*
G01X15713279Y1253084D01*
G01X15719121Y1247496D01*
G01X15724709Y1253084D01*
G01X15719121Y1258926D01*
G01X15801163Y1350366D02*
G01X15783891Y1344524D01*
G01X15778303Y1333094D01*
G01X15778303Y1321664D01*
G01X15783891Y1310234D01*
G01X15795321Y1304646D01*
G01X15818181Y1298804D01*
G01X15835453Y1293216D01*
G01X15846883Y1281786D01*
G01X15852471Y1270356D01*
G01X15852471Y1253084D01*
G01X15846883Y1241654D01*
G01X15841041Y1236066D01*
G01X15824023Y1230224D01*
G01X15801163Y1230224D01*
G01X15783891Y1236066D01*
G01X15778303Y1241654D01*
G01X15772461Y1253084D01*
G01X15772461Y1270356D01*
G01X15778303Y1281786D01*
G01X15789733Y1293216D01*
G01X15806751Y1298804D01*
G01X15829611Y1304646D01*
G01X15841041Y1310234D01*
G01X15846883Y1321664D01*
G01X15846883Y1333094D01*
G01X15841041Y1344524D01*
G01X15824023Y1350366D01*
G01X15801163Y1350366D01*
G01X15928925Y1350366D02*
G01X15911653Y1344524D01*
G01X15906065Y1333094D01*
G01X15906065Y1321664D01*
G01X15911653Y1310234D01*
G01X15923083Y1304646D01*
G01X15945943Y1298804D01*
G01X15963215Y1293216D01*
G01X15974645Y1281786D01*
G01X15980233Y1270356D01*
G01X15980233Y1253084D01*
G01X15974645Y1241654D01*
G01X15968803Y1236066D01*
G01X15951785Y1230224D01*
G01X15928925Y1230224D01*
G01X15911653Y1236066D01*
G01X15906065Y1241654D01*
G01X15900223Y1253084D01*
G01X15900223Y1270356D01*
G01X15906065Y1281786D01*
G01X15917495Y1293216D01*
G01X15934513Y1298804D01*
G01X15957373Y1304646D01*
G01X15968803Y1310234D01*
G01X15974645Y1321664D01*
G01X15974645Y1333094D01*
G01X15968803Y1344524D01*
G01X15951785Y1350366D01*
G01X15928925Y1350366D01*
G01X16102407Y1310234D02*
G01X16096565Y1293216D01*
G01X16085135Y1281786D01*
G01X16068117Y1275944D01*
G01X16062275Y1275944D01*
G01X16045257Y1281786D01*
G01X16033827Y1293216D01*
G01X16027985Y1310234D01*
G01X16027985Y1316076D01*
G01X16033827Y1333094D01*
G01X16045257Y1344524D01*
G01X16062275Y1350366D01*
G01X16068117Y1350366D01*
G01X16085135Y1344524D01*
G01X16096565Y1333094D01*
G01X16102407Y1310234D01*
G01X16102407Y1281786D01*
G01X16096565Y1253084D01*
G01X16085135Y1236066D01*
G01X16068117Y1230224D01*
G01X16056687Y1230224D01*
G01X16039415Y1236066D01*
G01X16033827Y1247496D01*
G01X16150159Y1310234D02*
G01X16213151Y1230224D01*
G01X16213151Y1310234D02*
G01X16150159Y1230224D01*
G01X16295193Y1350366D02*
G01X16278175Y1344524D01*
G01X16266745Y1327506D01*
G01X16260903Y1298804D01*
G01X16260903Y1281786D01*
G01X16266745Y1253084D01*
G01X16278175Y1236066D01*
G01X16295193Y1230224D01*
G01X16306623Y1230224D01*
G01X16323895Y1236066D01*
G01X16335325Y1253084D01*
G01X16340913Y1281786D01*
G01X16340913Y1298804D01*
G01X16335325Y1327506D01*
G01X16323895Y1344524D01*
G01X16306623Y1350366D01*
G01X16295193Y1350366D01*
G01X16394507Y1258926D02*
G01X16388665Y1253084D01*
G01X16394507Y1247496D01*
G01X16400095Y1253084D01*
G01X16394507Y1258926D01*
G01X16476549Y1350366D02*
G01X16459277Y1344524D01*
G01X16453689Y1333094D01*
G01X16453689Y1321664D01*
G01X16459277Y1310234D01*
G01X16470707Y1304646D01*
G01X16493567Y1298804D01*
G01X16510839Y1293216D01*
G01X16522269Y1281786D01*
G01X16527857Y1270356D01*
G01X16527857Y1253084D01*
G01X16522269Y1241654D01*
G01X16516427Y1236066D01*
G01X16499409Y1230224D01*
G01X16476549Y1230224D01*
G01X16459277Y1236066D01*
G01X16453689Y1241654D01*
G01X16447847Y1253084D01*
G01X16447847Y1270356D01*
G01X16453689Y1281786D01*
G01X16465119Y1293216D01*
G01X16482137Y1298804D01*
G01X16504997Y1304646D01*
G01X16516427Y1310234D01*
G01X16522269Y1321664D01*
G01X16522269Y1333094D01*
G01X16516427Y1344524D01*
G01X16499409Y1350366D01*
G01X16476549Y1350366D01*
G01X16604311Y1350366D02*
G01X16587039Y1344524D01*
G01X16581451Y1333094D01*
G01X16581451Y1321664D01*
G01X16587039Y1310234D01*
G01X16598469Y1304646D01*
G01X16621329Y1298804D01*
G01X16638601Y1293216D01*
G01X16650031Y1281786D01*
G01X16655619Y1270356D01*
G01X16655619Y1253084D01*
G01X16650031Y1241654D01*
G01X16644189Y1236066D01*
G01X16627171Y1230224D01*
G01X16604311Y1230224D01*
G01X16587039Y1236066D01*
G01X16581451Y1241654D01*
G01X16575609Y1253084D01*
G01X16575609Y1270356D01*
G01X16581451Y1281786D01*
G01X16592881Y1293216D01*
G01X16609899Y1298804D01*
G01X16632759Y1304646D01*
G01X16644189Y1310234D01*
G01X16650031Y1321664D01*
G01X16650031Y1333094D01*
G01X16644189Y1344524D01*
G01X16627171Y1350366D01*
G01X16604311Y1350366D01*
G01X16777793Y1310234D02*
G01X16771951Y1293216D01*
G01X16760521Y1281786D01*
G01X16743503Y1275944D01*
G01X16737661Y1275944D01*
G01X16720643Y1281786D01*
G01X16709213Y1293216D01*
G01X16703371Y1310234D01*
G01X16703371Y1316076D01*
G01X16709213Y1333094D01*
G01X16720643Y1344524D01*
G01X16737661Y1350366D01*
G01X16743503Y1350366D01*
G01X16760521Y1344524D01*
G01X16771951Y1333094D01*
G01X16777793Y1310234D01*
G01X16777793Y1281786D01*
G01X16771951Y1253084D01*
G01X16760521Y1236066D01*
G01X16743503Y1230224D01*
G01X16732073Y1230224D01*
G01X16714801Y1236066D01*
G01X16709213Y1247496D01*
G01X16825545Y1310234D02*
G01X16825545Y1230224D01*
G01X16825545Y1287374D02*
G01X16842817Y1304646D01*
G01X16854247Y1310234D01*
G01X16871265Y1310234D01*
G01X16882695Y1304646D01*
G01X16888537Y1287374D01*
G01X16888537Y1230224D01*
G01X16888537Y1287374D02*
G01X16905555Y1304646D01*
G01X16916985Y1310234D01*
G01X16934257Y1310234D01*
G01X16945687Y1304646D01*
G01X16951275Y1287374D01*
G01X16951275Y1230224D01*
G01X16999027Y1310234D02*
G01X16999027Y1230224D01*
G01X16999027Y1287374D02*
G01X17016299Y1304646D01*
G01X17027729Y1310234D01*
G01X17044747Y1310234D01*
G01X17056177Y1304646D01*
G01X17062019Y1287374D01*
G01X17062019Y1230224D01*
G01X17062019Y1287374D02*
G01X17079037Y1304646D01*
G01X17090467Y1310234D01*
G01X17107739Y1310234D01*
G01X17119169Y1304646D01*
G01X17124757Y1287374D01*
G01X17124757Y1230224D01*
G01X17172509Y1373226D02*
G01X17183939Y1361796D01*
G01X17195369Y1344524D01*
G01X17206799Y1321664D01*
G01X17212641Y1293216D01*
G01X17212641Y1270356D01*
G01X17206799Y1241654D01*
G01X17195369Y1218794D01*
G01X17183939Y1201776D01*
G01X17172509Y1190346D01*
G01X18103819Y1350366D02*
G01X18103819Y1230224D01*
G01X18103819Y1350366D02*
G01X18155381Y1350366D01*
G01X18172399Y1344524D01*
G01X18178241Y1338936D01*
G01X18183829Y1327506D01*
G01X18183829Y1310234D01*
G01X18178241Y1298804D01*
G01X18172399Y1293216D01*
G01X18155381Y1287374D01*
G01X18103819Y1287374D01*
G01X18271713Y1350366D02*
G01X18271713Y1230224D01*
G01X18231581Y1350366D02*
G01X18311591Y1350366D01*
G01X18359343Y1350366D02*
G01X18359343Y1230224D01*
G01X18439353Y1350366D02*
G01X18439353Y1230224D01*
G01X18359343Y1293216D02*
G01X18439353Y1293216D01*
G01X19565226Y1350366D02*
G01X19565226Y1230224D01*
G01X19565226Y1350366D02*
G01X19616788Y1350366D01*
G01X19633806Y1344524D01*
G01X19639648Y1338936D01*
G01X19645236Y1327506D01*
G01X19645236Y1316076D01*
G01X19639648Y1304646D01*
G01X19633806Y1298804D01*
G01X19616788Y1293216D01*
G01X19565226Y1293216D01*
G01X19605358Y1293216D02*
G01X19645236Y1230224D01*
G01X19721690Y1310234D02*
G01X19710260Y1304646D01*
G01X19698830Y1293216D01*
G01X19692988Y1275944D01*
G01X19692988Y1264514D01*
G01X19698830Y1247496D01*
G01X19710260Y1236066D01*
G01X19721690Y1230224D01*
G01X19738708Y1230224D01*
G01X19750138Y1236066D01*
G01X19761568Y1247496D01*
G01X19767410Y1264514D01*
G01X19767410Y1275944D01*
G01X19761568Y1293216D01*
G01X19750138Y1304646D01*
G01X19738708Y1310234D01*
G01X19721690Y1310234D01*
G01X19815162Y1310234D02*
G01X19815162Y1253084D01*
G01X19821004Y1236066D01*
G01X19832434Y1230224D01*
G01X19849452Y1230224D01*
G01X19860882Y1236066D01*
G01X19878154Y1253084D01*
G01X19878154Y1310234D02*
G01X19878154Y1230224D01*
G01X19925906Y1310234D02*
G01X19925906Y1230224D01*
G01X19925906Y1287374D02*
G01X19943178Y1304646D01*
G01X19954608Y1310234D01*
G01X19971626Y1310234D01*
G01X19983056Y1304646D01*
G01X19988898Y1287374D01*
G01X19988898Y1230224D01*
G01X20105230Y1350366D02*
G01X20105230Y1230224D01*
G01X20105230Y1293216D02*
G01X20093800Y1304646D01*
G01X20082370Y1310234D01*
G01X20065352Y1310234D01*
G01X20053922Y1304646D01*
G01X20042492Y1293216D01*
G01X20036650Y1275944D01*
G01X20036650Y1264514D01*
G01X20042492Y1247496D01*
G01X20053922Y1236066D01*
G01X20065352Y1230224D01*
G01X20082370Y1230224D01*
G01X20093800Y1236066D01*
G01X20105230Y1247496D01*
G01X20996407Y1350366D02*
G01X20996407Y1230224D01*
G01X20996407Y1350366D02*
G01X21047969Y1350366D01*
G01X21064987Y1344524D01*
G01X21070829Y1338936D01*
G01X21076417Y1327506D01*
G01X21076417Y1310234D01*
G01X21070829Y1298804D01*
G01X21064987Y1293216D01*
G01X21047969Y1287374D01*
G01X20996407Y1287374D01*
G01X21192749Y1310234D02*
G01X21192749Y1230224D01*
G01X21192749Y1293216D02*
G01X21181319Y1304646D01*
G01X21169889Y1310234D01*
G01X21152871Y1310234D01*
G01X21141441Y1304646D01*
G01X21130011Y1293216D01*
G01X21124169Y1275944D01*
G01X21124169Y1264514D01*
G01X21130011Y1247496D01*
G01X21141441Y1236066D01*
G01X21152871Y1230224D01*
G01X21169889Y1230224D01*
G01X21181319Y1236066D01*
G01X21192749Y1247496D01*
G01X21309081Y1350366D02*
G01X21309081Y1230224D01*
G01X21309081Y1293216D02*
G01X21297651Y1304646D01*
G01X21286221Y1310234D01*
G01X21269203Y1310234D01*
G01X21257773Y1304646D01*
G01X21246343Y1293216D01*
G01X21240501Y1275944D01*
G01X21240501Y1264514D01*
G01X21246343Y1247496D01*
G01X21257773Y1236066D01*
G01X21269203Y1230224D01*
G01X21286221Y1230224D01*
G01X21297651Y1236066D01*
G01X21309081Y1247496D01*
G01X22665586Y1350366D02*
G01X22665586Y1230224D01*
G01X22665586Y1350366D02*
G01X22717148Y1350366D01*
G01X22734166Y1344524D01*
G01X22740008Y1338936D01*
G01X22745596Y1327506D01*
G01X22745596Y1316076D01*
G01X22740008Y1304646D01*
G01X22734166Y1298804D01*
G01X22717148Y1293216D01*
G01X22665586Y1293216D01*
G01X22705718Y1293216D02*
G01X22745596Y1230224D01*
G01X22822050Y1310234D02*
G01X22810620Y1304646D01*
G01X22799190Y1293216D01*
G01X22793348Y1275944D01*
G01X22793348Y1264514D01*
G01X22799190Y1247496D01*
G01X22810620Y1236066D01*
G01X22822050Y1230224D01*
G01X22839068Y1230224D01*
G01X22850498Y1236066D01*
G01X22861928Y1247496D01*
G01X22867770Y1264514D01*
G01X22867770Y1275944D01*
G01X22861928Y1293216D01*
G01X22850498Y1304646D01*
G01X22839068Y1310234D01*
G01X22822050Y1310234D01*
G01X22915522Y1310234D02*
G01X22915522Y1253084D01*
G01X22921364Y1236066D01*
G01X22932794Y1230224D01*
G01X22949812Y1230224D01*
G01X22961242Y1236066D01*
G01X22978514Y1253084D01*
G01X22978514Y1310234D02*
G01X22978514Y1230224D01*
G01X23026266Y1310234D02*
G01X23026266Y1230224D01*
G01X23026266Y1287374D02*
G01X23043538Y1304646D01*
G01X23054968Y1310234D01*
G01X23071986Y1310234D01*
G01X23083416Y1304646D01*
G01X23089258Y1287374D01*
G01X23089258Y1230224D01*
G01X23205590Y1350366D02*
G01X23205590Y1230224D01*
G01X23205590Y1293216D02*
G01X23194160Y1304646D01*
G01X23182730Y1310234D01*
G01X23165712Y1310234D01*
G01X23154282Y1304646D01*
G01X23142852Y1293216D01*
G01X23137010Y1275944D01*
G01X23137010Y1264514D01*
G01X23142852Y1247496D01*
G01X23154282Y1236066D01*
G01X23165712Y1230224D01*
G01X23182730Y1230224D01*
G01X23194160Y1236066D01*
G01X23205590Y1247496D01*
G01X24625087Y1350366D02*
G01X24625087Y1230224D01*
G01X24584955Y1350366D02*
G01X24664965Y1350366D01*
G01X24741419Y1310234D02*
G01X24729989Y1304646D01*
G01X24718559Y1293216D01*
G01X24712717Y1275944D01*
G01X24712717Y1264514D01*
G01X24718559Y1247496D01*
G01X24729989Y1236066D01*
G01X24741419Y1230224D01*
G01X24758437Y1230224D01*
G01X24769867Y1236066D01*
G01X24781297Y1247496D01*
G01X24787139Y1264514D01*
G01X24787139Y1275944D01*
G01X24781297Y1293216D01*
G01X24769867Y1304646D01*
G01X24758437Y1310234D01*
G01X24741419Y1310234D01*
G01X24834891Y1310234D02*
G01X24834891Y1190346D01*
G01X24834891Y1293216D02*
G01X24846321Y1304646D01*
G01X24857751Y1310234D01*
G01X24875023Y1310234D01*
G01X24886453Y1304646D01*
G01X24897883Y1293216D01*
G01X24903471Y1275944D01*
G01X24903471Y1264514D01*
G01X24897883Y1247496D01*
G01X24886453Y1236066D01*
G01X24875023Y1230224D01*
G01X24857751Y1230224D01*
G01X24846321Y1236066D01*
G01X24834891Y1247496D01*
G01X25079239Y1350366D02*
G01X25079239Y1230224D01*
G01X25079239Y1230224D02*
G01X25147819Y1230224D01*
G01X25264151Y1310234D02*
G01X25264151Y1230224D01*
G01X25264151Y1293216D02*
G01X25252721Y1304646D01*
G01X25241291Y1310234D01*
G01X25224273Y1310234D01*
G01X25212843Y1304646D01*
G01X25201413Y1293216D01*
G01X25195571Y1275944D01*
G01X25195571Y1264514D01*
G01X25201413Y1247496D01*
G01X25212843Y1236066D01*
G01X25224273Y1230224D01*
G01X25241291Y1230224D01*
G01X25252721Y1236066D01*
G01X25264151Y1247496D01*
G01X25317745Y1310234D02*
G01X25352035Y1230224D01*
G01X25386325Y1310234D02*
G01X25352035Y1230224D01*
G01X25340605Y1207364D01*
G01X25329175Y1195934D01*
G01X25317745Y1190346D01*
G01X25311903Y1190346D01*
G01X25434077Y1275944D02*
G01X25502657Y1275944D01*
G01X25502657Y1287374D01*
G01X25497069Y1298804D01*
G01X25491227Y1304646D01*
G01X25479797Y1310234D01*
G01X25462779Y1310234D01*
G01X25451349Y1304646D01*
G01X25439919Y1293216D01*
G01X25434077Y1275944D01*
G01X25434077Y1264514D01*
G01X25439919Y1247496D01*
G01X25451349Y1236066D01*
G01X25462779Y1230224D01*
G01X25479797Y1230224D01*
G01X25491227Y1236066D01*
G01X25502657Y1247496D01*
G01X25550409Y1310234D02*
G01X25550409Y1230224D01*
G01X25550409Y1275944D02*
G01X25556251Y1293216D01*
G01X25567681Y1304646D01*
G01X25579111Y1310234D01*
G01X25596129Y1310234D01*
G01X25643881Y1281786D02*
G01X25746751Y1281786D01*
G01X25794503Y1350366D02*
G01X25794503Y1230224D01*
G01X25794503Y1350366D02*
G01X25846065Y1350366D01*
G01X25863083Y1344524D01*
G01X25868925Y1338936D01*
G01X25874513Y1327506D01*
G01X25874513Y1316076D01*
G01X25868925Y1304646D01*
G01X25863083Y1298804D01*
G01X25846065Y1293216D01*
G01X25794503Y1293216D02*
G01X25846065Y1293216D01*
G01X25863083Y1287374D01*
G01X25868925Y1281786D01*
G01X25874513Y1270356D01*
G01X25874513Y1253084D01*
G01X25868925Y1241654D01*
G01X25863083Y1236066D01*
G01X25846065Y1230224D01*
G01X25794503Y1230224D01*
G01X25950967Y1310234D02*
G01X25939537Y1304646D01*
G01X25928107Y1293216D01*
G01X25922265Y1275944D01*
G01X25922265Y1264514D01*
G01X25928107Y1247496D01*
G01X25939537Y1236066D01*
G01X25950967Y1230224D01*
G01X25967985Y1230224D01*
G01X25979415Y1236066D01*
G01X25990845Y1247496D01*
G01X25996687Y1264514D01*
G01X25996687Y1275944D01*
G01X25990845Y1293216D01*
G01X25979415Y1304646D01*
G01X25967985Y1310234D01*
G01X25950967Y1310234D01*
G01X26061711Y1350366D02*
G01X26061711Y1253084D01*
G01X26067299Y1236066D01*
G01X26078729Y1230224D01*
G01X26090159Y1230224D01*
G01X26044439Y1310234D02*
G01X26084571Y1310234D01*
G01X26155183Y1350366D02*
G01X26155183Y1253084D01*
G01X26160771Y1236066D01*
G01X26172201Y1230224D01*
G01X26183631Y1230224D01*
G01X26137911Y1310234D02*
G01X26178043Y1310234D01*
G01X26260085Y1310234D02*
G01X26248655Y1304646D01*
G01X26237225Y1293216D01*
G01X26231383Y1275944D01*
G01X26231383Y1264514D01*
G01X26237225Y1247496D01*
G01X26248655Y1236066D01*
G01X26260085Y1230224D01*
G01X26277103Y1230224D01*
G01X26288533Y1236066D01*
G01X26299963Y1247496D01*
G01X26305805Y1264514D01*
G01X26305805Y1275944D01*
G01X26299963Y1293216D01*
G01X26288533Y1304646D01*
G01X26277103Y1310234D01*
G01X26260085Y1310234D01*
G01X26353557Y1310234D02*
G01X26353557Y1230224D01*
G01X26353557Y1287374D02*
G01X26370829Y1304646D01*
G01X26382259Y1310234D01*
G01X26399277Y1310234D01*
G01X26410707Y1304646D01*
G01X26416549Y1287374D01*
G01X26416549Y1230224D01*
G01X26416549Y1287374D02*
G01X26433567Y1304646D01*
G01X26444997Y1310234D01*
G01X26462269Y1310234D01*
G01X26473699Y1304646D01*
G01X26479287Y1287374D01*
G01X26479287Y1230224D01*
G01X26655055Y1350366D02*
G01X26655055Y1230224D01*
G01X26655055Y1230224D02*
G01X26723635Y1230224D01*
G01X26839967Y1310234D02*
G01X26839967Y1230224D01*
G01X26839967Y1293216D02*
G01X26828537Y1304646D01*
G01X26817107Y1310234D01*
G01X26800089Y1310234D01*
G01X26788659Y1304646D01*
G01X26777229Y1293216D01*
G01X26771387Y1275944D01*
G01X26771387Y1264514D01*
G01X26777229Y1247496D01*
G01X26788659Y1236066D01*
G01X26800089Y1230224D01*
G01X26817107Y1230224D01*
G01X26828537Y1236066D01*
G01X26839967Y1247496D01*
G01X26893561Y1310234D02*
G01X26927851Y1230224D01*
G01X26962141Y1310234D02*
G01X26927851Y1230224D01*
G01X26916421Y1207364D01*
G01X26904991Y1195934D01*
G01X26893561Y1190346D01*
G01X26887719Y1190346D01*
G01X27009893Y1275944D02*
G01X27078473Y1275944D01*
G01X27078473Y1287374D01*
G01X27072885Y1298804D01*
G01X27067043Y1304646D01*
G01X27055613Y1310234D01*
G01X27038595Y1310234D01*
G01X27027165Y1304646D01*
G01X27015735Y1293216D01*
G01X27009893Y1275944D01*
G01X27009893Y1264514D01*
G01X27015735Y1247496D01*
G01X27027165Y1236066D01*
G01X27038595Y1230224D01*
G01X27055613Y1230224D01*
G01X27067043Y1236066D01*
G01X27078473Y1247496D01*
G01X27126225Y1310234D02*
G01X27126225Y1230224D01*
G01X27126225Y1275944D02*
G01X27132067Y1293216D01*
G01X27143497Y1304646D01*
G01X27154927Y1310234D01*
G01X27171945Y1310234D01*

G04 Image Start*
G36*
G01X11642763Y2330896D02*
G01X11537149Y2342377D01*
G01X11494274Y2245171D01*
G01X11451399Y2342377D01*
G01X11345786Y2330896D01*
G01X11408549Y2416621D01*
G01X11368827Y2470876D01*
G01X11400320Y2470876D01*
G01X11440020Y2416621D01*
G01X11400320Y2362367D01*
G01X11467147Y2369631D01*
G01X11467147Y2369631D01*
G01X11494274Y2308138D01*
G01X11521401Y2369631D01*
G01X11588229Y2362367D01*
G01X11548529Y2416621D01*
G01X11588203Y2470850D01*
G01X11521376Y2463586D01*
G01X11494274Y2525105D01*
G01X11467147Y2463611D01*
G01X11400320Y2470876D01*
G01X11368827Y2470876D01*
G01X11345786Y2502346D01*
G01X11451424Y2490866D01*
G01X11494274Y2588071D01*
G01X11537149Y2490866D01*
G01X11642763Y2502346D01*
G01X11579999Y2416621D01*
G01X11642763Y2330896D01*
G37*
G36*
G01X11513769Y3445201D02*
G01X11506029Y3444612D01*
G01X11498186Y3444414D01*
G01X11490343Y3444612D01*
G01X11482603Y3445201D01*
G01X11474975Y3446170D01*
G01X11467470Y3447510D01*
G01X11452864Y3451265D01*
G01X11438862Y3456390D01*
G01X11425540Y3462807D01*
G01X11412974Y3470440D01*
G01X11401242Y3479213D01*
G01X11390420Y3489048D01*
G01X11380584Y3499871D01*
G01X11371811Y3511603D01*
G01X11364178Y3524168D01*
G01X11357761Y3537490D01*
G01X11352637Y3551492D01*
G01X11348882Y3566098D01*
G01X11347542Y3573603D01*
G01X11346572Y3581231D01*
G01X11345984Y3588971D01*
G01X11345786Y3596814D01*
G01X11371186Y3596814D01*
G01X11371843Y3583848D01*
G01X11373771Y3571252D01*
G01X11376905Y3559090D01*
G01X11381182Y3547427D01*
G01X11386537Y3536328D01*
G01X11392905Y3525857D01*
G01X11400223Y3516077D01*
G01X11408425Y3507054D01*
G01X11417449Y3498851D01*
G01X11427228Y3491533D01*
G01X11437700Y3485165D01*
G01X11448799Y3479810D01*
G01X11460462Y3475534D01*
G01X11472623Y3472399D01*
G01X11472623Y3472399D01*
G01X11485219Y3470471D01*
G01X11498186Y3469814D01*
G01X11511152Y3470471D01*
G01X11523748Y3472399D01*
G01X11535910Y3475534D01*
G01X11547572Y3479810D01*
G01X11558672Y3485165D01*
G01X11569143Y3491533D01*
G01X11578923Y3498851D01*
G01X11587946Y3507054D01*
G01X11596149Y3516077D01*
G01X11603467Y3525857D01*
G01X11609835Y3536328D01*
G01X11615190Y3547427D01*
G01X11619466Y3559090D01*
G01X11622601Y3571252D01*
G01X11624529Y3583848D01*
G01X11625186Y3596814D01*
G01X11624529Y3609781D01*
G01X11622601Y3622377D01*
G01X11619466Y3634538D01*
G01X11615190Y3646201D01*
G01X11609835Y3657300D01*
G01X11603467Y3667772D01*
G01X11596149Y3677551D01*
G01X11587946Y3686575D01*
G01X11578923Y3694777D01*
G01X11569143Y3702095D01*
G01X11558672Y3708463D01*
G01X11547572Y3713818D01*
G01X11535910Y3718095D01*
G01X11523748Y3721229D01*
G01X11511152Y3723157D01*
G01X11498186Y3723814D01*
G01X11485219Y3723157D01*
G01X11472623Y3721229D01*
G01X11460462Y3718095D01*
G01X11448799Y3713818D01*
G01X11437700Y3708463D01*
G01X11427228Y3702095D01*
G01X11417449Y3694777D01*
G01X11408425Y3686575D01*
G01X11400223Y3677551D01*
G01X11392905Y3667772D01*
G01X11386537Y3657300D01*
G01X11381182Y3646201D01*
G01X11376905Y3634538D01*
G01X11373771Y3622377D01*
G01X11371843Y3609781D01*
G01X11371186Y3596814D01*
G01X11345786Y3596814D01*
G01X11345984Y3604657D01*
G01X11346572Y3612397D01*
G01X11347542Y3620025D01*
G01X11348882Y3627530D01*
G01X11352637Y3642136D01*
G01X11357761Y3656138D01*
G01X11364178Y3669460D01*
G01X11371811Y3682026D01*
G01X11380584Y3693758D01*
G01X11390420Y3704580D01*
G01X11401242Y3714416D01*
G01X11412974Y3723189D01*
G01X11425540Y3730822D01*
G01X11438862Y3737239D01*
G01X11452864Y3742363D01*
G01X11467470Y3746118D01*
G01X11474975Y3747458D01*
G01X11482603Y3748427D01*
G01X11490343Y3749016D01*
G01X11498186Y3749214D01*
G01X11506029Y3749016D01*
G01X11513769Y3748427D01*
G01X11521396Y3747458D01*
G01X11528902Y3746118D01*
G01X11543508Y3742363D01*
G01X11557510Y3737239D01*
G01X11570832Y3730822D01*
G01X11583397Y3723189D01*
G01X11595129Y3714416D01*
G01X11605952Y3704580D01*
G01X11615787Y3693758D01*
G01X11624560Y3682026D01*
G01X11632193Y3669460D01*
G01X11638610Y3656138D01*
G01X11643735Y3642136D01*
G01X11647490Y3627530D01*
G01X11648830Y3620025D01*
G01X11649799Y3612397D01*
G01X11650387Y3604657D01*
G01X11650586Y3596814D01*
G01X11650387Y3588971D01*
G01X11649799Y3581231D01*
G01X11648830Y3573603D01*
G01X11647490Y3566098D01*
G01X11643735Y3551492D01*
G01X11638610Y3537490D01*
G01X11632193Y3524168D01*
G01X11624560Y3511603D01*
G01X11615787Y3499871D01*
G01X11605952Y3489048D01*
G01X11595129Y3479213D01*
G01X11583397Y3470440D01*
G01X11570832Y3462807D01*
G01X11557510Y3456390D01*
G01X11543508Y3451265D01*
G01X11528902Y3447510D01*
G01X11521396Y3446170D01*
G01X11513769Y3445201D01*
G37*
G36*
G01X11650586Y1205263D02*
G01X11567477Y1205263D01*
G01X11567477Y1122128D01*
G01X11428920Y1122128D01*
G01X11428920Y1205237D01*
G01X11345786Y1205237D01*
G01X11345786Y1318394D01*
G01X11371186Y1318394D01*
G01X11371186Y1230663D01*
G01X11454320Y1230663D01*
G01X11454320Y1147528D01*
G01X11454320Y1147528D01*
G01X11542052Y1147528D01*
G01X11542052Y1230637D01*
G01X11625186Y1230637D01*
G01X11625186Y1318394D01*
G01X11542052Y1318394D01*
G01X11542052Y1401528D01*
G01X11454320Y1401528D01*
G01X11454320Y1318394D01*
G01X11371186Y1318394D01*
G01X11345786Y1318394D01*
G01X11345786Y1343794D01*
G01X11428920Y1343794D01*
G01X11428920Y1426928D01*
G01X11567452Y1426928D01*
G01X11567452Y1343794D01*
G01X11650586Y1343794D01*
G01X11650586Y1205263D01*
G37*
G36*
G01X11650586Y2007500D02*
G01X11580558Y1855100D01*
G01X11650586Y1702700D01*
G01X11498186Y1772728D01*
G01X11345786Y1702700D01*
G01X11369549Y1754414D01*
G01X11397500Y1754414D01*
G01X11487569Y1795816D01*
G01X11498186Y1800693D01*
G01X11508803Y1795816D01*
G01X11598871Y1754414D01*
G01X11557469Y1844483D01*
G01X11552593Y1855100D01*
G01X11557469Y1865717D01*
G01X11598871Y1955786D01*
G01X11508803Y1914384D01*
G01X11498186Y1909507D01*
G01X11487569Y1914384D01*
G01X11397500Y1955786D01*
G01X11438902Y1865717D01*
G01X11443779Y1855100D01*
G01X11443779Y1855100D01*
G01X11438902Y1844483D01*
G01X11397500Y1754414D01*
G01X11369549Y1754414D01*
G01X11415814Y1855100D01*
G01X11345786Y2007500D01*
G01X11498186Y1937472D01*
G01X11650586Y2007500D01*
G37*
G36*
G01X11345786Y3168643D02*
G01X11650586Y3168643D01*
G01X11498186Y2904686D01*
G01X11360451Y3143243D01*
G01X11389779Y3143243D01*
G01X11498186Y2955486D01*
G01X11606593Y3143243D01*
G01X11606593Y3143243D01*
G01X11389779Y3143243D01*
G01X11360451Y3143243D01*
G01X11345786Y3168643D01*
G37*
G36*
G01X11345786Y4329786D02*
G01X11625186Y4329786D01*
G01X11625186Y4050386D01*
G01X11345786Y4050386D01*
G01X11345786Y4304386D01*
G01X11371186Y4304386D01*
G01X11371186Y4075786D01*
G01X11599786Y4075786D01*
G01X11599786Y4304386D01*
G01X11599786Y4304386D01*
G01X11371186Y4304386D01*
G01X11345786Y4304386D01*
G01X11345786Y4329786D01*
G37*

G04 PolygonModel Start*
G54D17*
G01X11055500Y991500D02*
G01X27762677Y991500D01*
G01X11055500Y1572071D02*
G01X27762677Y1572071D01*
G01X11055500Y2152643D02*
G01X27762677Y2152643D01*
G01X11055500Y2733214D02*
G01X27762677Y2733214D01*
G01X11055500Y3313786D02*
G01X27762677Y3313786D01*
G01X11055500Y3894357D02*
G01X27762677Y3894357D01*
G01X11055500Y4474928D02*
G01X27762677Y4474928D01*
G01X11055500Y5055500D02*
G01X27762677Y5055500D01*
G01X11055500Y5055500D02*
G01X11055500Y1016900D01*
G01X12506929Y5055500D02*
G01X12506929Y1016900D01*
G01X13921092Y5055500D02*
G01X13921092Y1016900D01*
G01X17803373Y5055500D02*
G01X17803373Y1016900D01*
G01X19264780Y5055500D02*
G01X19264780Y1016900D01*
G01X20695961Y5055500D02*
G01X20695961Y1016900D01*
G01X22365140Y5055500D02*
G01X22365140Y1016900D01*
G01X24284509Y5055500D02*
G01X24284509Y1016900D01*
G01X27762677Y5055500D02*
G01X27762677Y1016900D01*

M02*

