G04 Layer: TopSilkscreenLayer*
G04 EasyEDA Pro v3.2.148, 2026-06-10 18:48:27*
G04 Gerber Generator version 0.3*
G04 Scale: 100 percent, Rotated: No, Reflected: No*
G04 Dimensions in millimeters*
G04 Leading zeros omitted, absolute positions, 4 integers and 5 decimals*
G04 Generated by one-click*
G04 Object Configs: Pad,Via,Track,Text,Image,Dimension,BoardOutline,BoardCutout,CopperFilled,SolidRegion,FPCStiffener,Line,PlaneZone,ComponentProperty,ComponentSilkscreen,TearDrop*
G04 Layer Configs: 1,2,3,4,5,6,7,8,9,10,11,13,14,71,56*
G04 Copper Areas: 0*
%FSLAX45Y45*%
%MOMM*%
%ADD10C,0.127*%
%ADD11C,0.1*%
%ADD12C,0.254*%
%ADD13C,0.5*%
%ADD14C,0.9487*%
G75*


G04 Image Start*
G36*
G01X7621744Y2074120D02*
G01X7619666Y2073925D01*
G01X7611592Y2074961D01*
G01X7595416Y2077127D01*
G01X7573007Y2079645D01*
G01X7562108Y2080977D01*
G01X7552279Y2082559D01*
G01X7544598Y2084194D01*
G01X7540144Y2085681D01*
G01X7512270Y2098765D01*
G01X7495438Y2106839D01*
G01X7489234Y2110184D01*
G01X7485667Y2112468D01*
G01X7482344Y2114539D01*
G01X7476801Y2117302D01*
G01X7462145Y2123465D01*
G01X7445107Y2130192D01*
G01X7430515Y2136383D01*
G01X7424316Y2138820D01*
G01X7416939Y2141159D01*
G01X7409308Y2143135D01*
G01X7402347Y2144483D01*
G01X7394671Y2146098D01*
G01X7385094Y2148803D01*
G01X7374837Y2152220D01*
G01X7365122Y2155973D01*
G01X7346891Y2163169D01*
G01X7333824Y2167554D01*
G01X7324251Y2170764D01*
G01X7314419Y2175137D01*
G01X7306232Y2178810D01*
G01X7302875Y2179928D01*
G01X7300613Y2180338D01*
G01X7295786Y2181971D01*
G01X7285444Y2186418D01*
G01X7254294Y2201037D01*
G01X7215088Y2219505D01*
G01X7198642Y2226741D01*
G01X7184289Y2232651D01*
G01X7172018Y2237238D01*
G01X7161820Y2240505D01*
G01X7153685Y2242458D01*
G01X7147603Y2243099D01*
G01X7145039Y2243482D01*
G01X7141529Y2244534D01*
G01X7133519Y2248002D01*
G01X7124129Y2252917D01*
G01X7079590Y2257939D01*
G01X6845580Y2252785D01*
G01X6798633Y2248081D01*
G01X6755823Y2244165D01*
G01X6718824Y2241356D01*
G01X6687340Y2238636D01*
G01X6657793Y2234933D01*
G01X6629625Y2230531D01*
G01X6538060Y2230506D01*
G01X6529472Y2217839D01*
G01X6315764Y2214791D01*
G01X6289258Y2205422D01*
G01X6196967Y2205422D01*
G01X6177373Y2199151D01*
G01X6168887Y2196716D01*
G01X6160266Y2194722D01*
G01X6152518Y2193375D01*
G01X6146651Y2192880D01*
G01X6135524Y2192880D01*
G01X6121853Y2205746D01*
G01X6089488Y2201445D01*
G01X6091304Y2188760D01*
G01X6073176Y2182645D01*
G01X6063136Y2195756D01*
G01X6033403Y2192835D01*
G01X6005049Y2190742D01*
G01X5978632Y2189811D01*
G01X5967428Y2189525D01*
G01X5955433Y2188822D01*
G01X5944082Y2187808D01*
G01X5934815Y2186588D01*
G01X5919745Y2185127D01*
G01X5892593Y2183456D01*
G01X5857210Y2181781D01*
G01X5817449Y2180308D01*
G01X5777811Y2178844D01*
G01X5742764Y2177194D01*
G01X5716110Y2175561D01*
G01X5701647Y2174146D01*
G01X5688666Y2172711D01*
G01X5666046Y2171022D01*
G01X5604624Y2167725D01*
G01X5539065Y2164386D01*
G01X5511967Y2162652D01*
G01X5493517Y2161161D01*
G01X5474203Y2159721D01*
G01X5444751Y2158125D01*
G01X5371456Y2155242D01*
G01X5294023Y2152313D01*
G01X5235311Y2149167D01*
G01X5208305Y2147642D01*
G01X5168324Y2145928D01*
G01X5070998Y2142773D01*
G01X4952066Y2139677D01*
G01X4861303Y2130651D01*
G01X4679776Y2126542D01*
G01X4642219Y2120181D01*
G01X4369928Y2115290D01*
G01X4358974Y2111660D01*
G01X4352080Y2109895D01*
G01X4341409Y2107772D01*
G01X4314559Y2103524D01*
G01X4281099Y2099018D01*
G01X4175882Y2097402D01*
G01X4116028Y2106041D01*
G01X4081989Y2095880D01*
G01X4031913Y2092748D01*
G01X3971432Y2089170D01*
G01X3914818Y2086235D01*
G01X3862489Y2083953D01*
G01X3814865Y2082338D01*
G01X3772366Y2081401D01*
G01X3735411Y2081154D01*
G01X3704420Y2081609D01*
G01X3679813Y2082777D01*
G01X3646950Y2085139D01*
G01X3489449Y2079433D01*
G01X3449268Y2087474D01*
G01X3434069Y2090722D01*
G01X3419880Y2094173D01*
G01X3406733Y2097803D01*
G01X3394664Y2101594D01*
G01X3383706Y2105522D01*
G01X3373892Y2109568D01*
G01X3365258Y2113710D01*
G01X3357836Y2117927D01*
G01X3351660Y2122198D01*
G01X3346765Y2126501D01*
G01X3343184Y2130816D01*
G01X3340951Y2135121D01*
G01X3340100Y2139395D01*
G01X3340665Y2143618D01*
G01X3342679Y2147767D01*
G01X3346178Y2151823D01*
G01X3353688Y2158891D01*
G01X3387647Y2163291D01*
G01X3415309Y2167313D01*
G01X3434126Y2170804D01*
G01X3446645Y2173917D01*
G01X3529862Y2174067D01*
G01X3568706Y2183422D01*
G01X3650080Y2186871D01*
G01X3718123Y2190096D01*
G01X3767447Y2193007D01*
G01X3824125Y2195828D01*
G01X3909851Y2198837D01*
G01X3953022Y2200307D01*
G01X3991900Y2201989D01*
G01X4022226Y2203673D01*
G01X4039737Y2205154D01*
G01X4064130Y2207926D01*
G01X4089813Y2210134D01*
G01X4116532Y2212847D01*
G01X4143412Y2216833D01*
G01X4170408Y2221726D01*
G01X4241607Y2215294D01*
G01X4255691Y2218060D01*
G01X4262873Y2219145D01*
G01X4272015Y2220054D01*
G01X4291483Y2220963D01*
G01X4304372Y2221499D01*
G01X4323421Y2222858D01*
G01X4369727Y2227223D01*
G01X4431721Y2232994D01*
G01X4501379Y2238269D01*
G01X4597233Y2245241D01*
G01X4684481Y2252781D01*
G01X4720837Y2256383D01*
G01X4750192Y2259670D01*
G01X4770930Y2262490D01*
G01X4777563Y2263677D01*
G01X4781435Y2264689D01*
G01X4787706Y2266000D01*
G01X4798954Y2267358D01*
G01X4813585Y2268605D01*
G01X4830005Y2269580D01*
G01X4870999Y2271858D01*
G01X4910366Y2274692D01*
G01X4943980Y2277748D01*
G01X4967715Y2280693D01*
G01X5029998Y2290163D01*
G01X5073502Y2296638D01*
G01X5099716Y2312029D01*
G01X5159477Y2312029D01*
G01X5191876Y2301546D01*
G01X5208420Y2307375D01*
G01X5215170Y2335148D01*
G01X5232065Y2339675D01*
G01X5262560Y2337057D01*
G01X5274911Y2336183D01*
G01X5286346Y2335747D01*
G01X5296748Y2335741D01*
G01X5306002Y2336156D01*
G01X5313991Y2336985D01*
G01X5320598Y2338218D01*
G01X5325708Y2339848D01*
G01X5329204Y2341865D01*
G01X5334805Y2345329D01*
G01X5341678Y2348162D01*
G01X5345625Y2349834D01*
G01X5350623Y2352624D01*
G01X5356029Y2356144D01*
G01X5361205Y2360004D01*
G01X5372953Y2369462D01*
G01X5409013Y2369924D01*
G01X5440082Y2354358D01*
G01X5442327Y2345535D01*
G01X5445008Y2337981D01*
G01X5446676Y2334654D01*
G01X5448301Y2332209D01*
G01X5452032Y2327706D01*
G01X5469564Y2327706D01*
G01X5498760Y2350032D01*
G01X5508086Y2347980D01*
G01X5517139Y2345242D01*
G01X5525808Y2341540D01*
G01X5529774Y2339671D01*
G01X5533589Y2338359D01*
G01X5537442Y2337606D01*
G01X5541521Y2337417D01*
G01X5546015Y2337797D01*
G01X5551112Y2338749D01*
G01X5563870Y2342387D01*
G01X5580172Y2347661D01*
G01X5586096Y2343955D01*
G01X5589149Y2342516D01*
G01X5593081Y2341337D01*
G01X5597386Y2340541D01*
G01X5601556Y2340248D01*
G01X5611092Y2340248D01*
G01X5617268Y2343384D01*
G01X5748594Y2343384D01*
G01X5754495Y2343384D01*
G01X5758639Y2344123D01*
G01X5764179Y2346158D01*
G01X5770643Y2349212D01*
G01X5777559Y2353010D01*
G01X5784453Y2357275D01*
G01X5790854Y2361732D01*
G01X5795808Y2365719D01*
G01X6296789Y2365719D01*
G01X6299934Y2353671D01*
G01X6299934Y2353671D01*
G01X6397945Y2349180D01*
G01X6415915Y2369328D01*
G01X6412454Y2390696D01*
G01X6398113Y2402673D01*
G01X6509129Y2402673D01*
G01X6509129Y2375194D01*
G01X6525622Y2362197D01*
G01X6525622Y2362197D01*
G01X6575051Y2362197D01*
G01X6576806Y2366781D01*
G01X6577977Y2368716D01*
G01X6579866Y2370596D01*
G01X6582213Y2372208D01*
G01X6584757Y2373334D01*
G01X6590951Y2375304D01*
G01X6602412Y2364913D01*
G01X6625783Y2368170D01*
G01X6635569Y2369792D01*
G01X6644937Y2371800D01*
G01X6652824Y2373939D01*
G01X6658168Y2375954D01*
G01X6663376Y2377965D01*
G01X6670893Y2380094D01*
G01X6679712Y2382087D01*
G01X6688828Y2383689D01*
G01X6710473Y2386896D01*
G01X6725706Y2402157D01*
G01X6714427Y2415355D01*
G01X6667182Y2425601D01*
G01X6653098Y2433434D01*
G01X6646025Y2436819D01*
G01X6637176Y2440247D01*
G01X6627682Y2443316D01*
G01X6618672Y2445628D01*
G01X6608053Y2447751D01*
G01X6599209Y2449114D01*
G01X6591818Y2449676D01*
G01X6585561Y2449400D01*
G01X6580118Y2448246D01*
G01X6575167Y2446175D01*
G01X6570390Y2443147D01*
G01X6565465Y2439124D01*
G01X6556119Y2431804D01*
G01X6545833Y2425219D01*
G01X6536504Y2420464D01*
G01X6532791Y2419115D01*
G01X6530028Y2418636D01*
G01X6527471Y2418006D01*
G01X6524181Y2416291D01*
G01X6520581Y2413753D01*
G01X6517095Y2410654D01*
G01X6509129Y2402673D01*
G01X6398113Y2402673D01*
G01X6398022Y2402749D01*
G01X6388632Y2402491D01*
G01X6383505Y2401816D01*
G01X6376485Y2400167D01*
G01X6368497Y2397794D01*
G01X6360465Y2394943D01*
G01X6341686Y2387653D01*
G01X6317691Y2387281D01*
G01X6296789Y2365719D01*
G01X5795808Y2365719D01*
G01X5796289Y2366105D01*
G01X5800286Y2370119D01*
G01X5805735Y2375037D01*
G01X5814370Y2381504D01*
G01X5820270Y2386016D01*
G01X5828276Y2392703D01*
G01X5846399Y2408995D01*
G01X5867325Y2428725D01*
G01X6318572Y2428725D01*
G01X6323357Y2410797D01*
G01X6328815Y2409743D01*
G01X6332215Y2409945D01*
G01X6337436Y2411273D01*
G01X6343768Y2413509D01*
G01X6350498Y2416431D01*
G01X6379243Y2429312D01*
G01X6391762Y2434452D01*
G01X6432449Y2432745D01*
G01X6451228Y2440715D01*
G01X6457338Y2450840D01*
G01X6462799Y2460516D01*
G01X6467348Y2469563D01*
G01X6471249Y2478161D01*
G01X6466594Y2493863D01*
G01X6464580Y2499960D01*
G01X6462535Y2504952D01*
G01X6460699Y2508326D01*
G01X6459311Y2509565D01*
G01X6457984Y2510306D01*
G01X6456313Y2512325D01*
G01X6454513Y2515313D01*
G01X6452797Y2518962D01*
G01X6448912Y2528358D01*
G01X6433236Y2533022D01*
G01X6421134Y2537063D01*
G01X6414051Y2540229D01*
G01X6406056Y2544210D01*
G01X6391762Y2550210D01*
G01X6376307Y2557151D01*
G01X6369899Y2560576D01*
G01X6365520Y2563394D01*
G01X6360562Y2566921D01*
G01X6356549Y2569011D01*
G01X6353358Y2569555D01*
G01X6352034Y2569214D01*
G01X6350870Y2568445D01*
G01X6348966Y2565571D01*
G01X6347525Y2560825D01*
G01X6346427Y2554098D01*
G01X6345553Y2545281D01*
G01X6344254Y2529261D01*
G01X6324916Y2504862D01*
G01X6318572Y2428725D01*
G01X6318572Y2428725D01*
G01X5867325Y2428725D01*
G01X5867525Y2428913D01*
G01X5867525Y2455494D01*
G01X5859634Y2462054D01*
G01X5853408Y2458570D01*
G01X5850496Y2456586D01*
G01X5847172Y2453759D01*
G01X5840922Y2447085D01*
G01X5830985Y2436035D01*
G01X5815884Y2420707D01*
G01X5772849Y2378378D01*
G01X5748594Y2354425D01*
G01X5748594Y2343384D01*
G01X5748594Y2343384D01*
G01X5617268Y2343384D01*
G01X5641308Y2355588D01*
G01X5646792Y2367515D01*
G01X5650066Y2373827D01*
G01X5654928Y2382196D01*
G01X5666790Y2400744D01*
G01X5678935Y2418943D01*
G01X5682860Y2425362D01*
G01X5685623Y2430561D01*
G01X5687424Y2434963D01*
G01X5688467Y2438994D01*
G01X5688952Y2443078D01*
G01X5689082Y2447639D01*
G01X5688929Y2455609D01*
G01X5688254Y2457663D01*
G01X5687635Y2458220D01*
G01X5686777Y2458468D01*
G01X5684197Y2458054D01*
G01X5680210Y2456449D01*
G01X5666814Y2449785D01*
G01X5653106Y2443287D01*
G01X5648714Y2441537D01*
G01X5646838Y2441163D01*
G01X5645803Y2443460D01*
G01X5644301Y2448320D01*
G01X5640641Y2462577D01*
G01X5637350Y2477640D01*
G01X5635922Y2487213D01*
G01X5635922Y2493743D01*
G01X5651855Y2504201D01*
G01X5700680Y2500429D01*
G01X5711337Y2506152D01*
G01X5716463Y2509356D01*
G01X5722541Y2513849D01*
G01X5728811Y2519035D01*
G01X5734512Y2524318D01*
G01X5747029Y2536762D01*
G01X5779891Y2540752D01*
G01X5805376Y2543239D01*
G01X5814899Y2543738D01*
G01X5820500Y2543615D01*
G01X5828246Y2542488D01*
G01X5831477Y2536217D01*
G01X5833719Y2532436D01*
G01X5836577Y2528529D01*
G01X5843701Y2520758D01*
G01X5851965Y2513754D01*
G01X5856247Y2510805D01*
G01X5860483Y2508366D01*
G01X5870655Y2503133D01*
G01X5870703Y2493023D01*
G01X5871449Y2484760D01*
G01X5872231Y2481372D01*
G01X5873176Y2479089D01*
G01X5875601Y2475265D01*
G01X5893522Y2480067D01*
G01X5898018Y2494032D01*
G01X5899804Y2500558D01*
G01X5901341Y2508002D01*
G01X5902466Y2515449D01*
G01X5903016Y2521981D01*
G01X5903518Y2535964D01*
G01X5924787Y2550326D01*
G01X5936061Y2550374D01*
G01X5940876Y2550480D01*
G01X5944775Y2550897D01*
G01X5948055Y2551846D01*
G01X5951012Y2553547D01*
G01X5953941Y2556221D01*
G01X5957139Y2560086D01*
G01X5965528Y2572275D01*
G01X5975543Y2586890D01*
G01X5983621Y2597813D01*
G01X5990318Y2606107D01*
G01X5991737Y2638575D01*
G01X5992545Y2652009D01*
G01X5993695Y2664586D01*
G01X5995033Y2674897D01*
G01X5996407Y2681532D01*
G01X5999658Y2692020D01*
G01X5988462Y2716894D01*
G01X5967062Y2725852D01*
G01X5927920Y2726702D01*
G01X5920067Y2722389D01*
G01X5908652Y2715567D01*
G01X5897448Y2707895D01*
G01X5887606Y2700214D01*
G01X5880281Y2693366D01*
G01X5872694Y2685153D01*
G01X5860732Y2685153D01*
G01X5854574Y2684628D01*
G01X5846650Y2683199D01*
G01X5837980Y2681084D01*
G01X5829588Y2678501D01*
G01X5810404Y2671850D01*
G01X5784976Y2674151D01*
G01X5765847Y2675392D01*
G01X5746253Y2675769D01*
G01X5726824Y2675338D01*
G01X5708191Y2674151D01*
G01X5690985Y2672263D01*
G01X5675835Y2669728D01*
G01X5663372Y2666600D01*
G01X5658345Y2664830D01*
G01X5654227Y2662933D01*
G01X5646876Y2658975D01*
G01X5565502Y2654066D01*
G01X5549853Y2648307D01*
G01X5536663Y2643060D01*
G01X5526927Y2638530D01*
G01X5522206Y2636769D01*
G01X5514732Y2634945D01*
G01X5505531Y2633273D01*
G01X5495630Y2631968D01*
G01X5476366Y2629259D01*
G01X5468718Y2627726D01*
G01X5463784Y2626321D01*
G01X5459166Y2624933D01*
G01X5452376Y2623449D01*
G01X5435934Y2620901D01*
G01X5427145Y2619540D01*
G01X5418019Y2617548D01*
G01X5409635Y2615194D01*
G01X5403071Y2612743D01*
G01X5390235Y2606903D01*
G01X5348038Y2606765D01*
G01X5323755Y2598482D01*
G01X5305685Y2591953D01*
G01X5296341Y2587889D01*
G01X5293457Y2586818D01*
G01X5287917Y2585610D01*
G01X5272057Y2583377D01*
G01X5250902Y2581176D01*
G01X5246236Y2576501D01*
G01X5243272Y2572791D01*
G01X5242442Y2570924D01*
G01X5242038Y2568938D01*
G01X5242052Y2566751D01*
G01X5242475Y2564282D01*
G01X5244520Y2558165D01*
G01X5247030Y2551894D01*
G01X5238691Y2535446D01*
G01X5231524Y2533522D01*
G01X5226481Y2532772D01*
G01X5218047Y2532151D01*
G01X5195710Y2531556D01*
G01X5167063Y2531513D01*
G01X5148223Y2507997D01*
G01X5038742Y2508784D01*
G01X5024223Y2518971D01*
G01X5013810Y2518971D01*
G01X5009092Y2518622D01*
G01X5003942Y2517669D01*
G01X4998985Y2516260D01*
G01X4994841Y2514539D01*
G01X4986286Y2510107D01*
G01X4858173Y2507243D01*
G01X4830005Y2494638D01*
G01X4807764Y2492715D01*
G01X4798074Y2491596D01*
G01X4788131Y2489969D01*
G01X4779104Y2488054D01*
G01X4772161Y2486069D01*
G01X4760909Y2482733D01*
G01X4756075Y2481718D01*
G01X4752623Y2481345D01*
G01X4749447Y2481003D01*
G01X4745364Y2480072D01*
G01X4736585Y2477009D01*
G01X4726722Y2472673D01*
G01X4642219Y2465890D01*
G01X4629699Y2461305D01*
G01X4616730Y2456849D01*
G01X4602802Y2452630D01*
G01X4587930Y2448650D01*
G01X4572125Y2444913D01*
G01X4555398Y2441420D01*
G01X4537763Y2438175D01*
G01X4519231Y2435180D01*
G01X4499814Y2432438D01*
G01X4483431Y2429474D01*
G01X4463821Y2424951D01*
G01X4438236Y2418968D01*
G01X4407486Y2412493D01*
G01X4376276Y2405970D01*
G01X4349585Y2399870D01*
G01X4323460Y2393844D01*
G01X4299382Y2389482D01*
G01X4272518Y2386041D01*
G01X4238036Y2382783D01*
G01X4217950Y2380852D01*
G01X4200604Y2378789D01*
G01X4187852Y2376843D01*
G01X4181547Y2375259D01*
G01X4177635Y2373858D01*
G01X4171399Y2372411D01*
G01X4163696Y2371088D01*
G01X4155385Y2370060D01*
G01X4146558Y2368939D01*
G01X4137449Y2367363D01*
G01X4129130Y2365541D01*
G01X4122676Y2363683D01*
G01X4108138Y2359693D01*
G01X4090766Y2356249D01*
G01X4075388Y2353188D01*
G01X4069400Y2351555D01*
G01X4065644Y2350121D01*
G01X4061496Y2348659D01*
G01X4054438Y2346953D01*
G01X4035542Y2343652D01*
G01X4016756Y2340409D01*
G01X4009816Y2338766D01*
G01X4005811Y2337382D01*
G01X4002131Y2335987D01*
G01X3996074Y2334314D01*
G01X3980189Y2330973D01*
G01X3939584Y2323106D01*
G01X3917709Y2318958D01*
G01X3893684Y2315071D01*
G01X3868126Y2311368D01*
G01X3857159Y2314994D01*
G01X3852618Y2316744D01*
G01X3848361Y2318826D01*
G01X3844866Y2320980D01*
G01X3842610Y2322945D01*
G01X3839027Y2327269D01*
G01X3845220Y2330589D01*
G01X3850903Y2333158D01*
G01X3858922Y2336134D01*
G01X3879220Y2342520D01*
G01X3900632Y2348164D01*
G01X3910043Y2350213D01*
G01X3917676Y2351485D01*
G01X3930154Y2353731D01*
G01X3935838Y2355321D01*
G01X3941233Y2357255D01*
G01X3946399Y2359556D01*
G01X3951397Y2362250D01*
G01X3956288Y2365360D01*
G01X3961132Y2368911D01*
G01X3968596Y2374739D01*
G01X3989321Y2374739D01*
G01X3998231Y2375008D01*
G01X4007169Y2375742D01*
G01X4015098Y2376828D01*
G01X4020979Y2378153D01*
G01X4031651Y2380664D01*
G01X4048794Y2383323D01*
G01X4074324Y2386387D01*
G01X4110157Y2390113D01*
G01X4123440Y2391738D01*
G01X4138785Y2394091D01*
G01X4154290Y2396855D01*
G01X4168058Y2399717D01*
G01X4195492Y2405514D01*
G01X4219699Y2409900D01*
G01X4229066Y2411672D01*
G01X4238376Y2413997D01*
G01X4246551Y2416571D01*
G01X4252515Y2419095D01*
G01X4263423Y2424907D01*
G01X4305924Y2424907D01*
G01X4341543Y2437448D01*
G01X4369928Y2437487D01*
G01X4378553Y2441994D01*
G01X4388010Y2445889D01*
G01X4401258Y2449892D01*
G01X4417286Y2453816D01*
G01X4435084Y2457469D01*
G01X4453642Y2460661D01*
G01X4471949Y2463201D01*
G01X4488994Y2464901D01*
G01X4503769Y2465569D01*
G01X4509986Y2465839D01*
G01X4515894Y2466503D01*
G01X4520825Y2467459D01*
G01X4524112Y2468609D01*
G01X4546962Y2479400D01*
G01X4564377Y2487249D01*
G01X4589214Y2489219D01*
G01X4599722Y2490316D01*
G01X4609973Y2491850D01*
G01X4618792Y2493616D01*
G01X4625005Y2495410D01*
G01X4637632Y2499942D01*
G01X4650592Y2503946D01*
G01X4663783Y2507400D01*
G01X4677101Y2510285D01*
G01X4690445Y2512582D01*
G01X4703711Y2514270D01*
G01X4716797Y2515329D01*
G01X4729600Y2515739D01*
G01X4744997Y2515836D01*
G01X4774982Y2526358D01*
G01X4802508Y2535316D01*
G01X4826582Y2542078D01*
G01X4848198Y2547275D01*
G01X4853185Y2542774D01*
G01X4855764Y2540866D01*
G01X4859098Y2538998D01*
G01X4862756Y2537384D01*
G01X4866309Y2536239D01*
G01X4874444Y2534206D01*
G01X4878475Y2543954D01*
G01X4880308Y2547806D01*
G01X4882399Y2551084D01*
G01X4884775Y2553806D01*
G01X4887464Y2555990D01*
G01X4890495Y2557656D01*
G01X4893895Y2558822D01*
G01X4897692Y2559508D01*
G01X4901916Y2559733D01*
G01X4906818Y2560093D01*
G01X4914100Y2561081D01*
G01X4932964Y2564393D01*
G01X4952829Y2568570D01*
G01X4968013Y2572514D01*
G01X4977700Y2575576D01*
G01X4981586Y2582850D01*
G01X4984432Y2586576D01*
G01X4989309Y2591346D01*
G01X4995534Y2596546D01*
G01X5002422Y2601560D01*
G01X5019374Y2612998D01*
G01X5068452Y2611468D01*
G01X5093873Y2634427D01*
G01X5109038Y2634399D01*
G01X5116772Y2634165D01*
G01X5124134Y2633489D01*
G01X5131140Y2632367D01*
G01X5137807Y2630793D01*
G01X5144154Y2628763D01*
G01X5150196Y2626273D01*
G01X5155950Y2623317D01*
G01X5161435Y2619890D01*
G01X5173627Y2611550D01*
G01X5181220Y2612547D01*
G01X5185200Y2613403D01*
G01X5190424Y2614998D01*
G01X5201890Y2619492D01*
G01X5214967Y2625440D01*
G01X5278444Y2625578D01*
G01X5305731Y2637982D01*
G01X5340158Y2638159D01*
G01X5348797Y2642673D01*
G01X5355249Y2645028D01*
G01X5365775Y2647752D01*
G01X5379178Y2650637D01*
G01X5394262Y2653470D01*
G01X5424686Y2658138D01*
G01X5437633Y2659551D01*
G01X5447474Y2660069D01*
G01X5463018Y2660069D01*
G01X5470810Y2650662D01*
G01X5486270Y2650662D01*
G01X5502186Y2663204D01*
G01X5537787Y2663204D01*
G01X5572969Y2682294D01*
G01X5585790Y2674272D01*
G01X5595590Y2688288D01*
G01X5603337Y2688288D01*
G01X5607177Y2688636D01*
G01X5611906Y2689585D01*
G01X5616923Y2690988D01*
G01X5621629Y2692702D01*
G01X5627538Y2694697D01*
G01X5635832Y2696868D01*
G01X5645411Y2698952D01*
G01X5655173Y2700686D01*
G01X5675224Y2704502D01*
G01X5684287Y2706670D01*
G01X5691134Y2708661D01*
G01X5705214Y2712424D01*
G01X5720867Y2715285D01*
G01X5737639Y2717505D01*
G01X5741658Y2722493D01*
G01X5746630Y2730622D01*
G01X5752943Y2743159D01*
G01X5756241Y2749670D01*
G01X5759849Y2755807D01*
G01X5763331Y2760881D01*
G01X5766250Y2764201D01*
G01X5772290Y2769566D01*
G01X5801911Y2766181D01*
G01X5823915Y2763532D01*
G01X5830706Y2762360D01*
G01X5835414Y2761005D01*
G01X5838579Y2759253D01*
G01X5840743Y2756889D01*
G01X5842448Y2753701D01*
G01X5844235Y2749474D01*
G01X5848830Y2738456D01*
G01X5854863Y2738456D01*
G01X5857899Y2738658D01*
G01X5860158Y2739297D01*
G01X5861652Y2740427D01*
G01X5862389Y2742100D01*
G01X5862380Y2744368D01*
G01X5861633Y2747284D01*
G01X5857968Y2755266D01*
G01X5851791Y2766812D01*
G01X5853894Y2775366D01*
G01X5855245Y2779937D01*
G01X5856968Y2784250D01*
G01X5859021Y2788245D01*
G01X5861360Y2791861D01*
G01X5863942Y2795041D01*
G01X5866722Y2797722D01*
G01X5869659Y2799846D01*
G01X5872707Y2801351D01*
G01X5879925Y2804101D01*
G01X5877918Y2809688D01*
G01X5876685Y2812300D01*
G01X5874810Y2815282D01*
G01X5873761Y2816544D01*
G01X5936823Y2816544D01*
G01X5936908Y2814369D01*
G01X5937673Y2811592D01*
G01X5937673Y2811592D01*
G01X5939537Y2805869D01*
G01X5975502Y2788615D01*
G01X6010102Y2788624D01*
G01X6015390Y2792334D01*
G01X6187179Y2792334D01*
G01X6195166Y2790326D01*
G01X6199819Y2789738D01*
G01X6199819Y2789738D01*
G01X6206691Y2789597D01*
G01X6224203Y2790429D01*
G01X6241922Y2792368D01*
G01X6249054Y2793610D01*
G01X6254070Y2794958D01*
G01X6260347Y2797292D01*
G01X6285350Y2792979D01*
G01X6299434Y2801887D01*
G01X6299434Y2819979D01*
G01X6292392Y2819958D01*
G01X6288917Y2819459D01*
G01X6284660Y2818114D01*
G01X6280162Y2816128D01*
G01X6275961Y2813708D01*
G01X6266571Y2807478D01*
G01X6232144Y2807409D01*
G01X6210881Y2807077D01*
G01X6203760Y2806580D01*
G01X6198506Y2805754D01*
G01X6194767Y2804518D01*
G01X6192187Y2802790D01*
G01X6190413Y2800489D01*
G01X6189089Y2797534D01*
G01X6187179Y2792334D01*
G01X6015390Y2792334D01*
G01X6025539Y2799456D01*
G01X6075159Y2802734D01*
G01X6076329Y2806289D01*
G01X6076544Y2808610D01*
G01X6075738Y2810941D01*
G01X6074004Y2813218D01*
G01X6071432Y2815378D01*
G01X6068113Y2817356D01*
G01X6064140Y2819088D01*
G01X6059602Y2820510D01*
G01X6054591Y2821558D01*
G01X6048586Y2822865D01*
G01X6042113Y2824832D01*
G01X6035950Y2827194D01*
G01X6030877Y2829683D01*
G01X6026523Y2832037D01*
G01X6022648Y2833739D01*
G01X6019101Y2834795D01*
G01X6015729Y2835209D01*
G01X6012379Y2834984D01*
G01X6008899Y2834126D01*
G01X6005136Y2832638D01*
G01X6000937Y2830525D01*
G01X5991944Y2825644D01*
G01X5965635Y2823242D01*
G01X5948652Y2821472D01*
G01X5943331Y2820582D01*
G01X5939765Y2819539D01*
G01X5937685Y2818230D01*
G01X5936823Y2816544D01*
G01X5873761Y2816544D01*
G01X5870154Y2820885D01*
G01X5865999Y2825237D01*
G01X5865111Y2826786D01*
G01X5865082Y2828119D01*
G01X5865964Y2829390D01*
G01X5867805Y2830751D01*
G01X5874567Y2834353D01*
G01X5879349Y2837165D01*
G01X5884724Y2840971D01*
G01X5895744Y2850183D01*
G01X5900634Y2854895D01*
G01X5904606Y2859215D01*
G01X5907282Y2862798D01*
G01X5908286Y2865296D01*
G01X5909297Y2867298D01*
G01X5911994Y2870324D01*
G01X5915967Y2873962D01*
G01X5920805Y2877803D01*
G01X5933250Y2887027D01*
G01X5933250Y2889055D01*
G01X6312186Y2889055D01*
G01X6324565Y2882418D01*
G01X6326559Y2888041D01*
G01X6329135Y2893393D01*
G01X6332528Y2898366D01*
G01X6334241Y2900873D01*
G01X6335967Y2904221D01*
G01X6338652Y2911692D01*
G01X6340800Y2920315D01*
G01X6334983Y2920267D01*
G01X6331614Y2919907D01*
G01X6328552Y2918849D01*
G01X6325748Y2917032D01*
G01X6323155Y2914397D01*
G01X6320724Y2910885D01*
G01X6318407Y2906437D01*
G01X6316154Y2900993D01*
G01X6313918Y2894495D01*
G01X6312186Y2889055D01*
G01X6312186Y2889055D01*
G01X5933250Y2889055D01*
G01X5933250Y2904194D01*
G01X5945315Y2922444D01*
G01X5955434Y2938350D01*
G01X5962385Y2950729D01*
G01X5966392Y2960026D01*
G01X5967361Y2963656D01*
G01X5967678Y2966681D01*
G01X5968664Y2970357D01*
G01X5971348Y2975994D01*
G01X5975321Y2982823D01*
G01X5980172Y2990076D01*
G01X5992666Y3007556D01*
G01X6031838Y3033914D01*
G01X6060672Y3024147D01*
G01X6082472Y3017249D01*
G01X6090221Y3015150D01*
G01X6094395Y3014379D01*
G01X6099283Y3014379D01*
G01X6102400Y3023002D01*
G01X6108225Y3037896D01*
G01X6110931Y3046009D01*
G01X6113637Y3056709D01*
G01X6116342Y3069251D01*
G01X6135662Y3071139D01*
G01X6132781Y3036328D01*
G01X6135813Y3036328D01*
G01X6137461Y3036850D01*
G01X6139706Y3038270D01*
G01X6144807Y3042939D01*
G01X6150770Y3049550D01*
G01X6151769Y3070375D01*
G01X6152518Y3092168D01*
G01X6152916Y3115323D01*
G01X6153065Y3139447D01*
G01X6146523Y3147780D01*
G01X6143831Y3151918D01*
G01X6141337Y3157026D01*
G01X6139320Y3162453D01*
G01X6138058Y3167553D01*
G01X6135402Y3178535D01*
G01X6131716Y3188873D01*
G01X6129997Y3193414D01*
G01X6128585Y3198475D01*
G01X6127625Y3203438D01*
G01X6127263Y3207686D01*
G01X6127230Y3216619D01*
G01X6105388Y3237880D01*
G01X6105388Y3247146D01*
G01X6105728Y3251401D01*
G01X6106654Y3256135D01*
G01X6108025Y3260773D01*
G01X6109699Y3264735D01*
G01X6113559Y3273348D01*
G01X6116783Y3282367D01*
G01X6119555Y3291677D01*
G01X6130467Y3299032D01*
G01X6135400Y3302923D01*
G01X6140762Y3308081D01*
G01X6145908Y3313834D01*
G01X6150189Y3319509D01*
G01X6153780Y3324621D01*
G01X6157202Y3328809D01*
G01X6160791Y3332283D01*
G01X6164884Y3335255D01*
G01X6169817Y3337936D01*
G01X6175926Y3340535D01*
G01X6193022Y3346335D01*
G01X6213365Y3352743D01*
G01X6247793Y3352800D01*
G01X6272831Y3340684D01*
G01X6299048Y3340471D01*
G01X6317440Y3323226D01*
G01X6321184Y3311511D01*
G01X6324628Y3302743D01*
G01X6326298Y3299691D01*
G01X6327649Y3298112D01*
G01X6328580Y3297235D01*
G01X6329429Y3295816D01*
G01X6330883Y3291399D01*
G01X6332004Y3284969D01*
G01X6332785Y3276631D01*
G01X6333219Y3266491D01*
G01X6333299Y3254654D01*
G01X6332369Y3226313D01*
G01X6330133Y3184490D01*
G01X6302070Y3141367D01*
G01X6303702Y3122554D01*
G01X6304697Y3114383D01*
G01X6306201Y3106044D01*
G01X6308009Y3098512D01*
G01X6309917Y3092767D01*
G01X6314501Y3081793D01*
G01X6311033Y3051066D01*
G01X6314801Y3053398D01*
G01X6316867Y3054153D01*
G01X6319708Y3054481D01*
G01X6322949Y3054371D01*
G01X6326215Y3053809D01*
G01X6333861Y3051886D01*
G01X6333861Y3022046D01*
G01X6329483Y3015783D01*
G01X6326826Y3010675D01*
G01X6324973Y3004350D01*
G01X6324036Y2997340D01*
G01X6324126Y2990178D01*
G01X6324472Y2986357D01*
G01X6329949Y2988213D01*
G01X6332614Y2989566D01*
G01X6335822Y2991878D01*
G01X6339170Y2994825D01*
G01X6342252Y2998084D01*
G01X6349078Y3006100D01*
G01X6385503Y2999470D01*
G01X6392393Y3002086D01*
G01X6401211Y3006463D01*
G01X6412736Y3013312D01*
G01X6423831Y3019659D01*
G01X6428446Y3021796D01*
G01X6431613Y3022826D01*
G01X6437036Y3023730D01*
G01X6447107Y3008333D01*
G01X6450303Y2972050D01*
G01X6446918Y2947994D01*
G01X6445250Y2937830D01*
G01X6443209Y2927939D01*
G01X6441054Y2919453D01*
G01X6439043Y2913503D01*
G01X6433914Y2899687D01*
G01X6427890Y2881121D01*
G01X6421501Y2861015D01*
G01X6415495Y2843495D01*
G01X6408413Y2823328D01*
G01X6402528Y2804693D01*
G01X6397521Y2786511D01*
G01X6393071Y2767699D01*
G01X6390362Y2756678D01*
G01X6387146Y2745614D01*
G01X6383826Y2735795D01*
G01X6380803Y2728505D01*
G01X6374845Y2715319D01*
G01X6369848Y2702666D01*
G01X6365537Y2690392D01*
G01X6369126Y2639431D01*
G01X6364013Y2629525D01*
G01X6362028Y2624981D01*
G01X6360402Y2619931D01*
G01X6359303Y2614990D01*
G01X6358900Y2610775D01*
G01X6358900Y2601931D01*
G01X6372201Y2595107D01*
G01X6378378Y2592324D01*
G01X6385362Y2589791D01*
G01X6392297Y2587786D01*
G01X6398325Y2586590D01*
G01X6404612Y2585338D01*
G01X6412052Y2583209D01*
G01X6427936Y2577348D01*
G01X6435152Y2574129D01*
G01X6441066Y2571061D01*
G01X6445064Y2568400D01*
G01X6446153Y2567303D01*
G01X6446533Y2566404D01*
G01X6447167Y2564895D01*
G01X6448893Y2562867D01*
G01X6454565Y2558317D01*
G01X6462597Y2553045D01*
G01X6487391Y2565992D01*
G01X6501755Y2562767D01*
G01X6512014Y2561183D01*
G01X6516460Y2561032D01*
G01X6520318Y2561291D01*
G01X6523491Y2561947D01*
G01X6525879Y2562988D01*
G01X6527384Y2564400D01*
G01X6527907Y2566171D01*
G01X6528834Y2567886D01*
G01X6531355Y2570428D01*
G01X6535087Y2573454D01*
G01X6539644Y2576621D01*
G01X6551381Y2584191D01*
G01X6599492Y2574555D01*
G01X6618937Y2554456D01*
G01X6620236Y2517822D01*
G01X6604587Y2514011D01*
G01X6602681Y2500881D01*
G01X6624104Y2487616D01*
G01X6650419Y2487616D01*
G01X6676743Y2472161D01*
G01X6689161Y2475414D01*
G01X6708792Y2462702D01*
G01X6723593Y2453725D01*
G01X6728824Y2450993D01*
G01X6731611Y2449990D01*
G01X6733761Y2449513D01*
G01X6737261Y2448213D01*
G01X6746372Y2443939D01*
G01X6760522Y2437217D01*
G01X6778289Y2429555D01*
G01X6808495Y2416794D01*
G01X6816507Y2413666D01*
G01X6821921Y2412365D01*
G01X6824221Y2411901D01*
G01X6827849Y2410640D01*
G01X6837097Y2406495D01*
G01X6844816Y2403533D01*
G01X6857250Y2399806D01*
G01X6872682Y2395792D01*
G01X6889396Y2391966D01*
G01X6930083Y2383305D01*
G01X6973900Y2383700D01*
G01X7005611Y2384371D01*
G01X7044152Y2385920D01*
G01X7091383Y2388437D01*
G01X7149168Y2392008D01*
G01X7246470Y2397922D01*
G01X7315046Y2401487D01*
G01X7448229Y2406646D01*
G01X7550852Y2411309D01*
G01X7628568Y2415763D01*
G01X7687035Y2420294D01*
G01X7737843Y2424060D01*
G01X7790317Y2426706D01*
G01X7813816Y2427775D01*
G01X7838130Y2429318D01*
G01X7860390Y2431129D01*
G01X7877730Y2433002D01*
G01X7893119Y2434728D01*
G01X7910067Y2436142D01*
G01X7926518Y2437098D01*
G01X7940416Y2437448D01*
G01X7969349Y2437448D01*
G01X8056312Y2449723D01*
G01X8066103Y2459533D01*
G01X8068158Y2483765D01*
G01X8070744Y2510089D01*
G01X8074078Y2539352D01*
G01X8075623Y2553886D01*
G01X8076972Y2570279D01*
G01X8077981Y2586521D01*
G01X8078503Y2600604D01*
G01X8079064Y2630501D01*
G01X8094359Y2658180D01*
G01X8113282Y2669221D01*
G01X8200772Y2671043D01*
G01X8220289Y2657095D01*
G01X8224092Y2633271D01*
G01X8221111Y2616099D01*
G01X8213295Y2568353D01*
G01X8208460Y2537779D01*
G01X8214755Y2498591D01*
G01X8220098Y2494671D01*
G01X8223123Y2492752D01*
G01X8226082Y2491540D01*
G01X8229069Y2491053D01*
G01X8232177Y2491311D01*
G01X8235503Y2492331D01*
G01X8239138Y2494134D01*
G01X8243179Y2496736D01*
G01X8247718Y2500158D01*
G01X8252188Y2503500D01*
G01X8256277Y2506069D01*
G01X8260073Y2507884D01*
G01X8263664Y2508963D01*
G01X8267139Y2509323D01*
G01X8270584Y2508983D01*
G01X8274089Y2507961D01*
G01X8277742Y2506273D01*
G01X8283881Y2502982D01*
G01X8273077Y2484660D01*
G01X8256002Y2478696D01*
G01X8259528Y2465187D01*
G01X8275409Y2459138D01*
G01X8293100Y2463031D01*
G01X8293060Y2457294D01*
G01X8292300Y2453470D01*
G01X8290260Y2447744D01*
G01X8283563Y2433031D01*
G01X8275417Y2418052D01*
G01X8271565Y2411992D01*
G01X8268269Y2407701D01*
G01X8263647Y2401402D01*
G01X8261803Y2398052D01*
G01X8260605Y2395119D01*
G01X8258975Y2391483D01*
G01X8256274Y2387296D01*
G01X8252801Y2382869D01*
G01X8248853Y2378507D01*
G01X8244727Y2374519D01*
G01X8240721Y2371212D01*
G01X8237132Y2368894D01*
G01X8234258Y2367872D01*
G01X8204760Y2367315D01*
G01X8141306Y2366809D01*
G01X8053672Y2366341D01*
G01X8042718Y2362619D01*
G01X8035872Y2360930D01*
G01X8025328Y2359084D01*
G01X8012526Y2357304D01*
G01X7998901Y2355813D01*
G01X7969256Y2352315D01*
G01X7955230Y2350223D01*
G01X7944130Y2348233D01*
G01X7924519Y2344400D01*
G01X7904340Y2340868D01*
G01X7882935Y2337552D01*
G01X7859643Y2334366D01*
G01X7804766Y2328050D01*
G01X7734435Y2321241D01*
G01X7704145Y2318123D01*
G01X7679664Y2315037D01*
G01X7632718Y2308741D01*
G01X7608413Y2305524D01*
G01X7587336Y2302329D01*
G01X7566719Y2299165D01*
G01X7543519Y2296024D01*
G01X7516642Y2292080D01*
G01X7487183Y2286984D01*
G01X7458689Y2282194D01*
G01X7434131Y2278986D01*
G01X7416475Y2276643D01*
G01X7409320Y2275251D01*
G01X7404574Y2273932D01*
G01X7397209Y2272424D01*
G01X7382923Y2270516D01*
G01X7341825Y2266475D01*
G01X7306971Y2263190D01*
G01X7281319Y2259755D01*
G01X7271805Y2257957D01*
G01X7264426Y2256093D01*
G01X7259125Y2254155D01*
G01X7255848Y2252132D01*
G01X7252985Y2249542D01*
G01X7265066Y2238456D01*
G01X7274507Y2230627D01*
G01X7278087Y2228245D01*
G01X7280242Y2227370D01*
G01X7286165Y2225611D01*
G01X7296061Y2221381D01*
G01X7332259Y2205500D01*
G01X7365122Y2191372D01*
G01X7394855Y2178717D01*
G01X7427717Y2164605D01*
G01X7441616Y2159009D01*
G01X7457450Y2153553D01*
G01X7476561Y2147379D01*
G01X7494209Y2141231D01*
G01X7509734Y2135347D01*
G01X7522477Y2129968D01*
G01X7533515Y2125678D01*
G01X7538105Y2124371D01*
G01X7541256Y2123887D01*
G01X7544091Y2123446D01*
G01X7547823Y2122254D01*
G01X7551967Y2120492D01*
G01X7556038Y2118343D01*
G01X7568186Y2112236D01*
G01X7584206Y2105321D01*
G01X7602985Y2097832D01*
G01X7613157Y2086955D01*
G01X7620325Y2078975D01*
G01X7622058Y2076526D01*
G01X7622536Y2074947D01*
G01X7621744Y2074120D01*
G37*
G04 Image End*

G04 Text Start*
G36*
G01X3090718Y3050771D02*
G01X3090256Y2935316D01*
G01X3076402Y2935778D01*
G01X3063009Y2935778D01*
G01X3063009Y3166687D01*
G01X3090718Y3166687D01*
G01X3090718Y3050771D01*
G37*
G36*
G01X3861031Y2935778D02*
G01X3861031Y3101109D01*
G01X3888740Y3101109D01*
G01X3888740Y3093720D01*
G01X3889202Y3084946D01*
G01X3890010Y3084253D01*
G01X3891511Y3084946D01*
G01X3897976Y3089564D01*
G01X3902133Y3092334D01*
G01X3905827Y3094644D01*
G01X3912293Y3098338D01*
G01X3916449Y3100186D01*
G01X3921529Y3102033D01*
G01X3925224Y3103418D01*
G01X3933536Y3105266D01*
G01X3942773Y3105727D01*
G01X3953856Y3105266D01*
G01X3958474Y3104342D01*
G01X3962631Y3103418D01*
G01X3967249Y3102033D01*
G01X3971406Y3100186D01*
G01X3975562Y3097876D01*
G01X3979256Y3095567D01*
G01X3982027Y3093258D01*
G01X3986646Y3088640D01*
G01X3988954Y3085407D01*
G01X3991264Y3081713D01*
G01X3993111Y3078480D01*
G01X3994958Y3074324D01*
G01X3996806Y3068320D01*
G01X3998191Y3063702D01*
G01X3999114Y3057236D01*
G01X3999576Y2995814D01*
G01X3999576Y2935778D01*
G01X3971867Y2935778D01*
G01X3971867Y2987964D01*
G01X3971406Y3044306D01*
G01X3970482Y3052618D01*
G01X3969096Y3059546D01*
G01X3967249Y3064626D01*
G01X3965402Y3067858D01*
G01X3964016Y3070167D01*
G01X3962169Y3072476D01*
G01X3958936Y3074786D01*
G01X3955242Y3076633D01*
G01X3951547Y3078018D01*
G01X3947853Y3078942D01*
G01X3944620Y3079404D01*
G01X3940002Y3079866D01*
G01X3933536Y3079404D01*
G01X3927994Y3078480D01*
G01X3924300Y3077556D01*
G01X3920144Y3076633D01*
G01X3915987Y3075247D01*
G01X3901209Y3067858D01*
G01X3897514Y3065549D01*
G01X3891049Y3060931D01*
G01X3888740Y3059546D01*
G01X3888740Y2935778D01*
G01X3861031Y2935778D01*
G37*
G36*
G01X4233256Y2931160D02*
G01X4221249Y2931622D01*
G01X4218016Y2932546D01*
G01X4210627Y2934393D01*
G01X4206471Y2935778D01*
G01X4202776Y2937164D01*
G01X4199544Y2938549D01*
G01X4192154Y2942244D01*
G01X4189384Y2942706D01*
G01X4188229Y2941551D01*
G01X4187536Y2939011D01*
G01X4187074Y2935778D01*
G01X4161213Y2935778D01*
G01X4161213Y3013364D01*
G01X4188922Y3013364D01*
G01X4189384Y2977111D01*
G01X4190769Y2964411D01*
G01X4194464Y2962564D01*
G01X4201853Y2959793D01*
G01X4206009Y2958407D01*
G01X4209704Y2957484D01*
G01X4213860Y2957022D01*
G01X4213860Y2957022D01*
G01X4217093Y2956560D01*
G01X4226329Y2956098D01*
G01X4237413Y2956560D01*
G01X4242031Y2957484D01*
G01X4245726Y2958407D01*
G01X4248958Y2959331D01*
G01X4252191Y2960716D01*
G01X4255424Y2962564D01*
G01X4258194Y2964411D01*
G01X4262813Y2968106D01*
G01X4264660Y2969953D01*
G01X4267431Y2973186D01*
G01X4270202Y2977342D01*
G01X4272049Y2980574D01*
G01X4273434Y2984269D01*
G01X4274820Y2988426D01*
G01X4276206Y2993506D01*
G01X4277129Y2998124D01*
G01X4278053Y3005513D01*
G01X4278514Y3017982D01*
G01X4278053Y3030451D01*
G01X4277591Y3033684D01*
G01X4277129Y3038764D01*
G01X4275282Y3048000D01*
G01X4273896Y3053080D01*
G01X4272511Y3056774D01*
G01X4271126Y3060007D01*
G01X4269278Y3063240D01*
G01X4267431Y3066011D01*
G01X4265584Y3068320D01*
G01X4260966Y3072938D01*
G01X4257733Y3075247D01*
G01X4253576Y3077094D01*
G01X4248496Y3078480D01*
G01X4243878Y3079404D01*
G01X4240184Y3079866D01*
G01X4233718Y3079404D01*
G01X4226329Y3078480D01*
G01X4219864Y3077094D01*
G01X4214784Y3075247D01*
G01X4210627Y3073400D01*
G01X4198620Y3067396D01*
G01X4194464Y3064626D01*
G01X4190769Y3062316D01*
G01X4189384Y3049616D01*
G01X4188922Y3013364D01*
G01X4161213Y3013364D01*
G01X4161213Y3166687D01*
G01X4188922Y3166687D01*
G01X4188922Y3126971D01*
G01X4189384Y3085869D01*
G01X4190307Y3085292D01*
G01X4192154Y3086331D01*
G01X4195849Y3089102D01*
G01X4199082Y3091411D01*
G01X4206471Y3096029D01*
G01X4210627Y3098338D01*
G01X4214784Y3100186D01*
G01X4222173Y3102956D01*
G01X4227253Y3104342D01*
G01X4231871Y3105266D01*
G01X4242031Y3105727D01*
G01X4252191Y3105266D01*
G01X4257271Y3104342D01*
G01X4262813Y3102956D01*
G01X4266507Y3101571D01*
G01X4270664Y3099724D01*
G01X4274358Y3097414D01*
G01X4277591Y3095567D01*
G01X4280362Y3093258D01*
G01X4283594Y3090487D01*
G01X4286366Y3087716D01*
G01X4288213Y3085407D01*
G01X4290984Y3082174D01*
G01X4293293Y3078942D01*
G01X4295140Y3075709D01*
G01X4298834Y3068320D01*
G01X4300682Y3063240D01*
G01X4302529Y3057698D01*
G01X4303914Y3052618D01*
G01X4304838Y3048924D01*
G01X4305762Y3042458D01*
G01X4306686Y3034146D01*
G01X4307147Y3022138D01*
G01X4306686Y3010131D01*
G01X4305762Y3001818D01*
G01X4304838Y2996738D01*
G01X4303453Y2990273D01*
G01X4301606Y2984269D01*
G01X4299758Y2979189D01*
G01X4297911Y2975033D01*
G01X4294216Y2967644D01*
G01X4291907Y2963487D01*
G01X4290060Y2960254D01*
G01X4284518Y2953327D01*
G01X4279900Y2948709D01*
G01X4277591Y2946862D01*
G01X4274358Y2944091D01*
G01X4269740Y2940858D01*
G01X4266046Y2938549D01*
G01X4262351Y2936702D01*
G01X4257733Y2934854D01*
G01X4254038Y2933469D01*
G01X4245726Y2931622D01*
G01X4233256Y2931160D01*
G37*
G36*
G01X4545907Y2931160D02*
G01X4532514Y2931622D01*
G01X4527434Y2933007D01*
G01X4522816Y2934393D01*
G01X4519122Y2935316D01*
G01X4515427Y2936702D01*
G01X4507114Y2940858D01*
G01X4503420Y2943167D01*
G01X4500649Y2945014D01*
G01X4496031Y2948709D01*
G01X4489104Y2955636D01*
G01X4487256Y2957946D01*
G01X4484947Y2961178D01*
G01X4482176Y2965334D01*
G01X4479867Y2969491D01*
G01X4478020Y2973186D01*
G01X4476173Y2977342D01*
G01X4472940Y2987040D01*
G01X4471093Y2995353D01*
G01X4470169Y3002742D01*
G01X4469707Y3016134D01*
G01X4469861Y3021214D01*
G01X4498340Y3021214D01*
G01X4498802Y3004589D01*
G01X4499726Y2998124D01*
G01X4501111Y2991658D01*
G01X4502958Y2985654D01*
G01X4504806Y2980574D01*
G01X4507114Y2975956D01*
G01X4510347Y2971338D01*
G01X4513118Y2967644D01*
G01X4516351Y2964411D01*
G01X4520046Y2961640D01*
G01X4522816Y2959793D01*
G01X4526049Y2958407D01*
G01X4529744Y2957022D01*
G01X4533438Y2956098D01*
G01X4533438Y2956098D01*
G01X4535747Y2955636D01*
G01X4544984Y2955174D01*
G01X4555144Y2955636D01*
G01X4559300Y2956560D01*
G01X4563918Y2957946D01*
G01X4568074Y2959793D01*
G01X4571307Y2961640D01*
G01X4574078Y2963487D01*
G01X4576849Y2965796D01*
G01X4579158Y2968106D01*
G01X4582853Y2972724D01*
G01X4585162Y2975956D01*
G01X4587009Y2979651D01*
G01X4588856Y2983807D01*
G01X4590704Y2989811D01*
G01X4592089Y2994429D01*
G01X4593013Y3000894D01*
G01X4593474Y3017058D01*
G01X4593013Y3033222D01*
G01X4592089Y3039687D01*
G01X4591166Y3043844D01*
G01X4589780Y3049386D01*
G01X4587933Y3054466D01*
G01X4586086Y3058622D01*
G01X4582391Y3065087D01*
G01X4580082Y3067858D01*
G01X4574540Y3073400D01*
G01X4570384Y3076171D01*
G01X4567151Y3078018D01*
G01X4562533Y3079866D01*
G01X4557914Y3081251D01*
G01X4548216Y3081713D01*
G01X4536671Y3081251D01*
G01X4530667Y3079866D01*
G01X4525587Y3078018D01*
G01X4521893Y3076171D01*
G01X4518198Y3073862D01*
G01X4514966Y3071091D01*
G01X4510347Y3066473D01*
G01X4508038Y3063240D01*
G01X4505729Y3059546D01*
G01X4503882Y3055389D01*
G01X4502034Y3050309D01*
G01X4500649Y3046153D01*
G01X4498802Y3035993D01*
G01X4498340Y3021214D01*
G01X4469861Y3021214D01*
G01X4470169Y3031374D01*
G01X4471093Y3037840D01*
G01X4472016Y3043382D01*
G01X4473864Y3050771D01*
G01X4475249Y3055851D01*
G01X4477096Y3060469D01*
G01X4478944Y3064626D01*
G01X4481253Y3069244D01*
G01X4483562Y3072938D01*
G01X4484947Y3075709D01*
G01X4486794Y3078018D01*
G01X4492336Y3084484D01*
G01X4496954Y3089102D01*
G01X4503882Y3094644D01*
G01X4507114Y3096491D01*
G01X4514504Y3100186D01*
G01X4519584Y3102033D01*
G01X4523740Y3103418D01*
G01X4532976Y3105266D01*
G01X4544522Y3105727D01*
G01X4556067Y3105266D01*
G01X4559300Y3104804D01*
G01X4564380Y3103880D01*
G01X4568998Y3102494D01*
G01X4572693Y3101571D01*
G01X4576387Y3100186D01*
G01X4584700Y3096029D01*
G01X4588394Y3093720D01*
G01X4595784Y3088178D01*
G01X4602711Y3081251D01*
G01X4604558Y3078942D01*
G01X4606867Y3075709D01*
G01X4609638Y3071553D01*
G01X4611947Y3067396D01*
G01X4613794Y3063702D01*
G01X4615642Y3059546D01*
G01X4618874Y3049847D01*
G01X4620722Y3041534D01*
G01X4621646Y3035069D01*
G01X4622107Y3020753D01*
G01X4621646Y3004589D01*
G01X4620722Y2998124D01*
G01X4619798Y2993506D01*
G01X4618874Y2989349D01*
G01X4617489Y2983807D01*
G01X4615642Y2978266D01*
G01X4613794Y2974109D01*
G01X4609638Y2965796D01*
G01X4606867Y2961640D01*
G01X4604558Y2958407D01*
G01X4600864Y2953789D01*
G01X4593936Y2946862D01*
G01X4591627Y2945014D01*
G01X4588394Y2942706D01*
G01X4584700Y2940396D01*
G01X4577311Y2936702D01*
G01X4573616Y2935316D01*
G01X4569460Y2933931D01*
G01X4563918Y2932546D01*
G01X4558838Y2931622D01*
G01X4545907Y2931160D01*
G37*
G36*
G01X4351482Y2935778D02*
G01X4351482Y3101109D01*
G01X4379191Y3101109D01*
G01X4379191Y3090949D01*
G01X4379653Y3079404D01*
G01X4380346Y3078596D01*
G01X4381500Y3078942D01*
G01X4384271Y3080789D01*
G01X4386580Y3082636D01*
G01X4389813Y3084946D01*
G01X4393969Y3087716D01*
G01X4397664Y3090026D01*
G01X4400434Y3091873D01*
G01X4403667Y3093720D01*
G01X4407362Y3095567D01*
G01X4411056Y3096953D01*
G01X4415213Y3098338D01*
G01X4419831Y3099724D01*
G01X4423987Y3100647D01*
G01X4433686Y3101109D01*
G01X4446154Y3100647D01*
G01X4452620Y3099724D01*
G01X4454929Y3099262D01*
G01X4454929Y3071553D01*
G01X4450773Y3072014D01*
G01X4445231Y3072938D01*
G01X4435071Y3073862D01*
G01X4430453Y3074324D01*
G01X4425834Y3073862D01*
G01X4417522Y3072938D01*
G01X4413366Y3072014D01*
G01X4407824Y3070629D01*
G01X4403667Y3068782D01*
G01X4395354Y3064626D01*
G01X4387966Y3060007D01*
G01X4381500Y3055389D01*
G01X4379191Y3054004D01*
G01X4379191Y2935778D01*
G01X4351482Y2935778D01*
G37*
G36*
G01X3211253Y2931160D02*
G01X3199246Y2931622D01*
G01X3195089Y2932546D01*
G01X3188624Y2933931D01*
G01X3183082Y2935778D01*
G01X3178926Y2937626D01*
G01X3175693Y2939011D01*
G01X3171998Y2940858D01*
G01X3167842Y2943629D01*
G01X3164609Y2945938D01*
G01X3162300Y2947786D01*
G01X3159529Y2950094D01*
G01X3157220Y2952866D01*
G01X3152602Y2957484D01*
G01X3150293Y2960716D01*
G01X3147522Y2964873D01*
G01X3145213Y2968567D01*
G01X3143366Y2972262D01*
G01X3141518Y2976418D01*
G01X3138747Y2984731D01*
G01X3137362Y2989349D01*
G01X3136438Y2993506D01*
G01X3135514Y2999971D01*
G01X3134591Y3011054D01*
G01X3134129Y3017058D01*
G01X3134378Y3020291D01*
G01X3162762Y3020291D01*
G01X3163224Y3011978D01*
G01X3163686Y3008746D01*
G01X3164147Y3002742D01*
G01X3165071Y2997200D01*
G01X3165533Y2993967D01*
G01X3166456Y2990273D01*
G01X3167842Y2986116D01*
G01X3169227Y2982422D01*
G01X3172922Y2975033D01*
G01X3174769Y2971800D01*
G01X3177078Y2969029D01*
G01X3182620Y2963487D01*
G01X3186776Y2960716D01*
G01X3190009Y2958869D01*
G01X3194627Y2957022D01*
G01X3199246Y2955636D01*
G01X3208482Y2955174D01*
G01X3208482Y2955174D01*
G01X3220489Y2955636D01*
G01X3226493Y2957022D01*
G01X3230187Y2958407D01*
G01X3235729Y2961178D01*
G01X3238500Y2963026D01*
G01X3244042Y2967644D01*
G01X3246813Y2971338D01*
G01X3250046Y2975956D01*
G01X3252354Y2980113D01*
G01X3255126Y2987502D01*
G01X3256511Y2992582D01*
G01X3257434Y2997200D01*
G01X3258358Y3004589D01*
G01X3258820Y3015673D01*
G01X3258358Y3029527D01*
G01X3257434Y3036916D01*
G01X3256511Y3042458D01*
G01X3254664Y3049847D01*
G01X3253278Y3054004D01*
G01X3251431Y3058160D01*
G01X3249122Y3062316D01*
G01X3247274Y3065549D01*
G01X3245427Y3067858D01*
G01X3240809Y3072476D01*
G01X3237114Y3075247D01*
G01X3232496Y3078018D01*
G01X3227416Y3079866D01*
G01X3223260Y3081251D01*
G01X3213562Y3081713D01*
G01X3202016Y3081251D01*
G01X3195551Y3079866D01*
G01X3190933Y3078018D01*
G01X3187238Y3076171D01*
G01X3184006Y3074324D01*
G01X3181234Y3072476D01*
G01X3177540Y3069244D01*
G01X3174769Y3065549D01*
G01X3172922Y3063240D01*
G01X3171074Y3060007D01*
G01X3169227Y3056313D01*
G01X3167842Y3052618D01*
G01X3166456Y3048462D01*
G01X3165071Y3042920D01*
G01X3164147Y3037840D01*
G01X3163224Y3028604D01*
G01X3162762Y3020291D01*
G01X3134378Y3020291D01*
G01X3134591Y3023062D01*
G01X3135053Y3028142D01*
G01X3135514Y3034146D01*
G01X3136438Y3039687D01*
G01X3137362Y3044306D01*
G01X3138286Y3048462D01*
G01X3139671Y3054004D01*
G01X3143366Y3063240D01*
G01X3145674Y3068320D01*
G01X3148446Y3072938D01*
G01X3150754Y3076171D01*
G01X3152602Y3078942D01*
G01X3154911Y3081713D01*
G01X3164147Y3090949D01*
G01X3167380Y3093258D01*
G01X3171536Y3096029D01*
G01X3175231Y3098338D01*
G01X3178464Y3099724D01*
G01X3182158Y3101109D01*
G01X3187238Y3102956D01*
G01X3191856Y3104342D01*
G01X3198322Y3105266D01*
G01X3209406Y3105727D01*
G01X3220489Y3105266D01*
G01X3224184Y3104804D01*
G01X3229726Y3103880D01*
G01X3234344Y3102494D01*
G01X3238500Y3101109D01*
G01X3243580Y3099262D01*
G01X3248198Y3096953D01*
G01X3252816Y3094182D01*
G01X3256049Y3091873D01*
G01X3262976Y3086331D01*
G01X3266209Y3083098D01*
G01X3269904Y3078480D01*
G01X3273136Y3073862D01*
G01X3275907Y3069706D01*
G01X3277754Y3066011D01*
G01X3279140Y3062778D01*
G01X3280987Y3058622D01*
G01X3284220Y3048924D01*
G01X3286067Y3039687D01*
G01X3286991Y3032298D01*
G01X3287453Y3020291D01*
G01X3286991Y3008284D01*
G01X3286529Y3004589D01*
G01X3286067Y2999971D01*
G01X3284220Y2990734D01*
G01X3282373Y2983346D01*
G01X3280987Y2979189D01*
G01X3279140Y2975033D01*
G01X3275446Y2967644D01*
G01X3273136Y2963487D01*
G01X3271289Y2960254D01*
G01X3265747Y2953327D01*
G01X3261129Y2948709D01*
G01X3256511Y2945014D01*
G01X3253278Y2942706D01*
G01X3249584Y2940396D01*
G01X3246351Y2938549D01*
G01X3242656Y2936702D01*
G01X3237576Y2934854D01*
G01X3233420Y2933469D01*
G01X3224184Y2931622D01*
G01X3211253Y2931160D01*
G37*
G36*
G01X3400598Y2932084D02*
G01X3387206Y2932546D01*
G01X3383049Y2933469D01*
G01X3378431Y2934393D01*
G01X3374274Y2935316D01*
G01X3369656Y2936702D01*
G01X3365038Y2938549D01*
G01X3360882Y2940396D01*
G01X3357187Y2942244D01*
G01X3353031Y2944553D01*
G01X3348874Y2947324D01*
G01X3345642Y2950094D01*
G01X3343333Y2951942D01*
G01X3341024Y2954251D01*
G01X3338714Y2957022D01*
G01X3336406Y2959331D01*
G01X3334096Y2962564D01*
G01X3331787Y2966258D01*
G01X3329940Y2969491D01*
G01X3328093Y2973186D01*
G01X3326246Y2977342D01*
G01X3323474Y2985654D01*
G01X3322089Y2990273D01*
G01X3321166Y2994429D01*
G01X3320242Y3000894D01*
G01X3319780Y3006898D01*
G01X3319318Y3014749D01*
G01X3319318Y3019367D01*
G01X3319780Y3025371D01*
G01X3320242Y3032298D01*
G01X3321166Y3038764D01*
G01X3322551Y3045691D01*
G01X3323936Y3049847D01*
G01X3324860Y3053542D01*
G01X3326246Y3057236D01*
G01X3327631Y3060469D01*
G01X3329016Y3063240D01*
G01X3330864Y3066473D01*
G01X3333173Y3070629D01*
G01X3335020Y3073862D01*
G01X3336867Y3076171D01*
G01X3342409Y3082636D01*
G01X3347027Y3087254D01*
G01X3350722Y3090026D01*
G01X3354878Y3092796D01*
G01X3358573Y3095106D01*
G01X3362729Y3097414D01*
G01X3366886Y3099262D01*
G01X3375198Y3102033D01*
G01X3380740Y3103418D01*
G01X3385820Y3104342D01*
G01X3397827Y3104804D01*
G01X3412606Y3104342D01*
G01X3418147Y3103418D01*
G01X3422304Y3102494D01*
G01X3427846Y3101109D01*
G01X3438929Y3097414D01*
G01X3444009Y3095567D01*
G01X3447704Y3093720D01*
G01X3451398Y3092334D01*
G01X3453707Y3091873D01*
G01X3453707Y3060469D01*
G01X3451398Y3061854D01*
G01X3444933Y3066473D01*
G01X3440314Y3069244D01*
G01X3436620Y3071553D01*
G01X3432926Y3073400D01*
G01X3423689Y3077094D01*
G01X3419994Y3078480D01*
G01X3411682Y3080327D01*
G01X3402446Y3081251D01*
G01X3399674Y3081251D01*
G01X3394133Y3080789D01*
G01X3386744Y3079866D01*
G01X3382126Y3078480D01*
G01X3377969Y3077094D01*
G01X3371504Y3073862D01*
G01X3368733Y3072014D01*
G01X3362267Y3066473D01*
G01X3360420Y3064164D01*
G01X3358111Y3060931D01*
G01X3355802Y3057236D01*
G01X3353954Y3053542D01*
G01X3352107Y3048462D01*
G01X3350722Y3044306D01*
G01X3348874Y3035069D01*
G01X3348413Y3021214D01*
G01X3348874Y3004589D01*
G01X3349798Y2999047D01*
G01X3350722Y2994429D01*
G01X3352107Y2989349D01*
G01X3353954Y2984731D01*
G01X3355802Y2980574D01*
G01X3357649Y2977342D01*
G01X3359496Y2974571D01*
G01X3361806Y2971338D01*
G01X3365500Y2967182D01*
G01X3369194Y2964411D01*
G01X3372427Y2962102D01*
G01X3376122Y2960254D01*
G01X3379354Y2958869D01*
G01X3383511Y2957484D01*
G01X3387667Y2956560D01*
G01X3396904Y2956098D01*
G01X3407987Y2956560D01*
G01X3413529Y2957484D01*
G01X3420918Y2959331D01*
G01X3425074Y2960716D01*
G01X3428769Y2962102D01*
G01X3432002Y2963487D01*
G01X3435234Y2965334D01*
G01X3439391Y2967644D01*
G01X3446780Y2972262D01*
G01X3450013Y2974571D01*
G01X3452322Y2975956D01*
G01X3453361Y2972493D01*
G01X3453707Y2961178D01*
G01X3453246Y2949517D01*
G01X3451860Y2945014D01*
G01X3443547Y2941320D01*
G01X3438929Y2939473D01*
G01X3428769Y2935778D01*
G01X3424613Y2934393D01*
G01X3414453Y2932546D01*
G01X3400598Y2932084D01*
G37*
G36*
G01X3490653Y2935778D02*
G01X3490653Y3166687D01*
G01X3519286Y3166687D01*
G01X3519286Y3093258D01*
G01X3519516Y3038302D01*
G01X3520209Y3020291D01*
G01X3522518Y3021676D01*
G01X3540991Y3040149D01*
G01X3544686Y3044767D01*
G01X3572394Y3072476D01*
G01X3577936Y3078942D01*
G01X3598718Y3099724D01*
G01X3603798Y3100763D01*
G01X3617191Y3101109D01*
G01X3630006Y3100878D01*
G01X3633354Y3100186D01*
G01X3577936Y3044767D01*
G01X3573318Y3041073D01*
G01X3559464Y3027218D01*
G01X3558540Y3026179D01*
G01X3558540Y3024909D01*
G01X3559926Y3022138D01*
G01X3562234Y3019829D01*
G01X3566853Y3014287D01*
G01X3574704Y3006436D01*
G01X3577474Y3002742D01*
G01X3586711Y2993506D01*
G01X3590406Y2988887D01*
G01X3597333Y2981960D01*
G01X3601951Y2976418D01*
G01X3609802Y2968567D01*
G01X3612573Y2964873D01*
G01X3621809Y2955636D01*
G01X3625504Y2951018D01*
G01X3632431Y2944091D01*
G01X3636126Y2939473D01*
G01X3638434Y2937164D01*
G01X3634740Y2936124D01*
G01X3621809Y2935778D01*
G01X3603336Y2936702D01*
G01X3601027Y2938549D01*
G01X3595486Y2945014D01*
G01X3590867Y2949633D01*
G01X3585326Y2956098D01*
G01X3580707Y2960716D01*
G01X3576089Y2966258D01*
G01X3571471Y2970876D01*
G01X3565929Y2977342D01*
G01X3561311Y2981960D01*
G01X3555769Y2988426D01*
G01X3551151Y2993044D01*
G01X3545609Y2999509D01*
G01X3540991Y3004127D01*
G01X3539144Y3006436D01*
G01X3538336Y3007360D01*
G01X3536834Y3007360D01*
G01X3534064Y3005513D01*
G01X3529446Y3000894D01*
G01X3522980Y2995353D01*
G01X3520671Y2993044D01*
G01X3519632Y2985308D01*
G01X3519286Y2963949D01*
G01X3519286Y2935778D01*
G01X3490653Y2935778D01*
G37*
G36*
G01X3776056Y3129742D02*
G01X3776056Y3158374D01*
G01X3807460Y3158374D01*
G01X3807460Y3129742D01*
G01X3776056Y3129742D01*
G37*
G36*
G01X3777904Y2935778D02*
G01X3777904Y3101109D01*
G01X3805613Y3101109D01*
G01X3805613Y2935778D01*
G01X3777904Y2935778D01*
G37*
G36*
G01X8913322Y3732184D02*
G01X8682413Y3732184D01*
G01X8682413Y3759893D01*
G01X8829271Y3759893D01*
G01X8828347Y3761740D01*
G01X8826500Y3764973D01*
G01X8817264Y3774209D01*
G01X8812646Y3777904D01*
G01X8784936Y3805613D01*
G01X8780318Y3809307D01*
G01X8752609Y3837016D01*
G01X8749838Y3839326D01*
G01X8748453Y3844406D01*
G01X8747991Y3857798D01*
G01X8748337Y3870729D01*
G01X8749376Y3874424D01*
G01X8763231Y3860569D01*
G01X8767849Y3855027D01*
G01X8820958Y3801918D01*
G01X8823267Y3800071D01*
G01X8826962Y3801456D01*
G01X8830656Y3804227D01*
G01X8839893Y3813464D01*
G01X8844511Y3817158D01*
G01X8851438Y3824086D01*
G01X8856980Y3828704D01*
G01X8864831Y3836554D01*
G01X8868526Y3839326D01*
G01X8877762Y3848562D01*
G01X8882380Y3852256D01*
G01X8889307Y3859184D01*
G01X8895773Y3864726D01*
G01X8902700Y3871653D01*
G01X8907318Y3875347D01*
G01X8911936Y3879966D01*
G01X8912976Y3876386D01*
G01X8913322Y3863802D01*
G01X8912398Y3844867D01*
G01X8910089Y3842096D01*
G01X8907780Y3839787D01*
G01X8901314Y3834246D01*
G01X8896696Y3829627D01*
G01X8890231Y3824086D01*
G01X8885613Y3819467D01*
G01X8880071Y3814849D01*
G01X8875453Y3810231D01*
G01X8868987Y3804689D01*
G01X8864369Y3800071D01*
G01X8857904Y3794529D01*
G01X8853286Y3789911D01*
G01X8846820Y3784369D01*
G01X8842202Y3779751D01*
G01X8842202Y3777442D01*
G01X8844973Y3774209D01*
G01X8847744Y3770514D01*
G01X8856980Y3761278D01*
G01X8864600Y3760239D01*
G01X8885613Y3759893D01*
G01X8913322Y3759893D01*
G01X8913322Y3732184D01*
G37*
G36*
G01X8798329Y3675842D02*
G01X8913784Y3675380D01*
G01X8913322Y3661526D01*
G01X8913322Y3648133D01*
G01X8682413Y3648133D01*
G01X8682413Y3675842D01*
G01X8798329Y3675842D01*
G37*
G36*
G01X8917940Y2287616D02*
G01X8917478Y2276994D01*
G01X8916554Y2273300D01*
G01X8915169Y2268220D01*
G01X8913322Y2263602D01*
G01X8911474Y2259446D01*
G01X8909627Y2256213D01*
G01X8907780Y2253442D01*
G01X8906394Y2251133D01*
G01X8904547Y2248824D01*
G01X8899006Y2243282D01*
G01X8894387Y2239587D01*
G01X8887460Y2234969D01*
G01X8884227Y2233122D01*
G01X8880071Y2231274D01*
G01X8875453Y2229427D01*
G01X8865754Y2226194D01*
G01X8855594Y2224347D01*
G01X8848206Y2223424D01*
G01X8835736Y2222962D01*
G01X8820496Y2223424D01*
G01X8813107Y2224347D01*
G01X8808489Y2225271D01*
G01X8804333Y2226194D01*
G01X8798791Y2227580D01*
G01X8793711Y2229427D01*
G01X8789093Y2231274D01*
G01X8781704Y2234969D01*
G01X8777547Y2237278D01*
G01X8773391Y2240049D01*
G01X8770158Y2242358D01*
G01X8763231Y2247900D01*
G01X8760922Y2250209D01*
G01X8757227Y2254827D01*
G01X8754918Y2258060D01*
G01X8752609Y2261754D01*
G01X8750762Y2264987D01*
G01X8748914Y2268682D01*
G01X8747067Y2273300D01*
G01X8745682Y2276994D01*
G01X8743834Y2285307D01*
G01X8743373Y2295006D01*
G01X8743732Y2304704D01*
G01X8768311Y2304704D01*
G01X8768773Y2295467D01*
G01X8769696Y2289926D01*
G01X8770620Y2285769D01*
G01X8772006Y2281613D01*
G01X8773853Y2277918D01*
G01X8776162Y2273762D01*
G01X8778471Y2270529D01*
G01X8785398Y2263602D01*
G01X8787707Y2261754D01*
G01X8790940Y2259907D01*
G01X8794634Y2258060D01*
G01X8797867Y2256674D01*
G01X8801562Y2255289D01*
G01X8806180Y2253904D01*
G01X8810336Y2252980D01*
G01X8816802Y2252056D01*
G01X8829271Y2251594D01*
G01X8844511Y2252056D01*
G01X8851900Y2252980D01*
G01X8856518Y2253904D01*
G01X8860674Y2254827D01*
G01X8865293Y2256213D01*
G01X8869911Y2258060D01*
G01X8874529Y2260369D01*
G01X8877762Y2262216D01*
G01X8880071Y2264064D01*
G01X8884689Y2268682D01*
G01X8886998Y2272376D01*
G01X8889307Y2276994D01*
G01X8890693Y2280689D01*
G01X8891154Y2284846D01*
G01X8891154Y2284846D01*
G01X8891616Y2288078D01*
G01X8892078Y2291311D01*
G01X8891616Y2297314D01*
G01X8890693Y2303780D01*
G01X8889307Y2310246D01*
G01X8887460Y2315787D01*
G01X8885613Y2319944D01*
G01X8883766Y2323176D01*
G01X8879609Y2331489D01*
G01X8876376Y2336107D01*
G01X8874067Y2339802D01*
G01X8861714Y2340841D01*
G01X8825576Y2341187D01*
G01X8789324Y2340726D01*
G01X8776624Y2339340D01*
G01X8774776Y2335646D01*
G01X8772006Y2328256D01*
G01X8770620Y2323176D01*
G01X8769696Y2318558D01*
G01X8768773Y2311169D01*
G01X8768311Y2304704D01*
G01X8743732Y2304704D01*
G01X8743834Y2307474D01*
G01X8744758Y2313016D01*
G01X8745682Y2317173D01*
G01X8747067Y2322714D01*
G01X8748914Y2327794D01*
G01X8750762Y2332413D01*
G01X8752609Y2336107D01*
G01X8753994Y2339340D01*
G01X8754456Y2341187D01*
G01X8682413Y2341187D01*
G01X8682413Y2368896D01*
G01X8913322Y2368896D01*
G01X8913322Y2341187D01*
G01X8905009Y2341187D01*
G01X8898890Y2340956D01*
G01X8897158Y2340264D01*
G01X8898544Y2337954D01*
G01X8901314Y2334260D01*
G01X8904547Y2329642D01*
G01X8906856Y2326409D01*
G01X8908704Y2323176D01*
G01X8912398Y2315787D01*
G01X8914246Y2311169D01*
G01X8915631Y2307474D01*
G01X8917478Y2299162D01*
G01X8917940Y2287616D01*
G37*
G36*
G01X8917940Y2603500D02*
G01X8917478Y2591031D01*
G01X8916554Y2588260D01*
G01X8915631Y2584104D01*
G01X8914246Y2579024D01*
G01X8912398Y2573944D01*
G01X8910551Y2569787D01*
G01X8906856Y2562398D01*
G01X8906394Y2559627D01*
G01X8907549Y2558473D01*
G01X8910089Y2557780D01*
G01X8913322Y2557318D01*
G01X8913322Y2531456D01*
G01X8682413Y2531456D01*
G01X8682413Y2559166D01*
G01X8763693Y2559166D01*
G01X8762769Y2561013D01*
G01X8760460Y2565169D01*
G01X8757689Y2569326D01*
G01X8753071Y2576714D01*
G01X8750762Y2580871D01*
G01X8748914Y2584566D01*
G01X8747529Y2588260D01*
G01X8746144Y2592416D01*
G01X8744758Y2597496D01*
G01X8743834Y2602114D01*
G01X8743373Y2610427D01*
G01X8769234Y2610427D01*
G01X8769696Y2603962D01*
G01X8770620Y2596573D01*
G01X8772006Y2590107D01*
G01X8773853Y2585027D01*
G01X8775700Y2580871D01*
G01X8781704Y2568864D01*
G01X8784474Y2564707D01*
G01X8786784Y2561013D01*
G01X8799484Y2559627D01*
G01X8835736Y2559166D01*
G01X8871989Y2559627D01*
G01X8884689Y2561013D01*
G01X8886536Y2564246D01*
G01X8887922Y2567940D01*
G01X8890693Y2576253D01*
G01X8891616Y2579947D01*
G01X8892078Y2583642D01*
G01X8892078Y2583642D01*
G01X8892540Y2586413D01*
G01X8893002Y2596573D01*
G01X8892540Y2607656D01*
G01X8891616Y2612274D01*
G01X8890231Y2617354D01*
G01X8888384Y2621511D01*
G01X8886536Y2625206D01*
G01X8884227Y2628900D01*
G01X8881456Y2632133D01*
G01X8876838Y2636751D01*
G01X8874529Y2638598D01*
G01X8871296Y2640446D01*
G01X8867602Y2642293D01*
G01X8863446Y2644140D01*
G01X8859289Y2645526D01*
G01X8850053Y2647373D01*
G01X8841740Y2648296D01*
G01X8831580Y2648758D01*
G01X8821420Y2648296D01*
G01X8817264Y2647834D01*
G01X8812184Y2647373D01*
G01X8806642Y2646449D01*
G01X8802024Y2645526D01*
G01X8798329Y2644602D01*
G01X8794173Y2643216D01*
G01X8790016Y2641369D01*
G01X8785398Y2639060D01*
G01X8782166Y2636751D01*
G01X8779856Y2634904D01*
G01X8776624Y2631671D01*
G01X8773853Y2627514D01*
G01X8772006Y2623820D01*
G01X8770620Y2618740D01*
G01X8769696Y2614122D01*
G01X8769234Y2610427D01*
G01X8743373Y2610427D01*
G01X8743834Y2621511D01*
G01X8744758Y2627053D01*
G01X8745682Y2630747D01*
G01X8747067Y2635366D01*
G01X8750762Y2642754D01*
G01X8752609Y2645987D01*
G01X8753994Y2648296D01*
G01X8755842Y2650606D01*
G01X8765078Y2659842D01*
G01X8768311Y2662151D01*
G01X8772006Y2664460D01*
G01X8775238Y2666307D01*
G01X8778933Y2668154D01*
G01X8783551Y2670002D01*
G01X8788631Y2671849D01*
G01X8792787Y2673234D01*
G01X8801100Y2675082D01*
G01X8807566Y2676006D01*
G01X8817726Y2676929D01*
G01X8827424Y2677391D01*
G01X8837122Y2676929D01*
G01X8840354Y2676467D01*
G01X8845434Y2676006D01*
G01X8850976Y2675082D01*
G01X8855594Y2674158D01*
G01X8862984Y2672311D01*
G01X8867140Y2670926D01*
G01X8871758Y2669078D01*
G01X8875914Y2667231D01*
G01X8879609Y2665384D01*
G01X8883766Y2663074D01*
G01X8887922Y2660304D01*
G01X8891154Y2657994D01*
G01X8898082Y2652453D01*
G01X8900391Y2650144D01*
G01X8905933Y2643216D01*
G01X8908242Y2639984D01*
G01X8910551Y2636289D01*
G01X8912398Y2632594D01*
G01X8914246Y2627976D01*
G01X8915631Y2624282D01*
G01X8917478Y2615969D01*
G01X8917940Y2603500D01*
G37*
G36*
G01X8975206Y2752206D02*
G01X8974744Y2737889D01*
G01X8971511Y2739274D01*
G01X8950729Y2748511D01*
G01X8944264Y2751282D01*
G01X8940569Y2753129D01*
G01X8911474Y2766060D01*
G01X8907780Y2767446D01*
G01X8903162Y2766984D01*
G01X8898544Y2765136D01*
G01X8894387Y2763289D01*
G01X8885151Y2759594D01*
G01X8876838Y2755900D01*
G01X8867602Y2752206D01*
G01X8863446Y2750358D01*
G01X8859751Y2748973D01*
G01X8856518Y2747587D01*
G01X8852362Y2745740D01*
G01X8847744Y2743893D01*
G01X8843587Y2742046D01*
G01X8838969Y2740198D01*
G01X8834813Y2738351D01*
G01X8831118Y2736966D01*
G01X8827886Y2735580D01*
G01X8823729Y2733733D01*
G01X8819111Y2731886D01*
G01X8814954Y2730038D01*
G01X8805718Y2726344D01*
G01X8797406Y2722649D01*
G01X8788169Y2718954D01*
G01X8784013Y2717107D01*
G01X8780318Y2715722D01*
G01X8777086Y2714336D01*
G01X8772929Y2712489D01*
G01X8768311Y2710642D01*
G01X8764154Y2708794D01*
G01X8759536Y2706947D01*
G01X8755380Y2705100D01*
G01X8750762Y2703253D01*
G01X8747991Y2702329D01*
G01X8747991Y2715260D01*
G01X8748453Y2730500D01*
G01X8749376Y2732463D01*
G01X8751224Y2733733D01*
G01X8765078Y2739274D01*
G01X8769234Y2741122D01*
G01X8772929Y2742507D01*
G01X8776162Y2743893D01*
G01X8780318Y2745740D01*
G01X8784936Y2747587D01*
G01X8788631Y2748973D01*
G01X8791864Y2750358D01*
G01X8796020Y2752206D01*
G01X8800638Y2754053D01*
G01X8804794Y2755900D01*
G01X8814031Y2759594D01*
G01X8818187Y2761442D01*
G01X8827424Y2765136D01*
G01X8831580Y2766984D01*
G01X8840816Y2770678D01*
G01X8844973Y2772526D01*
G01X8854209Y2776220D01*
G01X8858366Y2778067D01*
G01X8867602Y2781762D01*
G01X8869218Y2782686D01*
G01X8869449Y2783609D01*
G01X8866678Y2785456D01*
G01X8862060Y2787304D01*
G01X8853747Y2790998D01*
G01X8844511Y2794693D01*
G01X8840354Y2796540D01*
G01X8836660Y2797926D01*
G01X8833427Y2799311D01*
G01X8829271Y2801158D01*
G01X8824653Y2803006D01*
G01X8820496Y2804853D01*
G01X8811260Y2808547D01*
G01X8807104Y2810394D01*
G01X8803409Y2811780D01*
G01X8793711Y2815936D01*
G01X8789554Y2817784D01*
G01X8784936Y2819631D01*
G01X8780780Y2821478D01*
G01X8771544Y2825173D01*
G01X8767387Y2827020D01*
G01X8763693Y2828406D01*
G01X8753994Y2832562D01*
G01X8750300Y2833947D01*
G01X8747991Y2834409D01*
G01X8747991Y2863042D01*
G01X8749838Y2862580D01*
G01X8778933Y2850111D01*
G01X8783089Y2848264D01*
G01X8787707Y2846416D01*
G01X8791864Y2844569D01*
G01X8796482Y2842722D01*
G01X8804794Y2839027D01*
G01X8809413Y2837180D01*
G01X8817726Y2833486D01*
G01X8822344Y2831638D01*
G01X8830656Y2827944D01*
G01X8835274Y2826096D01*
G01X8843587Y2822402D01*
G01X8852824Y2818707D01*
G01X8861136Y2815013D01*
G01X8865754Y2813166D01*
G01X8874067Y2809471D01*
G01X8878686Y2807624D01*
G01X8886998Y2803929D01*
G01X8891616Y2802082D01*
G01X8899929Y2798387D01*
G01X8904547Y2796540D01*
G01X8908704Y2794693D01*
G01X8912398Y2793307D01*
G01X8960889Y2772526D01*
G01X8969202Y2768831D01*
G01X8972896Y2767446D01*
G01X8975206Y2766984D01*
G01X8975206Y2752206D01*
G37*
G36*
G01X8913322Y2994198D02*
G01X8903624Y2994198D01*
G01X8895888Y2994544D01*
G01X8892078Y2995584D01*
G01X8887922Y2998816D01*
G01X8874067Y3009900D01*
G01X8870373Y3012671D01*
G01X8847282Y3031144D01*
G01X8843587Y3033914D01*
G01X8825114Y3048693D01*
G01X8821420Y3051464D01*
G01X8798329Y3069936D01*
G01X8794634Y3072707D01*
G01X8776162Y3087486D01*
G01X8772467Y3089794D01*
G01X8771428Y3078942D01*
G01X8771082Y3045460D01*
G01X8770620Y2998354D01*
G01X8770158Y2996046D01*
G01X8747991Y2996046D01*
G01X8747991Y3125354D01*
G01X8757689Y3125354D01*
G01X8765540Y3124893D01*
G01X8769696Y3123507D01*
G01X8792787Y3105034D01*
G01X8796482Y3102264D01*
G01X8819573Y3083791D01*
G01X8823267Y3081020D01*
G01X8850976Y3058853D01*
G01X8854671Y3056082D01*
G01X8880071Y3035762D01*
G01X8882842Y3033914D01*
G01X8885613Y3031606D01*
G01X8888384Y3029758D01*
G01X8890231Y3029296D01*
G01X8890231Y3128126D01*
G01X8913322Y3128126D01*
G01X8913322Y2994198D01*
G37*
G36*
G01X8917940Y1109518D02*
G01X8917478Y1098434D01*
G01X8916554Y1095664D01*
G01X8915631Y1091969D01*
G01X8914246Y1087351D01*
G01X8912398Y1083194D01*
G01X8910551Y1079500D01*
G01X8908242Y1075806D01*
G01X8905009Y1071649D01*
G01X8902238Y1067954D01*
G01X8896696Y1063336D01*
G01X8893464Y1060566D01*
G01X8890231Y1058256D01*
G01X8886998Y1056409D01*
G01X8879609Y1052714D01*
G01X8874529Y1050867D01*
G01X8868987Y1049020D01*
G01X8863907Y1047634D01*
G01X8860213Y1046711D01*
G01X8853747Y1045787D01*
G01X8844511Y1044864D01*
G01X8833889Y1044402D01*
G01X8823267Y1044864D01*
G01X8820034Y1045326D01*
G01X8814954Y1045787D01*
G01X8810336Y1046711D01*
G01X8805256Y1047634D01*
G01X8799714Y1049020D01*
G01X8795558Y1050406D01*
G01X8791864Y1051791D01*
G01X8787707Y1053638D01*
G01X8782627Y1055947D01*
G01X8778933Y1058256D01*
G01X8775700Y1060104D01*
G01X8772929Y1061951D01*
G01X8770620Y1063336D01*
G01X8768311Y1065184D01*
G01X8758151Y1075344D01*
G01X8754918Y1079962D01*
G01X8752609Y1083194D01*
G01X8750762Y1086427D01*
G01X8748914Y1090584D01*
G01X8746144Y1097973D01*
G01X8744758Y1103053D01*
G01X8743834Y1107671D01*
G01X8743373Y1116907D01*
G01X8743746Y1126606D01*
G01X8768311Y1126606D01*
G01X8768773Y1117831D01*
G01X8769696Y1111366D01*
G01X8771082Y1106286D01*
G01X8772929Y1101206D01*
G01X8775238Y1097049D01*
G01X8778009Y1092893D01*
G01X8780780Y1089660D01*
G01X8783089Y1087351D01*
G01X8786322Y1084580D01*
G01X8790940Y1081809D01*
G01X8795096Y1079500D01*
G01X8802486Y1076729D01*
G01X8807566Y1075344D01*
G01X8812184Y1074420D01*
G01X8819573Y1073496D01*
G01X8830656Y1073034D01*
G01X8841740Y1073496D01*
G01X8850053Y1074420D01*
G01X8859289Y1076267D01*
G01X8862984Y1077191D01*
G01X8867140Y1078576D01*
G01X8871296Y1080424D01*
G01X8874991Y1082271D01*
G01X8877762Y1084118D01*
G01X8882380Y1087813D01*
G01X8885151Y1091046D01*
G01X8887460Y1094740D01*
G01X8888846Y1097973D01*
G01X8890231Y1101667D01*
G01X8891154Y1106747D01*
G01X8891154Y1106747D01*
G01X8891616Y1110442D01*
G01X8892078Y1114598D01*
G01X8891616Y1119678D01*
G01X8891154Y1123373D01*
G01X8890231Y1128914D01*
G01X8888384Y1134918D01*
G01X8886536Y1139998D01*
G01X8880994Y1151082D01*
G01X8879147Y1153853D01*
G01X8876838Y1157086D01*
G01X8874529Y1160780D01*
G01X8861714Y1162166D01*
G01X8825114Y1162627D01*
G01X8788631Y1162166D01*
G01X8776162Y1160780D01*
G01X8774776Y1157547D01*
G01X8773391Y1153853D01*
G01X8772006Y1149696D01*
G01X8770620Y1144616D01*
G01X8769696Y1139998D01*
G01X8768773Y1132609D01*
G01X8768311Y1126606D01*
G01X8743746Y1126606D01*
G01X8743834Y1128914D01*
G01X8744758Y1134456D01*
G01X8745220Y1137689D01*
G01X8746144Y1141384D01*
G01X8748914Y1149696D01*
G01X8750762Y1153853D01*
G01X8752609Y1157547D01*
G01X8753533Y1160780D01*
G01X8744643Y1162166D01*
G01X8717973Y1162627D01*
G01X8682413Y1162627D01*
G01X8682413Y1190336D01*
G01X8913322Y1190336D01*
G01X8913322Y1162627D01*
G01X8905009Y1162627D01*
G01X8898890Y1162396D01*
G01X8897158Y1161704D01*
G01X8899467Y1158471D01*
G01X8902238Y1154776D01*
G01X8904547Y1151544D01*
G01X8906856Y1147849D01*
G01X8908704Y1145078D01*
G01X8910551Y1141846D01*
G01X8912398Y1137689D01*
G01X8915169Y1130300D01*
G01X8916554Y1125220D01*
G01X8917478Y1120602D01*
G01X8917940Y1109518D01*
G37*
G36*
G01X8917478Y1324726D02*
G01X8917478Y1320107D01*
G01X8917016Y1315489D01*
G01X8916554Y1308100D01*
G01X8915631Y1301634D01*
G01X8913784Y1292398D01*
G01X8912398Y1287318D01*
G01X8908704Y1278082D01*
G01X8906856Y1274387D01*
G01X8904547Y1270231D01*
G01X8901776Y1266074D01*
G01X8899467Y1262842D01*
G01X8895773Y1258224D01*
G01X8891154Y1253606D01*
G01X8887922Y1250834D01*
G01X8884689Y1248526D01*
G01X8881918Y1246678D01*
G01X8873606Y1242060D01*
G01X8868987Y1240213D01*
G01X8859289Y1236980D01*
G01X8849129Y1235133D01*
G01X8837122Y1234209D01*
G01X8832966Y1233747D01*
G01X8828809Y1234209D01*
G01X8823267Y1234671D01*
G01X8816802Y1235133D01*
G01X8811260Y1236056D01*
G01X8802024Y1237904D01*
G01X8796944Y1239289D01*
G01X8792326Y1241136D01*
G01X8788169Y1242984D01*
G01X8780780Y1246678D01*
G01X8777086Y1248987D01*
G01X8773853Y1251296D01*
G01X8771544Y1252682D01*
G01X8769234Y1254529D01*
G01X8759998Y1263766D01*
G01X8758151Y1266074D01*
G01X8755842Y1269307D01*
G01X8753533Y1273002D01*
G01X8749838Y1280391D01*
G01X8747991Y1284547D01*
G01X8746144Y1290551D01*
G01X8744758Y1295169D01*
G01X8743834Y1301634D01*
G01X8743373Y1311794D01*
G01X8743472Y1314566D01*
G01X8765540Y1314566D01*
G01X8766002Y1310871D01*
G01X8766926Y1302558D01*
G01X8767387Y1299326D01*
G01X8768311Y1295631D01*
G01X8770158Y1291013D01*
G01X8772467Y1285933D01*
G01X8775700Y1281314D01*
G01X8778471Y1277620D01*
G01X8784936Y1272078D01*
G01X8788169Y1269769D01*
G01X8791402Y1267922D01*
G01X8794173Y1266536D01*
G01X8797867Y1265151D01*
G01X8802486Y1263766D01*
G01X8806642Y1262842D01*
G01X8809874Y1262380D01*
G01X8809874Y1262380D01*
G01X8812184Y1262842D01*
G01X8812646Y1310409D01*
G01X8812646Y1357514D01*
G01X8810336Y1357514D01*
G01X8803871Y1357053D01*
G01X8796482Y1355667D01*
G01X8791864Y1354282D01*
G01X8788169Y1352896D01*
G01X8783551Y1350587D01*
G01X8778933Y1347354D01*
G01X8775700Y1344584D01*
G01X8772929Y1341351D01*
G01X8770158Y1336733D01*
G01X8768311Y1331653D01*
G01X8766926Y1327496D01*
G01X8766002Y1318260D01*
G01X8765540Y1314566D01*
G01X8743472Y1314566D01*
G01X8743834Y1324726D01*
G01X8744758Y1331191D01*
G01X8745682Y1334886D01*
G01X8746606Y1339042D01*
G01X8747991Y1343660D01*
G01X8749838Y1347816D01*
G01X8751686Y1351511D01*
G01X8753533Y1354744D01*
G01X8757227Y1360286D01*
G01X8759536Y1363056D01*
G01X8764154Y1367674D01*
G01X8766464Y1369522D01*
G01X8772929Y1374140D01*
G01X8776162Y1375987D01*
G01X8780318Y1377834D01*
G01X8787707Y1380606D01*
G01X8792326Y1381991D01*
G01X8796482Y1382914D01*
G01X8802947Y1383838D01*
G01X8819111Y1384300D01*
G01X8833889Y1384300D01*
G01X8833889Y1262380D01*
G01X8836198Y1262380D01*
G01X8842664Y1262842D01*
G01X8848206Y1263766D01*
G01X8852824Y1264689D01*
G01X8857904Y1266074D01*
G01X8861598Y1267460D01*
G01X8864831Y1268846D01*
G01X8868064Y1270693D01*
G01X8873606Y1274387D01*
G01X8876376Y1276696D01*
G01X8880994Y1281314D01*
G01X8883304Y1284547D01*
G01X8885613Y1288242D01*
G01X8887460Y1291474D01*
G01X8888846Y1294707D01*
G01X8890231Y1298402D01*
G01X8891616Y1303482D01*
G01X8892540Y1308100D01*
G01X8893002Y1318260D01*
G01X8892540Y1331191D01*
G01X8891616Y1337656D01*
G01X8890693Y1341351D01*
G01X8889769Y1345507D01*
G01X8888384Y1350126D01*
G01X8886998Y1354282D01*
G01X8885613Y1357976D01*
G01X8882842Y1364442D01*
G01X8880994Y1368136D01*
G01X8879147Y1371369D01*
G01X8877762Y1374140D01*
G01X8874067Y1379682D01*
G01X8873606Y1381529D01*
G01X8887922Y1381529D01*
G01X8903162Y1380606D01*
G01X8905009Y1377834D01*
G01X8907780Y1370446D01*
G01X8909627Y1365366D01*
G01X8913322Y1353358D01*
G01X8914707Y1348740D01*
G01X8916554Y1338580D01*
G01X8917016Y1333038D01*
G01X8917478Y1324726D01*
G37*
G36*
G01X8917940Y1476202D02*
G01X8917478Y1468813D01*
G01X8917016Y1465580D01*
G01X8916554Y1459576D01*
G01X8915631Y1454034D01*
G01X8914707Y1449416D01*
G01X8913784Y1445722D01*
G01X8912860Y1441566D01*
G01X8911474Y1436947D01*
G01X8908704Y1428634D01*
G01X8907318Y1424940D01*
G01X8904547Y1418474D01*
G01X8900622Y1417089D01*
G01X8889769Y1416627D01*
G01X8874067Y1417089D01*
G01X8873490Y1418013D01*
G01X8874529Y1419860D01*
G01X8877762Y1424478D01*
G01X8880071Y1428173D01*
G01X8885613Y1439256D01*
G01X8887460Y1443874D01*
G01X8889307Y1448954D01*
G01X8891154Y1454958D01*
G01X8892540Y1459576D01*
G01X8893464Y1466042D01*
G01X8893926Y1476202D01*
G01X8893464Y1489133D01*
G01X8892540Y1494674D01*
G01X8891616Y1498369D01*
G01X8890231Y1502987D01*
G01X8888384Y1506682D01*
G01X8886536Y1509453D01*
G01X8884689Y1511762D01*
G01X8882842Y1513609D01*
G01X8880533Y1514994D01*
G01X8877762Y1516380D01*
G01X8872682Y1517304D01*
G01X8864831Y1516842D01*
G01X8859289Y1515456D01*
G01X8856518Y1513609D01*
G01X8852824Y1509914D01*
G01X8850976Y1507144D01*
G01X8849591Y1503911D01*
G01X8848206Y1500216D01*
G01X8846820Y1494674D01*
G01X8845434Y1490056D01*
G01X8844511Y1485900D01*
G01X8843587Y1480820D01*
G01X8840816Y1466966D01*
G01X8839893Y1463271D01*
G01X8838969Y1459114D01*
G01X8837584Y1454496D01*
G01X8834813Y1446184D01*
G01X8832966Y1442027D01*
G01X8831118Y1438333D01*
G01X8828809Y1434638D01*
G01X8826500Y1431406D01*
G01X8824653Y1429096D01*
G01X8821420Y1425864D01*
G01X8817264Y1423093D01*
G01X8814031Y1421246D01*
G01X8809874Y1419398D01*
G01X8805718Y1418013D01*
G01X8797406Y1417089D01*
G01X8792787Y1417089D01*
G01X8786322Y1418013D01*
G01X8780318Y1419398D01*
G01X8776162Y1421246D01*
G01X8772467Y1423093D01*
G01X8769234Y1424940D01*
G01X8766464Y1426787D01*
G01X8763693Y1429096D01*
G01X8759074Y1433714D01*
G01X8757227Y1436024D01*
G01X8753533Y1441566D01*
G01X8751686Y1444798D01*
G01X8749838Y1449416D01*
G01X8747991Y1454496D01*
G01X8746606Y1458653D01*
G01X8744758Y1466966D01*
G01X8743834Y1477126D01*
G01X8743373Y1481282D01*
G01X8743834Y1485438D01*
G01X8744296Y1490980D01*
G01X8744758Y1498369D01*
G01X8745682Y1502987D01*
G01X8746606Y1508529D01*
G01X8747991Y1515918D01*
G01X8749838Y1522384D01*
G01X8751686Y1527926D01*
G01X8756304Y1539471D01*
G01X8771082Y1539471D01*
G01X8782050Y1539240D01*
G01X8785398Y1538547D01*
G01X8783551Y1535314D01*
G01X8781242Y1531620D01*
G01X8777547Y1525154D01*
G01X8775700Y1520998D01*
G01X8773853Y1516380D01*
G01X8772467Y1512686D01*
G01X8771082Y1508067D01*
G01X8769696Y1503911D01*
G01X8767849Y1494674D01*
G01X8767387Y1484976D01*
G01X8767849Y1473431D01*
G01X8768773Y1467889D01*
G01X8770158Y1462809D01*
G01X8772006Y1458191D01*
G01X8774314Y1454034D01*
G01X8776624Y1450802D01*
G01X8778471Y1448954D01*
G01X8781704Y1447107D01*
G01X8785398Y1445722D01*
G01X8789093Y1445260D01*
G01X8794634Y1445722D01*
G01X8799714Y1447107D01*
G01X8803409Y1448954D01*
G01X8806180Y1451264D01*
G01X8808489Y1454496D01*
G01X8810798Y1458653D01*
G01X8812646Y1463733D01*
G01X8814031Y1467889D01*
G01X8814954Y1472507D01*
G01X8817726Y1485438D01*
G01X8820496Y1499293D01*
G01X8821420Y1503449D01*
G01X8822806Y1508991D01*
G01X8824191Y1513147D01*
G01X8825576Y1516842D01*
G01X8827424Y1521460D01*
G01X8829733Y1525616D01*
G01X8831580Y1528849D01*
G01X8833427Y1531158D01*
G01X8839893Y1537624D01*
G01X8842202Y1539471D01*
G01X8845434Y1541318D01*
G01X8849591Y1543166D01*
G01X8854671Y1544551D01*
G01X8859289Y1545474D01*
G01X8863907Y1545936D01*
G01X8870373Y1545474D01*
G01X8874991Y1544551D01*
G01X8879147Y1543627D01*
G01X8883304Y1542242D01*
G01X8886998Y1540394D01*
G01X8891616Y1537624D01*
G01X8895311Y1534853D01*
G01X8903162Y1527002D01*
G01X8907780Y1520074D01*
G01X8909627Y1516842D01*
G01X8911474Y1512224D01*
G01X8913322Y1507144D01*
G01X8914707Y1502987D01*
G01X8916554Y1493751D01*
G01X8917478Y1484514D01*
G01X8917940Y1476202D01*
G37*
G36*
G01X8719358Y1584729D02*
G01X8690726Y1584729D01*
G01X8690726Y1616133D01*
G01X8719358Y1616133D01*
G01X8719358Y1584729D01*
G37*
G36*
G01X8976591Y1728354D02*
G01X8976591Y1725584D01*
G01X8976129Y1718656D01*
G01X8975667Y1710806D01*
G01X8975206Y1707573D01*
G01X8974744Y1702493D01*
G01X8973820Y1696951D01*
G01X8971973Y1687714D01*
G01X8971049Y1684020D01*
G01X8970126Y1679402D01*
G01X8969664Y1676169D01*
G01X8941031Y1676169D01*
G01X8941954Y1678478D01*
G01X8943802Y1683558D01*
G01X8945187Y1687714D01*
G01X8947496Y1696951D01*
G01X8948882Y1701569D01*
G01X8950729Y1711729D01*
G01X8951191Y1718194D01*
G01X8951653Y1725584D01*
G01X8951653Y1729278D01*
G01X8951191Y1734358D01*
G01X8950729Y1741286D01*
G01X8949806Y1745904D01*
G01X8948882Y1750060D01*
G01X8947496Y1754216D01*
G01X8945649Y1757911D01*
G01X8943802Y1761144D01*
G01X8941493Y1764376D01*
G01X8938722Y1767147D01*
G01X8936413Y1768994D01*
G01X8933180Y1771304D01*
G01X8929486Y1773151D01*
G01X8925329Y1774536D01*
G01X8921173Y1775460D01*
G01X8912860Y1776384D01*
G01X8902700Y1776846D01*
G01X8892540Y1776384D01*
G01X8891732Y1775806D01*
G01X8892078Y1774998D01*
G01X8893926Y1772689D01*
G01X8896234Y1769456D01*
G01X8899006Y1765300D01*
G01X8901776Y1760682D01*
G01X8904086Y1756987D01*
G01X8905933Y1752831D01*
G01X8907780Y1748213D01*
G01X8909166Y1743133D01*
G01X8910089Y1738514D01*
G01X8910551Y1734358D01*
G01X8911013Y1727431D01*
G01X8911013Y1721889D01*
G01X8910551Y1718194D01*
G01X8910089Y1712653D01*
G01X8909166Y1708034D01*
G01X8908242Y1704340D01*
G01X8906856Y1700184D01*
G01X8905009Y1696027D01*
G01X8903162Y1692333D01*
G01X8900853Y1688638D01*
G01X8898544Y1685406D01*
G01X8896696Y1683096D01*
G01X8888846Y1675246D01*
G01X8884227Y1672013D01*
G01X8880533Y1669704D01*
G01X8874991Y1666933D01*
G01X8870834Y1665086D01*
G01X8861136Y1661853D01*
G01X8851900Y1660006D01*
G01X8844511Y1659082D01*
G01X8832042Y1658620D01*
G01X8817726Y1659082D01*
G01X8810336Y1660006D01*
G01X8802947Y1661391D01*
G01X8796944Y1663238D01*
G01X8791402Y1665086D01*
G01X8787246Y1666933D01*
G01X8778933Y1671089D01*
G01X8774776Y1673860D01*
G01X8771544Y1676169D01*
G01X8766926Y1679864D01*
G01X8759074Y1687714D01*
G01X8756304Y1691409D01*
G01X8754456Y1693718D01*
G01X8752609Y1696951D01*
G01X8748914Y1704340D01*
G01X8747067Y1708958D01*
G01X8745682Y1712653D01*
G01X8743834Y1720966D01*
G01X8743373Y1731587D01*
G01X8743687Y1739438D01*
G01X8768311Y1739438D01*
G01X8768773Y1728354D01*
G01X8769696Y1723736D01*
G01X8770620Y1720042D01*
G01X8771544Y1716809D01*
G01X8773391Y1712653D01*
G01X8775700Y1708958D01*
G01X8777547Y1706187D01*
G01X8785398Y1698336D01*
G01X8789554Y1695566D01*
G01X8792787Y1693718D01*
G01X8796944Y1691871D01*
G01X8802947Y1690024D01*
G01X8807566Y1688638D01*
G01X8814031Y1687714D01*
G01X8826962Y1687253D01*
G01X8841740Y1687714D01*
G01X8848206Y1688638D01*
G01X8852824Y1689562D01*
G01X8856518Y1690486D01*
G01X8860674Y1691871D01*
G01X8864369Y1693256D01*
G01X8867140Y1694642D01*
G01X8870373Y1696489D01*
G01X8873606Y1698798D01*
G01X8878224Y1703416D01*
G01X8880533Y1706649D01*
G01X8882842Y1711267D01*
G01X8884227Y1715424D01*
G01X8884689Y1719580D01*
G01X8884689Y1719580D01*
G01X8885151Y1722813D01*
G01X8885613Y1728354D01*
G01X8885151Y1734820D01*
G01X8884689Y1738514D01*
G01X8883766Y1744056D01*
G01X8881918Y1750060D01*
G01X8880071Y1755602D01*
G01X8878224Y1759758D01*
G01X8874067Y1768071D01*
G01X8871296Y1772227D01*
G01X8869449Y1775460D01*
G01X8857673Y1776499D01*
G01X8823267Y1776846D01*
G01X8788746Y1776499D01*
G01X8776624Y1775460D01*
G01X8773853Y1768994D01*
G01X8772467Y1764838D01*
G01X8771082Y1760220D01*
G01X8769696Y1754678D01*
G01X8768773Y1749598D01*
G01X8768311Y1739438D01*
G01X8743687Y1739438D01*
G01X8743834Y1743133D01*
G01X8744758Y1749598D01*
G01X8746144Y1755602D01*
G01X8748914Y1762991D01*
G01X8750762Y1767147D01*
G01X8752609Y1770842D01*
G01X8753994Y1774536D01*
G01X8754456Y1776846D01*
G01X8747991Y1778693D01*
G01X8747991Y1804554D01*
G01X8825114Y1804554D01*
G01X8903624Y1804093D01*
G01X8906856Y1803631D01*
G01X8912860Y1803169D01*
G01X8918402Y1802246D01*
G01X8923020Y1801322D01*
G01X8929024Y1799936D01*
G01X8934566Y1798089D01*
G01X8939646Y1796242D01*
G01X8944264Y1793933D01*
G01X8947958Y1791624D01*
G01X8950729Y1790238D01*
G01X8953038Y1788391D01*
G01X8959966Y1781464D01*
G01X8962736Y1778231D01*
G01X8965507Y1774074D01*
G01X8967816Y1769918D01*
G01X8969664Y1766224D01*
G01X8971049Y1762529D01*
G01X8972434Y1758373D01*
G01X8973820Y1753754D01*
G01X8974744Y1749598D01*
G01X8975667Y1743133D01*
G01X8976129Y1736206D01*
G01X8976591Y1728354D01*
G37*
G36*
G01X8913322Y1586576D02*
G01X8747991Y1586576D01*
G01X8747991Y1614286D01*
G01X8913322Y1614286D01*
G01X8913322Y1586576D01*
G37*
G36*
G01X8913322Y1859973D02*
G01X8747991Y1859973D01*
G01X8747991Y1887682D01*
G01X8756766Y1887682D01*
G01X8763231Y1887913D01*
G01X8765078Y1888606D01*
G01X8763693Y1890914D01*
G01X8760922Y1894609D01*
G01X8757689Y1899227D01*
G01X8754918Y1903846D01*
G01X8752609Y1907540D01*
G01X8750762Y1911234D01*
G01X8748914Y1915391D01*
G01X8746144Y1922780D01*
G01X8744758Y1927860D01*
G01X8743834Y1932478D01*
G01X8743373Y1942176D01*
G01X8743834Y1951874D01*
G01X8744758Y1957416D01*
G01X8746144Y1963420D01*
G01X8747529Y1967114D01*
G01X8748914Y1970347D01*
G01X8750762Y1973580D01*
G01X8752609Y1976351D01*
G01X8754918Y1979584D01*
G01X8758613Y1983740D01*
G01X8762307Y1986511D01*
G01X8764616Y1988358D01*
G01X8767849Y1990206D01*
G01X8771544Y1992053D01*
G01X8774776Y1993438D01*
G01X8778471Y1994824D01*
G01X8783551Y1996209D01*
G01X8788169Y1997133D01*
G01X8795558Y1998056D01*
G01X8855133Y1998518D01*
G01X8913322Y1998518D01*
G01X8913322Y1970809D01*
G01X8861598Y1970809D01*
G01X8808489Y1970347D01*
G01X8805256Y1969886D01*
G01X8799253Y1969424D01*
G01X8793711Y1968500D01*
G01X8789554Y1967576D01*
G01X8785398Y1966191D01*
G01X8781704Y1964344D01*
G01X8778471Y1962034D01*
G01X8776162Y1959726D01*
G01X8773853Y1956954D01*
G01X8772006Y1953260D01*
G01X8770620Y1948180D01*
G01X8769696Y1943562D01*
G01X8769234Y1938020D01*
G01X8769696Y1932478D01*
G01X8770158Y1928784D01*
G01X8771082Y1923242D01*
G01X8772929Y1917238D01*
G01X8774776Y1912620D01*
G01X8776624Y1908464D01*
G01X8780318Y1901998D01*
G01X8782166Y1898304D01*
G01X8784013Y1895533D01*
G01X8786322Y1892300D01*
G01X8788169Y1889067D01*
G01X8804102Y1888028D01*
G01X8850976Y1887682D01*
G01X8913322Y1887682D01*
G01X8913322Y1859973D01*
G37*
G36*
G01X8917478Y2131060D02*
G01X8917478Y2126442D01*
G01X8917016Y2122286D01*
G01X8916554Y2114434D01*
G01X8915631Y2107969D01*
G01X8914707Y2103351D01*
G01X8913784Y2099656D01*
G01X8912860Y2095500D01*
G01X8911474Y2091344D01*
G01X8907780Y2083031D01*
G01X8905933Y2079336D01*
G01X8903162Y2074718D01*
G01X8900391Y2070562D01*
G01X8898082Y2067791D01*
G01X8896234Y2065482D01*
G01X8893926Y2063173D01*
G01X8891154Y2060864D01*
G01X8887922Y2057631D01*
G01X8883304Y2054398D01*
G01X8878686Y2051627D01*
G01X8874529Y2049318D01*
G01X8870373Y2047471D01*
G01X8865293Y2045624D01*
G01X8861136Y2044238D01*
G01X8852824Y2042391D01*
G01X8845434Y2041467D01*
G01X8834813Y2041006D01*
G01X8821420Y2041467D01*
G01X8813107Y2042391D01*
G01X8805718Y2043776D01*
G01X8801100Y2045162D01*
G01X8797406Y2046086D01*
G01X8793249Y2047471D01*
G01X8789093Y2049318D01*
G01X8781704Y2053013D01*
G01X8777547Y2055322D01*
G01X8773853Y2057631D01*
G01X8771082Y2059940D01*
G01X8766464Y2063634D01*
G01X8761846Y2068253D01*
G01X8756304Y2075642D01*
G01X8751686Y2083031D01*
G01X8749838Y2086726D01*
G01X8747991Y2091806D01*
G01X8746144Y2097809D01*
G01X8744758Y2102427D01*
G01X8743834Y2108893D01*
G01X8743373Y2119976D01*
G01X8743444Y2121824D01*
G01X8765540Y2121824D01*
G01X8766002Y2118129D01*
G01X8766926Y2109816D01*
G01X8767849Y2105198D01*
G01X8769234Y2100118D01*
G01X8771082Y2095962D01*
G01X8772929Y2092267D01*
G01X8775238Y2088573D01*
G01X8778009Y2085340D01*
G01X8782627Y2080722D01*
G01X8784936Y2078874D01*
G01X8787707Y2077027D01*
G01X8791402Y2074718D01*
G01X8795558Y2072871D01*
G01X8799253Y2071486D01*
G01X8803871Y2070100D01*
G01X8809413Y2069176D01*
G01X8809413Y2069176D01*
G01X8812184Y2069176D01*
G01X8812646Y2115820D01*
G01X8812184Y2163387D01*
G01X8811491Y2164311D01*
G01X8810336Y2164311D01*
G01X8806180Y2163849D01*
G01X8801100Y2163387D01*
G01X8797406Y2162464D01*
G01X8793249Y2161540D01*
G01X8789093Y2160154D01*
G01X8785398Y2158307D01*
G01X8780780Y2155536D01*
G01X8777086Y2152766D01*
G01X8774776Y2150456D01*
G01X8772467Y2147224D01*
G01X8770620Y2143991D01*
G01X8769234Y2141220D01*
G01X8767849Y2137526D01*
G01X8766926Y2133831D01*
G01X8766002Y2125518D01*
G01X8765540Y2121824D01*
G01X8743444Y2121824D01*
G01X8743834Y2131984D01*
G01X8744758Y2137526D01*
G01X8745682Y2142144D01*
G01X8746606Y2145838D01*
G01X8747991Y2149994D01*
G01X8749376Y2153689D01*
G01X8750762Y2156922D01*
G01X8752609Y2160154D01*
G01X8756304Y2165696D01*
G01X8758613Y2168467D01*
G01X8765540Y2175394D01*
G01X8768773Y2178166D01*
G01X8772929Y2180936D01*
G01X8777086Y2183246D01*
G01X8781242Y2185093D01*
G01X8789554Y2187864D01*
G01X8794634Y2189249D01*
G01X8799253Y2190173D01*
G01X8807566Y2191096D01*
G01X8821420Y2191558D01*
G01X8833889Y2191558D01*
G01X8833889Y2131522D01*
G01X8834351Y2070100D01*
G01X8835044Y2069176D01*
G01X8836198Y2069176D01*
G01X8839893Y2069638D01*
G01X8846358Y2070100D01*
G01X8853747Y2071486D01*
G01X8858827Y2073333D01*
G01X8862522Y2074718D01*
G01X8865754Y2076104D01*
G01X8869449Y2078413D01*
G01X8874067Y2081646D01*
G01X8877762Y2084416D01*
G01X8881456Y2089034D01*
G01X8883766Y2091806D01*
G01X8885613Y2094576D01*
G01X8887460Y2097809D01*
G01X8889307Y2102427D01*
G01X8890693Y2106122D01*
G01X8892540Y2114434D01*
G01X8893002Y2125518D01*
G01X8892540Y2138449D01*
G01X8891616Y2143991D01*
G01X8890693Y2148609D01*
G01X8888846Y2155998D01*
G01X8887460Y2160154D01*
G01X8885613Y2164311D01*
G01X8883766Y2168929D01*
G01X8877762Y2180936D01*
G01X8875453Y2184169D01*
G01X8874067Y2186478D01*
G01X8877416Y2187517D01*
G01X8888384Y2187864D01*
G01X8899698Y2187517D01*
G01X8904086Y2186478D01*
G01X8905471Y2183246D01*
G01X8909627Y2172162D01*
G01X8912398Y2162926D01*
G01X8913784Y2158769D01*
G01X8914707Y2155074D01*
G01X8916554Y2144914D01*
G01X8917016Y2139373D01*
G01X8917478Y2131060D01*
G37*
G36*
G01X8913322Y3167842D02*
G01X8747991Y3167842D01*
G01X8747991Y3195551D01*
G01X8755380Y3195551D01*
G01X8764154Y3196013D01*
G01X8764847Y3196821D01*
G01X8764154Y3198322D01*
G01X8757227Y3208020D01*
G01X8752609Y3215409D01*
G01X8748914Y3222798D01*
G01X8747529Y3226031D01*
G01X8746144Y3229726D01*
G01X8744758Y3234806D01*
G01X8743834Y3239424D01*
G01X8743373Y3247274D01*
G01X8743834Y3257896D01*
G01X8744758Y3263438D01*
G01X8745682Y3267133D01*
G01X8747067Y3271289D01*
G01X8748914Y3275446D01*
G01X8750762Y3278678D01*
G01X8752147Y3280987D01*
G01X8753994Y3283296D01*
G01X8756304Y3286067D01*
G01X8759074Y3288838D01*
G01X8761846Y3291147D01*
G01X8765078Y3293456D01*
G01X8768311Y3295304D01*
G01X8768311Y3298074D01*
G01X8766464Y3300846D01*
G01X8762769Y3305464D01*
G01X8760460Y3308696D01*
G01X8754918Y3317009D01*
G01X8752609Y3320704D01*
G01X8748914Y3328093D01*
G01X8747529Y3331787D01*
G01X8746144Y3335944D01*
G01X8744758Y3341024D01*
G01X8743834Y3345642D01*
G01X8743373Y3355802D01*
G01X8743834Y3365962D01*
G01X8744758Y3370580D01*
G01X8746144Y3376584D01*
G01X8747991Y3381664D01*
G01X8751224Y3388129D01*
G01X8754918Y3392747D01*
G01X8756766Y3394594D01*
G01X8759074Y3396442D01*
G01X8762307Y3399213D01*
G01X8766002Y3401522D01*
G01X8771544Y3404293D01*
G01X8775238Y3405678D01*
G01X8779394Y3407064D01*
G01X8784474Y3408449D01*
G01X8789093Y3409373D01*
G01X8801100Y3410296D01*
G01X8857904Y3410758D01*
G01X8913322Y3410758D01*
G01X8913322Y3383049D01*
G01X8865754Y3383049D01*
G01X8816802Y3382587D01*
G01X8799253Y3381664D01*
G01X8795558Y3381202D01*
G01X8790016Y3380278D01*
G01X8784474Y3378431D01*
G01X8780780Y3376584D01*
G01X8778009Y3374736D01*
G01X8774776Y3371504D01*
G01X8772006Y3366886D01*
G01X8770620Y3363191D01*
G01X8769696Y3356726D01*
G01X8769234Y3351646D01*
G01X8769696Y3346566D01*
G01X8770158Y3342871D01*
G01X8771082Y3337329D01*
G01X8772929Y3331326D01*
G01X8774776Y3327169D01*
G01X8776624Y3323474D01*
G01X8780318Y3317009D01*
G01X8782627Y3312853D01*
G01X8787246Y3306387D01*
G01X8789093Y3303154D01*
G01X8789786Y3302231D01*
G01X8790940Y3302231D01*
G01X8852824Y3302693D01*
G01X8913322Y3302693D01*
G01X8913322Y3274984D01*
G01X8859289Y3274984D01*
G01X8801100Y3274522D01*
G01X8793711Y3273598D01*
G01X8787246Y3272213D01*
G01X8782627Y3270366D01*
G01X8778933Y3268056D01*
G01X8774776Y3264362D01*
G01X8772006Y3259744D01*
G01X8770620Y3256049D01*
G01X8769696Y3249584D01*
G01X8769234Y3245889D01*
G01X8769696Y3239424D01*
G01X8770620Y3232958D01*
G01X8772467Y3225569D01*
G01X8773853Y3221874D01*
G01X8777547Y3214486D01*
G01X8781242Y3208020D01*
G01X8783551Y3204326D01*
G01X8788169Y3197860D01*
G01X8789554Y3195551D01*
G01X8913322Y3195551D01*
G01X8913322Y3167842D01*
G37*
G36*
G01X8917940Y3507740D02*
G01X8917478Y3495271D01*
G01X8914246Y3485573D01*
G01X8912398Y3481416D01*
G01X8910551Y3478184D01*
G01X8908242Y3474489D01*
G01X8905933Y3471256D01*
G01X8898082Y3463406D01*
G01X8893464Y3460173D01*
G01X8889769Y3457864D01*
G01X8886536Y3456478D01*
G01X8882842Y3455093D01*
G01X8877762Y3453707D01*
G01X8873144Y3452784D01*
G01X8867602Y3452322D01*
G01X8862060Y3452784D01*
G01X8854671Y3453707D01*
G01X8850053Y3454631D01*
G01X8844973Y3456016D01*
G01X8840816Y3457864D01*
G01X8836660Y3460173D01*
G01X8832966Y3462482D01*
G01X8830194Y3464791D01*
G01X8825576Y3469409D01*
G01X8823729Y3471718D01*
G01X8821420Y3474951D01*
G01X8819111Y3478646D01*
G01X8817264Y3482340D01*
G01X8815416Y3486958D01*
G01X8813569Y3492038D01*
G01X8811722Y3498042D01*
G01X8810336Y3502660D01*
G01X8808489Y3512820D01*
G01X8807566Y3520209D01*
G01X8806642Y3529446D01*
G01X8805718Y3539606D01*
G01X8804333Y3560387D01*
G01X8804333Y3565929D01*
G01X8826500Y3565929D01*
G01X8826500Y3563158D01*
G01X8826962Y3559002D01*
G01X8827886Y3546071D01*
G01X8828347Y3541914D01*
G01X8828809Y3534987D01*
G01X8829733Y3526674D01*
G01X8830656Y3520209D01*
G01X8832504Y3510973D01*
G01X8833889Y3505893D01*
G01X8835736Y3500813D01*
G01X8838046Y3496194D01*
G01X8840816Y3492038D01*
G01X8843126Y3488806D01*
G01X8846358Y3486034D01*
G01X8850053Y3483726D01*
G01X8853747Y3482340D01*
G01X8857442Y3481416D01*
G01X8861136Y3480954D01*
G01X8866678Y3481416D01*
G01X8872220Y3482340D01*
G01X8876838Y3483726D01*
G01X8881456Y3486034D01*
G01X8884689Y3488806D01*
G01X8886536Y3491114D01*
G01X8888384Y3494347D01*
G01X8890231Y3498504D01*
G01X8891154Y3502660D01*
G01X8891154Y3502660D01*
G01X8891616Y3505431D01*
G01X8892078Y3515129D01*
G01X8891616Y3525751D01*
G01X8890693Y3530369D01*
G01X8889307Y3536373D01*
G01X8887460Y3540991D01*
G01X8885613Y3545147D01*
G01X8883766Y3548842D01*
G01X8880071Y3555307D01*
G01X8877762Y3559002D01*
G01X8875453Y3562234D01*
G01X8874067Y3564544D01*
G01X8867833Y3565583D01*
G01X8850053Y3565929D01*
G01X8826500Y3565929D01*
G01X8804333Y3565929D01*
G01X8800638Y3565929D01*
G01X8794634Y3565467D01*
G01X8790016Y3564544D01*
G01X8785398Y3563158D01*
G01X8781242Y3560849D01*
G01X8778009Y3558540D01*
G01X8775238Y3555307D01*
G01X8772929Y3551613D01*
G01X8771082Y3546994D01*
G01X8769696Y3542376D01*
G01X8768773Y3534987D01*
G01X8768311Y3522980D01*
G01X8768773Y3510973D01*
G01X8769696Y3504507D01*
G01X8770620Y3499427D01*
G01X8772006Y3492500D01*
G01X8773853Y3486034D01*
G01X8775238Y3481416D01*
G01X8776162Y3478184D01*
G01X8777547Y3474489D01*
G01X8778933Y3469871D01*
G01X8779394Y3467100D01*
G01X8766464Y3467100D01*
G01X8752147Y3467562D01*
G01X8750300Y3469409D01*
G01X8746606Y3487882D01*
G01X8745682Y3494347D01*
G01X8744758Y3501736D01*
G01X8743834Y3515591D01*
G01X8743373Y3521594D01*
G01X8743834Y3527598D01*
G01X8744296Y3532678D01*
G01X8744758Y3538682D01*
G01X8745682Y3545147D01*
G01X8747067Y3552536D01*
G01X8748453Y3557154D01*
G01X8749376Y3560387D01*
G01X8750762Y3563620D01*
G01X8752609Y3567314D01*
G01X8754918Y3571471D01*
G01X8757227Y3574704D01*
G01X8760922Y3579322D01*
G01X8763231Y3581631D01*
G01X8765540Y3583478D01*
G01X8768311Y3585326D01*
G01X8771544Y3587173D01*
G01X8775238Y3589020D01*
G01X8780780Y3590867D01*
G01X8785398Y3592253D01*
G01X8792787Y3593176D01*
G01X8853747Y3593638D01*
G01X8913322Y3593638D01*
G01X8913322Y3565929D01*
G01X8906394Y3565929D01*
G01X8898082Y3565467D01*
G01X8897389Y3564544D01*
G01X8898082Y3562696D01*
G01X8900853Y3558540D01*
G01X8903162Y3555307D01*
G01X8905009Y3552998D01*
G01X8908704Y3546533D01*
G01X8910551Y3542838D01*
G01X8912398Y3538682D01*
G01X8913784Y3534526D01*
G01X8915169Y3529907D01*
G01X8916554Y3524827D01*
G01X8917478Y3520209D01*
G01X8917940Y3507740D01*
G37*
G04 Text End*

G04 PolygonModel Start*
G54D10*
G01X4940300Y1993900D02*
G01X4940300Y444500D01*
G01X4940300Y444500D02*
G01X6489700Y444500D01*
G01X6489700Y444500D02*
G01X6489700Y1993900D01*
G01X6489700Y1993900D02*
G01X4940300Y1993900D01*
G01X4940300Y1993900D02*
G01X4940300Y444500D01*
G01X4940300Y444500D02*
G01X6489700Y444500D01*
G01X6489700Y444500D02*
G01X6489700Y1993900D01*
G01X6489700Y1993900D02*
G01X4940300Y1993900D01*
G01X2832100Y1993900D02*
G01X2832100Y444500D01*
G01X2832100Y444500D02*
G01X4381500Y444500D01*
G01X4381500Y444500D02*
G01X4381500Y1993900D01*
G01X4381500Y1993900D02*
G01X2832100Y1993900D01*
G01X2832100Y1993900D02*
G01X2832100Y444500D01*
G01X2832100Y444500D02*
G01X4381500Y444500D01*
G01X4381500Y444500D02*
G01X4381500Y1993900D01*
G01X4381500Y1993900D02*
G01X2832100Y1993900D01*
G01X7035800Y1981200D02*
G01X7035800Y431800D01*
G01X7035800Y431800D02*
G01X8585200Y431800D01*
G01X8585200Y431800D02*
G01X8585200Y1981200D01*
G01X8585200Y1981200D02*
G01X7035800Y1981200D01*
G01X7035800Y1981200D02*
G01X7035800Y431800D01*
G01X7035800Y431800D02*
G01X8585200Y431800D01*
G01X8585200Y431800D02*
G01X8585200Y1981200D01*
G01X8585200Y1981200D02*
G01X7035800Y1981200D01*
G01X1930400Y2603500D02*
G01X215900Y2603500D01*
G01X2120900Y2794000D02*
G01X2120900Y4191000D01*
G01X25400Y3043000D02*
G01X-65627Y3043373D01*
G01X-115600Y3093373D02*
G01X-115600Y3892900D01*
G01X-65600Y3942900D02*
G01X25400Y3942900D01*
G54D11*
G01X25400Y4191000D02*
G01X25400Y2794000D01*
G54D10*
G01X25400Y4191000D02*
G01X25400Y2794000D01*
G01X1930400Y4381500D02*
G01X215900Y4381500D01*
G01X215900Y2603500D02*
G02X25400Y2794000I0J190500D01*
G01X2120900Y2794000D02*
G02X1930400Y2603500I-190500J0D01*
G01X-65627Y3043373D02*
G02X-115600Y3093373I29J50002D01*
G01X-115600Y3892900D02*
G02X-65600Y3942900I50000J0D01*
G01X25400Y4191000D02*
G02X215900Y4381500I190500J0D01*
G01X1930400Y4381500D02*
G02X2120900Y4191000I0J-190500D01*
G54D12*
G01X4448599Y4564052D02*
G01X4448599Y3564054D01*
G01X7108599Y4564052D02*
G01X7108599Y3564054D01*
G01X4448599Y3564054D02*
G01X7108599Y3564054D01*
G01X4448599Y4564052D02*
G01X7108599Y4564052D01*
G01X3948501Y4664151D02*
G01X7748595Y4664151D01*
G01X7748595Y3464001D01*
G01X3948501Y3464001D01*
G01X3948501Y4664151D02*
G01X3948501Y3464001D01*
G01X689999Y1390894D02*
G01X689999Y1906107D01*
G01X689999Y606108D02*
G01X689999Y1021319D01*
G01X896887Y1906107D02*
G01X689999Y1906107D01*
G01X1396886Y1906107D02*
G01X1143114Y1906107D01*
G01X1860001Y1906107D02*
G01X1643113Y1906107D01*
G01X1860001Y1384717D02*
G01X1860001Y1906107D01*
G01X1860001Y606108D02*
G01X1860001Y1027496D01*
G01X689999Y606108D02*
G01X1860001Y606108D01*

G04 Circle Start*
G54D13*
G01X24100Y2598420D02*
G03X74900Y2598420I25400J0D01*
G03X24100Y2598420I-25400J0D01*
G01X112100Y2712720D02*
G03X162900Y2712720I25400J0D01*
G03X112100Y2712720I-25400J0D01*
G54D12*
G01X1185139Y1206094D02*
G03X1374877Y1206094I94869J0D01*
G03X1185139Y1206094I-94869J0D01*
G01X1016000Y1206094D02*
G03X1544015Y1206094I264008J0D01*
G03X1016000Y1206094I-264008J0D01*
G04 Circle End*

M02*

